/* XPM */
static char *stonebrickcarved[] = {
/* columns rows colors chars-per-pixel */
"64 64 128 2 ",
"   c #555453",
".  c gray33",
"X  c gray34",
"o  c #585756",
"O  c #585858",
"+  c gray35",
"@  c #5B5B5B",
"#  c gray36",
"$  c #5D5D5D",
"%  c gray37",
"&  c #61605F",
"*  c #626160",
"=  c gray39",
"-  c #646362",
";  c #646464",
":  c #656565",
">  c #676767",
",  c #696867",
"<  c #686868",
"1  c DimGray",
"2  c #6A6968",
"3  c gray42",
"4  c #6C6B6A",
"5  c #6D6C6B",
"6  c #6C6C6C",
"7  c #6F6E6D",
"8  c #6F6F6F",
"9  c #706F6E",
"0  c #706F6F",
"q  c #70706F",
"w  c gray44",
"e  c gray45",
"r  c #757473",
"t  c #747474",
"y  c gray46",
"u  c #797777",
"i  c #797877",
"p  c gray47",
"a  c #7A7878",
"s  c #7B7979",
"d  c gray48",
"f  c #7B7B7B",
"g  c #7D7C7B",
"h  c #7C7C7C",
"j  c #7F7D7D",
"k  c #7F7E7D",
"l  c #7E7E7E",
"z  c gray50",
"x  c #81807F",
"c  c #808080",
"v  c #818181",
"b  c gray51",
"n  c #838383",
"m  c #848382",
"M  c #848484",
"N  c #868684",
"B  c #878685",
"V  c gray53",
"C  c #888484",
"Z  c #888686",
"A  c #888887",
"S  c #8A8886",
"D  c #888888",
"F  c #898989",
"G  c #8A8888",
"H  c #8B8B8B",
"J  c #8C8A88",
"K  c #8D8B89",
"L  c #8D8B8B",
"P  c gray55",
"I  c #8E8D8C",
"U  c #8F8E8D",
"Y  c gray56",
"T  c #908E8E",
"R  c #908F8E",
"E  c #91908F",
"W  c #909090",
"Q  c #929090",
"!  c #929190",
"~  c #939191",
"^  c #929292",
"/  c #939393",
"(  c #949392",
")  c gray58",
"_  c #969494",
"`  c #979695",
"'  c #979795",
"]  c #979797",
"[  c #989796",
"{  c #999797",
"}  c #989896",
"|  c #9B9897",
" . c gray60",
".. c #9B9A99",
"X. c #9B9B99",
"o. c #9C9A9A",
"O. c gray61",
"+. c #9E9D9C",
"@. c #9F9D9D",
"#. c #A09E9E",
"$. c #A09F9E",
"%. c #A19F9F",
"&. c #A1A09F",
"*. c #A2A0A0",
"=. c #A2A1A1",
"-. c #A4A2A3",
";. c #A4A4A2",
":. c #A6A5A4",
">. c #A7A6A5",
",. c #A8A6A6",
"<. c #A9A8A7",
"1. c #ABAAA9",
"2. c #ACABAA",
"3. c #ADACAB",
"4. c #AEACAC",
"5. c #AFAEAD",
"6. c #B1AFAF",
"7. c #B1B0AF",
"8. c #B2B0B0",
"9. c #B2B1B0",
"0. c #B2B0B1",
"q. c #B3B2B1",
"w. c #B4B2B3",
"e. c #B5B4B3",
"r. c #B7B6B5",
"t. c #B9B8B7",
"y. c #BCBABA",
"u. c #C1C0BF",
/* pixels */
"X X X X X X X X O X O O X X X X + O O O O O X O $ & * = * 4 1 7 3 7 3 y 3 7 3 3 5 4 : 4 ; * & ; * & 4 > : : + # # O O X X     O ",
"X F o.^ W E W W W W W I W W I W P W ^ L b O [ 9.<.>.=.;.;.=.>.>.>.>.<.1.>.>.;.>.<.,.<.<.>.1.>.<.1.<.>.>.;.<.;.;.=.=.$.;.&.+.c + ",
"X ^ r.4.>.1.<.<.<.<.<.1.1.1.1.1.1.,.>.>.P + ^ 0.1.1.1.3.1.3.1.3.4.4.4.5.4.4.4.4.1.6.3.6.4.1.9.7.7.2.1.1.3.3.3.<.3.3.<.1.1.;.N $ ",
"o b $.&...| ..o...| } ......` ` ` ..` ` u + M =.,.$.+.$...+...@.@.O.@.$.$.X.$.$.$.&.&.&.=.+.@.$.@.@...@.X.| | | | o.+.@.X.| p O ",
"X b [ ` F K F S K K S I P S F F F B D B 8 O c ..o.I P ^ ^ ^ ^ E E E E E W W W P P T T I P T L L P P H I S F H J F P P P P F q o ",
"X l ` ( P K F I F P P I F I F S B S S B 8 O b ..| T ^ ^ ^ ^ ) ^ ( E E ( ) ) W ` ( T ^ ( T P P K I W W I P P E I P F P P P P 7 O ",
"X l ` ( F P T I T ^ P E P P F K V B V B 8 O b ] ..P E ^ ^ E ( ) ` W E E E P E ( E ( T E ( P Q T W B I F P P W E T ^ W P P D 7 + ",
"X b ` ` P ^ I ^ ^ E E P P P F F V F B B w O b ] ` I P ^ ( ^ ) ^ E E E E E W W ( E ( ^ ( ^ ( T K I I I I P P J I F F P F F B 4 $ ",
"X x | } I E P E E E I T P P P J S B B B 7 O c ` } H T E P ^ / / W E ( E ( ^ ^ ^ ^ P ( ` ^ ( ( ^ E I T E ^ P L V S S B B B n 1 @ ",
"X b ` ( T E E E ^ E E E P E I S D F D B 0 O b ` ` I H E ` P / / E ( ( ( ^ ( ` ^ ^ W ^ ^ ( T ( ^ ( ( P T L L L D B S M B F B 7 O ",
"X b | ( I E E E ^ E E E E I I F F B B B 0 X b ` ( P P ( ^ T ` ^ E ^ E E E ^ E ^ T ^ ^ ^ T I T I K F T P P K S S B B B M S n 3 + ",
"X c X.` I E E E ( E E E E I I P D B B B 7 + b | | P T T ^ ^ P ) E E F W E E E ( ( ( E P ^ T P ^ ^ I P P P K B B B B B B S n 7 O ",
"X c | ` H E E ^ ( E E E I E F K B B B B 7 O b ` | I I I T T E T ( ) ^ E E E ( ^ ^ E ^ T P P L P I K F F F F S B B B B F F b 2 O ",
"X b | ^ I I E E ( ^ E E E E I S F S B N 7 O l ` ` H I I I ^ I T I W W E H W I I T ^ T F F I K K F K K S B B B b B B B B b b 4 o ",
"X b | ( I E E ( ( ( ^ T E P I F B B B B 7 O l ` ` I I J P T I T I I H I I P P B F S F F F S S F F F L B B D B S B B B B S z < + ",
"X c ..( I E E E ( E ^ T E P F S B B b B q O x } ^ W S I T I I P H S S F H S S F S S S P J N B S F S B B S B V B B B F B F N 4 + ",
"X c | ) P E E E ^ E E E E I P K S B S B 9 O l ^ ^ S S F K S D F D D D S D C S S S n M S B B B S B V B B B S D C D D V D D b 5 o ",
"X c } } P ^ E E [ ^ ^ T T I F I B B b N 7 o l ( ^ L F K P F L D D K K K K S M n n b M M B S n B S B B S D B M S S D S C D b < O ",
"X c | ) P E E ( [ E ^ E E E P S S B b N 0 O l ( ^ F F K K D F K D L B D D C D V K C S M S B B B S S S M B B S D D D S M S z < O ",
"X b ..) I T E ^ ( E E E E P P K B B N b 7 O g T F B B S S B S B C M B B D D S B b S M S n b B S M C D D B M B M M n M M C z < O ",
"O c | | I E E E ( ^ ^ E ( T L F B b B B 5 O 7 l r 7 4 7 5 5 5 9 5 5 4 4 7 7 7 5 5 < 0 y r r r r y y r r r r r r y y r r 9 0 = O ",
"X b } ( P E E E ( ( T E P P L S B B B B : O O X + X X + # + O O O # @ X O @ O @ o @ + # $ + O @ O O # + + # @ X o $ X O # O O @ ",
"X c | | I I E ( ( ( T T T I F K B B B B 0 O b $.o..._ [ { [ [ [ { [ ..` ] ] ] _ Q O M [ P P S F L K D F L F L P F K F S K l : # ",
"O c | ( H E E ( ( ( E ^ T K K F S B S S w O F t.r.6.0.w.w.w.6.6.6.6.0.9.6.6.9.4.<.# { y.0.7.7.9.0.6.0.0.9.w.6.w.6.6.0.6.4.-.r O ",
"O c } ( J I E E E E E E I F F S B n S B 7 X l =.>.=.@.=.*.$.*.$.@.@.$.@.@.@.@.+.I O S ,.>.#.@.@.&.@.&.&.$.$.$.$.*.@.$.$.o.^ < + ",
"X l ` ) I I I E ( ( E I I I K F V B b B 8 O f ..../ ^ ^ ~ ~ ~ Q Q ^ E T T E I I j @ n $.| T I E P E T I I I I E Q L I F T S : + ",
"O b | ( I I I E ( E E E I I F K B B B B w @ f ....^ ^ / ( ( ~ ~ ^ Q Q T E P W F s @ n $.o.T T E E E E I E I E E P ^ I I I S : + ",
"X b | ` I I E E E E E I I I K S F B B B w O f ` ..T ^ / ~ ~ ( Q P / T ^ T E E F s @ n $.| ^ E ^ E T T I E ^ E I T P I I I b : # ",
". c | ) H P E I T E I I I I I J B B B B 7 O g ..[ T T ( ( _ ( ( ^ E E T I T I S a O S $.+.E W ^ ( E E E ^ E ^ E T ( I T I N & + ",
". c } ) P P E ^ E E E I I J P K B B B B w O g [ ..T ^ ( _ ( ( Q ( E E E T E I K d $ b $...E ( ( ( E ( ( ( E ^ T E P E P I B : # ",
"X c ( ( P P E E E E E E I P K S S D B N w X f ` [ T ^ ( ( _ _ Q E E ^ T T ^ I K d O B &.+.E ( ( ( E ( ` ^ ( E ^ E E I P P B : @ ",
"X c } ` P W E E E E E E I S H K D D B B w X f ....P T _ _ ( ( ( E T E E P T P F p O N &.+.E ( ( ( E ) ( ( E E E E E I I ^ S : $ ",
"O g } } I T E E P E I W H H H D S S S n 7 + f { [ T I ^ ^ ^ ^ ^ E I L P T P K F g + S =.$.( ( ( ( ( ( ( ( ( E ^ ^ E I P T B = # ",
"O l ` E J P I ^ E I I P I H S H D M S n 0 + f { o.I I E T ( P P E T P P K P F B a + B -.$.( ( ( ( [ ` ( ( ( E ( E E T ^ E N : O ",
"o c } E I H E P U I P P S S S D S M b M 0 + f ` [ I T T K P Q K I I I K K K K M a + B -.$.( ( ( [ ( ( [ ` ^ ( ( ( E E E I N = O ",
"O l } E K H P P I I P P S D B D M S B n 8 X u ] ` I T T P Q P L I K K K L F K K d O N -.*.( [ ( _ o.[ ( ( ( ( ( E E E P E S : O ",
"O l ( ( F P F F J I J S B S B n B B B n 7 . p ` ` T K K L L L L L K L G F G G S l O B -.=.` ` } [ | ( ..} ^ ( ( ( ( T T ( S : X ",
"O g ( E F F P H J J I F H B B B B B n S 7 X d ` ` F K K K K L L L L G G G G K S d O F ,.=.` | ..o.[ | ` ` ` ( ( ( ( T T I N : $ ",
"+ g ( ( D D F F D B S S S S B M S n n n 7 X u ` { L L L I I J I L F G G G G D D d $ B $.$...} ..| ....| | ` ^ ^ ( ^ ^ T P F : o ",
"  l ( ^ D S F D B S B B B x n B n n n n 4 X t ` [ L F L J I J F F G G G G G D D p O D >.=.................` ( ` ( ( ^ ^ ( S : + ",
"X e b q 7 7 7 4 3 3 7 4 1 1 4 3 4 , 5 < @ @ 4 j a 7 q 7 7 7 7 q 9 9 9 9 3 7 3 3 = @ B <.=.....+.....+.....[ ( ( ( ( ( T T S : X ",
"O O O O O $ + O + O O + @ O O O o o O O o O O O @ O O @ @ O @ O O O O O O O O O O @ B >.=. .| X...+.......o.| [ [ ( ( E E S : + ",
"O ( -.+.` } | } } ....X.| } ` | | | [ [ } | o.| | | | | } | } } [ | [ [ | ) ..( F @ B <.>.| ..X...@.+.....[ [ [ [ ( E E ^ B : $ ",
"@ o.u.t.9.e.9.9.9.r.9.9.e.e.e.e.e.e.0.e.r.q.r.q.9.9.7.0.7.7.5.e.6.0.0.0.9.9.9.7.3.O B >.;.....@.o.X.@.....` ` ` [ ( ( T P S : $ ",
"O D <.1.=.&.&.@.&.@.=.&.&.&.&.&.>.&.;.&.&.&.&.=.&.&.&.&.&.&.$.$.$.$.$.$.$.$.@.@.E O P <.=...X...@...@...o.| | ` [ ( ( ^ T B : O ",
"@ B @...^ I P I I T I E T E E ^ E E E E ^ E E E E I E I I I T T P K T T E I ^ ^ x O F <.;.| ....o.@.@.@.o.[ [ [ ( ( ( T ( S : O ",
"@ D @...W ^ E I T E E E E E E ^ ^ ^ E E E E E E E E E E T P T T T I E P W ^ I P c + I <.>.| ......+.@...o.[ [ [ ` ( Q ^ ^ B : X ",
"@ D @...W E I ^ ^ E I E T E E ^ ( E ( ^ ( E ( ^ E T E E ( E E E T I I T W H P P l O B 2.>.....| ....+...o.[ ( [ ( ( ^ Q P S : O ",
"O D @.} H P P E E E ^ E E E E ( ^ ( ( ^ ( ( ^ ( ( Q ( ^ T T T T I ^ ^ P I I P P c @ F =.>.X.| } | ......o.| [ [ [ ^ ( T E J : o ",
"@ D @.} I ^ ^ I I E ( E ( ( ( ( ` ^ ` / / ` ` _ ^ ( ^ ( ( T ( E E I T T ( ^ T P g + F >.=.....X.} ......o.[ [ ( ( ( ( ( T F : @ ",
"O D O.} I E ^ E ^ E ( E ( ( ( ( ` ` ` ( ` ` ` / ( ( ( Q ( E E ^ E I T E I I T K g + F >.>.....} ......` [ [ ( [ ( ( ( T T F : $ ",
"@ B @.} I E ^ E ^ E ( E ( ( ( | ` ` [ [ [ ` ` ` [ [ _ ( ( ( ( E E ^ P ^ T I P K l + D >.=.| | | ....` | [ [ [ ( ( ( ( T E S : O ",
"O D X.| P W P ^ E ( ^ ( ( ( ` } [ ` [ [ | ` ` ` [ [ ( _ [ ( ( ( E E E ^ I ^ K P l O S ;.$.( | | ` { [ ` ` ( ( ( ^ E E E T B : X ",
"O D X.} P W ^ E ^ ^ ( ^ ( | ` ` [ [ [ [ ` ` | } [ ( [ [ ( ( E ^ I I I I T I P P g # S ;.$.[ | ( { [ ` [ ` ( ( ( E E E E E S : X ",
"@ D @...E ( E ( ( ( ` ) ` ` ` ` ..........| | | [ [ _ ( _ ` ( ( P I I I P T P K l X S *.$.[ ( ( ` ` ( ( ( ( ^ T E E E T P B : $ ",
"O D $...P P E E ^ E ^ ( ` } ( ` ] ` ` ` } ` ( [ _ [ [ [ ( _ ( T E I I I P P F K l X B =.+.E ( ( ( ( ( ^ T ^ P ^ E T E P T F : $ ",
"O B ..| I E T E E E E ( ( ( ( | [ ` ` | ` } [ ( ( ( ( [ ( ( E E E I J I S I I J g @ B &.@.( E ( ( ^ ^ E ^ I E P P E I I I N * O ",
"@ B @.| I I T E E E E E ^ E E ^ ( ( ( T ^ ^ ( ( ( _ ( ( E E E T H I J I P P I J g + n &...E E E E E E E T T P I P P K P I N : o ",
"O D ..| H I T P P E P E E E E T E ( ( ^ E T ( ^ ( ( E E E E ( E T P P T T E I H g + b @.o.T E E E E E I E E P T I S P P I N : X ",
"O D +.| I I T T E T P E E P I E L T T P T T T T T T E I E P P P P T P E E P I K l + x @.| E E T E E E I E I T T J J S P I N = + ",
"@ B @.` P P P P P P P P P P P T P P Q ^ T E P P I I I I P P P P P F P P I I F S l + b o.` ^ P P I E I I P P P P P F F P K M : X ",
"@ n } ^ F D K S F S F D S K S K D D S S S F F D S S F S S D S S S S S D S B B S p @ g ( ^ F H D F F S F V D F F S B F F B b * X ",
"@ w a q 7 4 2 5 4 4 4 4 < 4 4 4 4 1 1 1 7 4 3 1 4 7 4 4 3 4 4 3 4 1 4 4 1 1 4 1 : O q p q 4 4 3 4 3 4 1 3 3 1 4 4 > 3 > 4 : O . ",
"O @ O @ O O O O O + O @ X O O X X X X X X X X X X X X X O O O O O @ @ + O O O O O @ O O @ @ $ @ @ + O O O @ X @ X X @ + X O O O "
};
