/* XPM */
static char *wall3032[] = {
/* columns rows colors chars-per-pixel */
"64 64 13 1 ",
"  c gray19",
". c #282828",
"X c gray22",
"o c #484848",
"O c #646464",
"+ c #4C4C4C",
"@ c black",
"# c gray33",
"$ c gray44",
"% c gray36",
"& c #202020",
"* c gray11",
"= c #7C7C7C",
/* pixels */
"O$OOOO$OO$O$$$OOO$$$$=$$$=OO$$$=$=$$$$O$$=$$$$$O$OOOOOOO$%OOO$OO",
"%%%O$O%%OOOOO$$$$$$$$$OO$OO$O$$$$$$$$$O$$OOOOOOOOO$OOO$$%%%O%%%%",
"%%OOOOOO$OOO$OOO$$OOOO$$$O$$OO$$$$$O$O$$OOOOOO$$OOOOOOOOOOOO%%O%",
"#%%OOO%%OO%OOOO%OOOO$$$O$O$$$O$O%OO$$$$$$$O$O$O%%O$O%OOO%%O%#%%%",
"%%%%%%%%OOOOOO%O$OOO$%O%$O$$OO%OOO%%O$$O$O$OO%O%%%%OOO%%%%%%%%%%",
"%%O%#%OOOOOOOOO$OO%OO%$O$$$%O$$$$O$$$%O%$OOOOO$OOO$$%%%%O%%O%%%%",
"#%%%%%%%OO%OOO$OOOOOOOO$O%%O%O%OOOOOOOOO%%%%O%%%OO%%%%%%%%%%#%%%",
"oooooooooooooooooooooooooooooooooooooooooooooooooooooooooooooooo",
"%%%%%%%%%OOOOOOOOOOOOOOOOOOOOOOOOOOOOOOOOOOOOOOOOOOOO%%%%%%%%%%%",
"XX..o..ooXo.oooooooo.ooooXXoooo..ooooooooooo..ooooXXooXo..XoXX..",
" o oo oXX o ooXoXoooooXooXXooXoXoooXoXoXoXoooXoXXX  XX o oXX o o",
".&&..&....&....................&.................X.....&&....&&.",
"$$$$$$$$$$$$$$ X X                         X      #$$$$$$$$$$OOO",
"++##+#+##+####    &                             &+O####+#+++++##",
"+###+##+##%###  ++++++++++##########+++++++++++++OO###+##++#+##+",
"o+##+#++++####  ++++++++++++##OOOO##+++++++++++++#O###++++++o+++",
"+##++#++######  ++++++++++#OOO#+++#++++++++++++++OO###o+#++++#++",
"           XXX& +++++++++#OOOO##O####+  X++++++++#X             ",
"++############@ +++++++++#OOOOO##+ o++#@*++++++++O #########++++",
"..  . .....   @ +o++++++#OOOOOO$$O++#oO @&++ooooo#  ....  ....  ",
".XX.XX    XX  @ ooooooooOOOO+OOO#O#o+#OX@&ooooooo# .   XX   .XX.",
"  .. ..    . X@ ooooooooOOO##++###  +##o@  oooooo# .    ..    &.",
". .XX.X  .X.XX@&oooooooo##O+#+o#+X&X##+X@@*oooooo# .  .X.X  . .X",
"... ..  ..    @&oooooooo####oo####o #O  @@*oooooo+ . ....  .... ",
". &. &.       @&oooooooo#++# +O###++oX @@@@oooooo+ .  . &.  . &&",
". .  .X... .XX@&XXXooooo#+@@@@&  &@@@@o@@@@XXXXXX# . .. . ... . ",
"..& ..  ....  @*XXXXXXXXo+@@@@@*@@@@@@ @@@&XXXXXX+ . ....  ...& ",
"....... .  ...@&XXXXXXXXo#@@@@@**@@@@@ *@@&XXXXXX+ . . ..... ...",
".&..&.... ....@&XXXXXXXX + @*X+* #o@&&X*@@ XXXXXX+ ... &.....&..",
"......... ....@&XXXXXXXX& +#o#o@@+#X#o@@@@*XXXXXX+ ... .........",
"..&..&.....&  @&XXXXXXXX@   @o*@@*#@&@@@@@@XXXXXX# .....&.....&.",
". .  . ... .  @&XXXXXXXXX@&#oX@@@@o  @@@@&@XXXXXXo&.... . ... . ",
"..&&.&&.......@*    XXXXX@@X++o+ *  &@@@@*@      +&.....&&....&&",
"..&..&........@&          @ Xo+oX X&@@@@@&&      o&.....&.....&.",
"... .. ... .  @&         X@@    &&@@@@@@@X@      o&...... ......",
"..*&.*&....&..@*          *@*X@o &@@@@@@@*@      X&.....*&....*&",
"..............@*           @@@@@@@@@@@@@*@*      X&.............",
"&&..*..&.&&...@*           &X ++oX&*@@@@@@*      +&...&&....&&..",
"@@@@@@@@@@@@@@@*         X  &X&&&&   @@@*@&      o&@@@@@@@@@@@@@",
"+++++++++++++#*@          X*&      &@@@@@@&      o++++++++++++++",
" XXXooXXoXXXXo**            &*****&*@@@@@@       XoXXXooXXoX XXX",
"XXXXXXXXXXXXXX@*             *@@@@@@@@@@@@       XXXXoXXXXXXXXXX",
"XXXXXXXXXooooX*@                 *@@*@@@&        XooXXXXXXXXXXXX",
" XXXXXXXXX XXX@@                                 X XXXXXXXXX XXX",
"...........&..@ oXooXX XoooooXX XXXooXooXXXo+oXXXX .&...........",
"XXXXXXXXXXXXXX oX XXXoooXXXXXXooooXXXXoXXXXoXXXX XXXXXXXXXXXXXXX",
"..**.**....*........*..........**...........**.....&....**....**",
"&.&..&...&.&..&.&.....&..&&..&.&...&.&.&.&...&.&..&&..&.&...&.&.",
"****************************************************************",
"oooooooooooooooooooooooooooooooooooooooooooooooooooooooooooooooo",
"XX  X   XXXX X XXXXXXXX XXX  XXX X  XXXXXXX X X X  XX X   X XX  ",
"  X X      XXX XX X  XX X X XXXXXXX XXXXX  XXXXXXX XX X    .  X ",
"          X  X XXXX X   X XXX       XXX X XX         X          ",
"  X   X  XXXX XXXX  X XXXXX XXXXXXX X   X  XXXXXXXXX       X  X ",
".        X  X X  XXXXXXXX    X   X   XX     X   X               ",
"XX     X  XX             XX XX  X .      X XX  X . .     X  XX  ",
"...   X    ..  X XX   X  X .X      X XX    X      X     X   ... ",
" X     .   X         XX  X  X  X X       X X  X X    .   .   X  ",
"    X ..        X     .   .            XX           . X ..      ",
"        X                      X              X                 ",
". .       .    . .   X    X   X ..     X     X ..   .   .   ... ",
"              .    . . . .    . . ..   .     . ....      .      ",
"    .          X  .  .  XX .   X   XX. . .    X   XX  .         ",
".   ..    .   X          .. . ..        .... ..    .. ..    .   "
};
