/* XPM */
static char *woodlike05[] = {
/* columns rows colors chars-per-pixel */
"64 64 256 2 ",
"   c black",
".  c #0000A8",
"X  c #00A800",
"o  c #00A8A8",
"O  c #A80000",
"+  c #A800A8",
"@  c #A85400",
"#  c gray66",
"$  c gray33",
"%  c #5454FC",
"&  c #54FC54",
"*  c #54FCFC",
"=  c #FC5454",
"-  c #FC54FC",
";  c #FCFC54",
":  c gray99",
">  c #ECECEC",
",  c gainsboro",
"<  c #D0D0D0",
"1  c #C0C0C0",
"2  c #B4B4B4",
"3  c gray66",
"4  c #989898",
"5  c gray55",
"6  c #7C7C7C",
"7  c gray44",
"8  c #646464",
"9  c gray33",
"0  c #484848",
"q  c gray22",
"w  c #2C2C2C",
"e  c #202020",
"r  c #FC0000",
"t  c #EC0000",
"y  c #E00000",
"u  c #D40000",
"i  c #C80000",
"p  c #BC0000",
"a  c #B00000",
"s  c #A40000",
"d  c #980000",
"f  c #880000",
"g  c #7C0000",
"h  c #700000",
"j  c #640000",
"k  c #580000",
"l  c #4C0000",
"z  c #400000",
"x  c #FCD8D8",
"c  c #FCB8B8",
"v  c #FC9C9C",
"b  c #FC7C7C",
"n  c #FC5C5C",
"m  c #FC4040",
"M  c #FC2020",
"N  c #FC0000",
"B  c #FCA85C",
"V  c #FC9840",
"C  c #FC8820",
"Z  c #FC7800",
"A  c #E46C00",
"S  c #CC6000",
"D  c #B45400",
"F  c #9C4C00",
"G  c #FCFCD8",
"H  c #FCFCB8",
"J  c #FCFC9C",
"K  c #FCFC7C",
"L  c #FCF85C",
"P  c #FCF440",
"I  c #FCF420",
"U  c #FCF400",
"Y  c #E4D800",
"T  c #CCC400",
"R  c #B4AC00",
"E  c #9C9C00",
"W  c #848400",
"Q  c #706C00",
"!  c #585400",
"~  c #404000",
"^  c #D0FC5C",
"/  c #C4FC40",
"(  c #B4FC20",
")  c #A0FC00",
"_  c #90E400",
"`  c #80CC00",
"'  c #74B400",
"]  c #609C00",
"[  c #D8FCD8",
"{  c #BCFCB8",
"}  c #9CFC9C",
"|  c #80FC7C",
" . c #60FC5C",
".. c #40FC40",
"X. c #20FC20",
"o. c #00FC00",
"O. c #00FC00",
"+. c #00EC00",
"@. c #00E000",
"#. c #00D400",
"$. c #04C800",
"%. c #04BC00",
"&. c #04B000",
"*. c #04A400",
"=. c #049800",
"-. c #048800",
";. c #047C00",
":. c #047000",
">. c #046400",
",. c #045800",
"<. c #044C00",
"1. c #044000",
"2. c #D8FCFC",
"3. c #B8FCFC",
"4. c #9CFCFC",
"5. c #7CFCF8",
"6. c #5CFCFC",
"7. c #40FCFC",
"8. c #20FCFC",
"9. c #00FCFC",
"0. c #00E4E4",
"q. c #00CCCC",
"w. c #00B4B4",
"e. c #009C9C",
"r. c #008484",
"t. c #007070",
"y. c #005858",
"u. c #004040",
"i. c #5CBCFC",
"p. c #40B0FC",
"a. c #20A8FC",
"s. c #009CFC",
"d. c #008CE4",
"f. c #007CCC",
"g. c #006CB4",
"h. c #005C9C",
"j. c #D8D8FC",
"k. c #B8BCFC",
"l. c #9C9CFC",
"z. c #7C80FC",
"x. c #5C60FC",
"c. c #4040FC",
"v. c #2024FC",
"b. c #0004FC",
"n. c #0000FC",
"m. c #0000EC",
"M. c #0000E0",
"N. c #0000D4",
"B. c #0000C8",
"V. c #0000BC",
"C. c #0000B0",
"Z. c #0000A4",
"A. c #000098",
"S. c #000088",
"D. c #00007C",
"F. c #000070",
"G. c #000064",
"H. c #000058",
"J. c #00004C",
"K. c #000040",
"L. c #282828",
"P. c #FCE034",
"I. c #FCD424",
"U. c #FCCC18",
"Y. c #FCC008",
"T. c #FCB400",
"R. c #003800",
"E. c #002800",
"W. c #9800E4",
"Q. c #8000CC",
"!. c #7400B4",
"~. c #60009C",
"^. c #500084",
"/. c #440070",
"(. c #340058",
"). c #280040",
"_. c #FCD8FC",
"`. c #FCB8FC",
"'. c #FC9CFC",
"]. c #FC7CFC",
"[. c #FC5CFC",
"{. c #FC40FC",
"}. c #FC20FC",
"|. c #FC00FC",
" X c #E000E4",
".X c #C800CC",
"XX c #B400B4",
"oX c #9C009C",
"OX c #840084",
"+X c #6C0070",
"@X c #580058",
"#X c #400040",
"$X c #FCE8DC",
"%X c #FCE0D0",
"&X c #FCD8C4",
"*X c #FCD4BC",
"=X c #FCCCB0",
"-X c #FCC4A4",
";X c #FCBC9C",
":X c #FCB890",
">X c #FCB080",
",X c #FCA470",
"<X c #FC9C60",
"1X c #F0945C",
"2X c #E88C58",
"3X c #DC8854",
"4X c #D08050",
"5X c #C87C4C",
"6X c #BC7848",
"7X c #B47044",
"8X c #A86840",
"9X c #A0643C",
"0X c #9C6038",
"qX c #905C34",
"wX c #885830",
"eX c #80502C",
"rX c #744C28",
"tX c #6C4824",
"yX c #5C4020",
"uX c #543C1C",
"iX c #483818",
"pX c #403018",
"aX c #382C14",
"sX c #28200C",
"dX c #600064",
"fX c #006464",
"gX c #006060",
"hX c #00001C",
"jX c #00002C",
"kX c #302410",
"lX c #480048",
"zX c #500050",
"xX c #000034",
"cX c gray11",
"vX c #4C4C4C",
"bX c gray36",
"nX c gray25",
"mX c gray19",
"MX c #343434",
"NX c #D8F4F4",
"BX c #B8E8E8",
"VX c #9CDCDC",
"CX c #74C8C8",
"ZX c #48C0C0",
"AX c #20B4B4",
"SX c #20B0B0",
"DX c #00A4A4",
"FX c #009898",
"GX c #008C8C",
"HX c #008484",
"JX c #007C7C",
"KX c #007878",
"LX c #007474",
"PX c #007070",
"IX c #006C6C",
"UX c #980088",
/* pixels */
"# 2 2 1 1 1 1 1 1 1 2 2 2 1 1 2 2 2 2 1 2 1 1 1 2 2 2 2 2 2 2 2 2 2 1 1 1 1 2 2 2 2 2 2 2 2 2 2 2 2 1 1 1 1 1 1 1 2 1 1 1 2 2 # ",
"$ bX7 7 7 7 7 7 7 7 7 8 7 7 7 6 7 7 7 6 7 8 8 7 7 7 7 6 6 6 6 6 6 6 5 5 7 7 6 7 7 7 7 7 bX8 $ vX$ $ bXbXbX7 8 7 7 7 8 6 6 7 $ 0 ",
"8 8 bX$ vXvX$ $ ! ~ w Q t t t t t y y u u i i i i u y < q < 1 2 2 # # mX2 p u u y y y t t t t t y u u i Q w ! ~ $ 8 7 7 7 bXbX$ ",
"6 7 8 bXbXbX$ vXW W ! E i i i i p p a a O s s s s a p 2   2 # 4 4 4 4   4 O O a a p p p p i p p p a O s E ! W W 0 7 6 7 5 7 7 7 ",
"7 7 6 7 7 7 7 8 U E 6 Y a a a a a O s s d d d d d d s #   # 4 4 5 5 5   5 d d s s O O O a a a O O s d d Y q U E q 7 6 6 5 6 6 7 ",
"7 7 7 7 8 8 8 7 $ nXmXmXr t y y u u i p a O O a i y r : 8 > y i a O 5   7 d f d O p u t r r r r y i p a e L.mXmXnX8 7 7 7 6 6 6 ",
"7 7 6 6 6 8 8 7 8 8 $ bXr t y y u u i p a O O a i y r : 8 > y i a O 5   7 d f d O p u t r r r r y i p a L.nX$ $ vX7 7 7 7 8 7 7 ",
"nXq q q nXnXq MXMXq MXMXr t y y u u i p a O O a i y r : 8 > y i a O 5   7 d f d O p u t r r r r y i p a cXw L.MXq mXMXq q MXq nX",
"                        r t y y u u i p a O O a i y r : 8 > y i a O 5   7 d f d O p u t r r r r y i p a                         ",
"yXrXrXyXyXuXtXrXrXeXqX  r t y y u u i p a O O a i y r : 8 > y i a O 5   7 d f d O p u t r r r r y i p a kXiXtXtXyXyXyXrXwXeXwX  ",
"uXrXrXtXtXyXyXrXeXeXqX  r t y y u u i p a O O a i y r : 8 > y i a O 5   7 d f d O p u t r r r r y i p a sXiXtXtXyXyXtXeXeXeXwX  ",
"uXtXrXtXwXtXtXrXrXeX0X  r t y y u u i p a O O a i y r : 8 > y i a O 5   7 d f d O p u t r r r r y i p a kXiXtXtXtXtXtXrXeXrXwX  ",
"iXrXtXrXeXtXtXeXrXeX0X  r t y y u u i p a O O a i y r : 8 > y i a O 5   7 d f d O p u t r r r r y i p a kXiXtXrXtXrXtXrXeXrXwX  ",
"uXrXtXeXeXtXrXeXrXeX0X  r t y y u u i p a O O a i y r : 8 > y i a O 5   7 d f d O p u t r r r r y i p a kXyXrXeXrXrXtXeXeXrXwX  ",
"iXtXrXrXrXyXtXeXrXrXqX  r t y y u u i p a O O a i y r : 8 > y i a O 5   7 d f d O p u t r r r r y i p a kXyXtXeXeXtXtXeXeXeXwX  ",
"uXrXrXrXtXtXtXeXeXrXqX  r t y y u u i p a O O a i y r : 8 > y i a O 5   7 d f d O p u t r r r r y i p a kXyXrXeXrXrXtXeXeXeXwX  ",
"yXrXtXeXrXtXrXeXeXeXqX  r t y y u u i p a O O a i y r : 8 > 4 # 4 $ 5   7 d f d O p u t r r r r y i p a kXuXtXeXrXtXtXeXrXtXwX  ",
"yXrXrXeXrXyXrXrXeXeXqX  r t y y u u i p a O O a i 4 < 1 8 > > > , < 4   6 6 vXd O p u t r r r r y i p a kXuXtXeXeXtXrXqXeXeXwX  ",
"uXtXyXrXtXyXtXeXqXeXqX  r t y y u u i p a O O a 2 6 vX$ 6 : > > , < 4       $ 6 vXp u t r r r r y i p a kXuXtXrXrXtXrXeXeXwXwX  ",
"uXtXtXrXtXtXtXeXwXeXqX  r t y y u u i p a O O 4 vXq # < 6 8 $ vXmXe e   $ 7     7 7 u t r r r r y i p a kXuXtXrXrXyXtXeXeXeXwX  ",
"yXtXrXrXrXrXrXeXeXeXwX  r t y y u u i p a O 5 q q , 7 $ 4 : > > , < 2 7     8 $   6 7 t r r r r y i p a kXyXrXrXtXyXtXwXwXeXwX  ",
"yXyXrXrXrXtXrXrXeXtXrX  r t y y u u i p a 7 $ e 2 $ vX: 5 $ q vX, < 2 # 4 $   vX$   2 t r r r r y i p a kXuXtXtXtXtXeXeXeXtXqX  ",
"uXyXeXrXeXtXrXeXeXrXeX  r t y y u u i p a 6   2 $ $ : 5 $ vXq vX8 < 2 # 4 5 6   vXvX  4 r r r r y i p a kXiXtXeXtXtXrXeXeXtXeX  ",
"uXyXeXeXrXtXrXrXeXrXqX  r t y y u u i p 5 e 7 $ $ , 5 $ $ vXq $ , < 2 mX  mX6 7   $   2 r r r r y i p a kXiXtXrXrXyXtXeXeXrXeX  ",
"uXtXrXeXtXtXeXrXeXeXqX  r t y y u u i p 7   4 e 1 1 $ $ $ vXvX1 , < q       mX7 7   $ vXr r r r y i p a kXiXtXtXtXyXtXqXqXrXeX  ",
"uXtXtXeXeXrXwXeXrXrXqX  : : , , 1 # 5 5 vXvXq 7 1 # $ $ $ vX8 1 , q e         mX6 q $   > > > , 1 # 5 7 kXiXtXtXtXyXtXeXeXeXeX  ",
"yXtXtXrXrXtXrXrXrXrXqX  6 8 vXvXq mXe     7   2 1 , 6 $ $ vXq $ $ e e           mX7 mX  vX8 8 $ q e     kXiXtXtXtXyXtXwXeXrXwX  ",
"yXyXrXrXrXrXeXrXrXrXwX  : : , , 1 # 5 5 6 7   1 1 , : 6 $ vXq q mXe e   mX        6   2 > > > , 1 # 5 7 sXiXtXtXyXtXyXeXeXrXqX  ",
"uXyXeXeXrXeXeXrXrXrXwX  r t y y u u i $ 6 7   # q 1 : : 5 vXq q mXe e 8 4 mX    7 6   2 5 r r r y i p a kXiXtXtXyXtXyXeXeXtXwX  ",
"yXyXrXeXtXeXeXeXrXeXqX  r t y y u u i 8 6 7   7 mXq < : < vXq q mXe mX8 4 5 mX$ 6 6   2 5 r r r y i p a sXuXtXtXyXtXyXeXeXtXqX  ",
"uXtXrXwXtXeXeXeXrXrX9X  r t y y u u i vX6 7   $ mXq vX5 $ vXq q mXe e   8 5 6 7 6 6   2 5 r r r y i p a kXuXyXyXyXyXyXeXeXtXwX  ",
"yXtXtXwXtXeXrXrXtXtXqX  : : , , 1 # 5 5 6 7   6 mXq vX$ $ vXq q mXe e     8 6 7 6 6   1 > > > , 1 # 5 7 sXuXyXyXuXuXyXrXrXtXwX  ",
"yXtXrXeXrXrXrXrXtXrXqX  6 8 vXvXq mXe     8 e 4 $ q vX$ $ vXq > , e e       8 7 6 vXvX  vX8 8 $ q e     kXuXyXyXyXyXrXeXeXrXwX  ",
"uXtXrXwXrXrXrXrXrXrXwX  : : , , 1 # 5 5 8 e 8 vX1 6 vX$ $ vX1 > , < e         7 6   7   > > > , 1 # 5 7 kXiXyXyXyXyXrXeXrXrXwX  ",
"uXrXeXeXtXrXeXtXeXrXeX  r t y y u u i p 5   4 mX4 , 5 $ vX, > > , 8 mX      q 7 q mXq 6 r r r r y i p a kXiXyXyXyXyXtXrXeXrXqX  ",
"uXrXeXrXtXtXrXtXrXrXwX  r t y y u u i p $ $ q 4 mX, : : : : > > 8 mXe       6 $   7   2 r r r r y i p a sXiXtXtXyXyXtXrXeXrXwX  ",
"uXrXrXtXeXtXtXtXrXeXqX  r t y y u u i p a 6   7 4 mX< : : : > > 2 e e     6 q   7   $ 6 r r r r y i p a kXiXtXtXrXtXtXrXrXrXqX  ",
"uXtXrXtXrXrXtXtXrXeXwX  r t y y u u i p a $ 5   7 4 vX4 : : > > , # e   $     7   mX2 t r r r r y i p a sXuXtXtXrXtXtXrXrXrXqX  ",
"iXyXrXtXyXtXtXtXtXrXqX  r t y y u u i p a O 8 5 mX7 : 7 8 7 5 4 4 8 q e   vX8   mX# u t r r r r y i p a kXuXrXtXtXtXtXrXrXrXwX  ",
"uXyXtXtXyXtXtXtXyXtXqX  r t y y u u i p a O O 7 # mXvX# , 1 5 6 6 5 # # 7     $ 4 p u t r r r r y i p a kXuXtXtXtXtXyXrXrXtXwX  ",
"iXuXyXtXyXyXtXtXyXtXwX  r t y y u u i p a O O a 7 , 6 $ 8 : > > < 2 2 e   $ 6 8 O p u t r r r r y i p a sXiXyXtXtXtXtXeXrXtXqX  ",
"iXuXyXrXtXyXtXtXtXtXqX  r t y y u u i p a O O a i y 4 > 8 > , > < 2 2 e 6 vXf d O p u t r r r r y i p a kXiXyXrXtXtXyXtXtXtXqX  ",
"pXuXyXrXtXyXtXyXtXrXqX  r t y y u u i p a O O a i y r : 8 > t u p O 2 e 6 d f d O p u t r r r r y i p a kXiXtXrXtXyXyXrXrXtXwX  ",
"pXuXtXrXtXuXyXtXrXrXqX  r t y y u u i p a O O a i y r : 8 > t u p O 2 e 6 d f d O p u t r r r r y i p a sXiXtXtXyXyXyXrXrXtXwX  ",
"uXuXtXeXyXyXyXyXrXtXwX  r t y y u u i p a O O a i y r : 8 > t u p O 2 e 6 d f d O p u t r r r r y i p a sXiXtXtXyXyXuXeXrXtXqX  ",
"iXyXyXtXyXyXyXyXrXtXqX  r t y y u u i p a O O a i y r : 8 : t u p O 2 e 6 d f d O p u t r r r r y i p a kXiXtXtXyXyXyXrXtXtXwX  ",
"iXtXyXyXyXyXyXrXeXtXwX  r t y y u u i p a O O a i y r : 8 : t u p O 2 e 6 d f d O p u t r r r r y i p a kXuXyXyXyXyXtXrXtXtXwX  ",
"iXrXyXyXyXyXyXrXeXrXwX  r t y y u u i p a O O a i y r : $ : t u p O 2 e 6 d f d O p u t r r r r y i p a kXuXyXyXtXtXrXrXtXyXwX  ",
"iXtXyXuXyXuXtXrXrXtXeX  r t y y u u i p a O O a i y r : $ : t u p O 2 e 6 d f d O p u t r r r r y i p a sXuXyXtXtXtXtXyXtXtXwX  ",
"uXtXyXyXyXuXtXrXtXyXrX  r t y y u u i p a O O a i y r : $ : t u p O 2 e 6 d f d O p u t r r r r y i p a kXuXtXrXtXtXtXtXtXrXqX  ",
"uXtXyXyXyXuXtXrXtXyXwX  r t y y u u i p a O O a i y r : $ : t u p O 2 e 6 d f d O p u t r r r r y i p a kXyXtXrXtXtXtXtXtXrXwX  ",
"iXtXyXrXuXiXtXeXrXyXwX  r t y y u u i p a O O a i y r : $ : t u p O 2 e 6 d f d O p u t r r r r y i p a kXuXtXtXyXyXyXrXrXrXeX  ",
"iXyXrXeXuXiXtXrXrXyXeX  r t y y u u i p a O O a i y r : vX: t u p O 2 e 6 d f d O p u t r r r r y i p a kXuXyXtXyXtXtXeXrXtXeX  ",
"uXtXtXrXyXyXrXeXyXtXeX  r t y y u u i p a O O a i y r : vX: t u p O 2 e 6 d f d O p u t r r r r y i p a kXiXyXtXyXtXtXeXtXrXwX  ",
"uXtXtXtXyXuXtXeXtXtXwX  r t y y u u i p a O O a i y r : vX: t u p O 2 e 6 d f d O p u t r r r r y i p a kXuXyXtXyXtXtXrXrXrXwX  ",
"                        r t y y u u i p a O O a i y r : vX: t u p O 2 e 6 d f d O p u t r r r r y i p a                         ",
"# 2 2 1 1 1 1 1 1 1 2 2 r t y y u u i p a O O a i y r : vX: t u p O 2 e 6 d f d O p u t r r r r y i p a $ 4 1 1 1 2 1 1 1 2 2 # ",
"$ bX7 7 7 7 7 7 7 7 7 8 r t y y u u i p a O O a i y r : vX: t u p O 2 e 6 f f d O p u t r r r r y i p a w bX8 7 7 7 8 6 6 6 $ 0 ",
"8 8 bX$ $ vXbX$ 7 bX8 7 r t y y u u i p a O O a i y r : vX: t u p O 2 e 6 f f d O p u t r r r r y i p a mXvX8 8 8 bX7 7 7 bXbX$ ",
"7 7 $ $ bX$ $ 0 U E 6 Y t t t t y u u i i i i i u y t < q 1 2 # # # 2 mX2 p u y y y t t t t y y u i i i Y q U E 7 6 6 7 5 7 7 7 ",
"7 7 6 7 7 7 7 8 W W ! E i i i p p a a O s s s O a p p 2   # 4 4 4 4 4   4 a a p p p p p i p p p a O s s E ! W W 0 6 6 6 5 6 6 7 ",
"7 8 7 7 8 8 8 7 ! ~ w Q a a a O O s d d d d d d s O a #   4 5 5 5 5 5   4 d s s O O a a a a O s s d d d Q w ! ~ mXbX7 6 6 6 6 6 ",
"7 7 6 7 7 8 8 7 $ nXw mXmXmXL.L.L.L.mXw w w w q q mXq q q q q mXmXw L.mXmXmXmXq q q q nXq mXmXmXq w mXw w L.mXw MX8 7 8 7 8 7 7 ",
"q q q q nXnXq MXmXmXw w L.w L.L.e w w w L.w L.w w w L.L.L.L.w w MXMXMXMXMXw w w w w w w w w w w w w w w L.w e w w w MXq q q q nX"
};
