/* XPM */
static char *wall01[] = {
/* columns rows colors chars-per-pixel */
"64 64 256 2 ",
"   c black",
".  c #0000A8",
"X  c #00A800",
"o  c #00A8A8",
"O  c #A80000",
"+  c #A800A8",
"@  c #A85400",
"#  c gray66",
"$  c gray33",
"%  c #5454FC",
"&  c #54FC54",
"*  c #54FCFC",
"=  c #FC5454",
"-  c #FC54FC",
";  c #FCFC54",
":  c gray99",
">  c #ECECEC",
",  c gainsboro",
"<  c #D0D0D0",
"1  c #C0C0C0",
"2  c #B4B4B4",
"3  c gray66",
"4  c #989898",
"5  c gray55",
"6  c #7C7C7C",
"7  c gray44",
"8  c #646464",
"9  c gray33",
"0  c #484848",
"q  c gray22",
"w  c #2C2C2C",
"e  c #202020",
"r  c #FC0000",
"t  c #EC0000",
"y  c #E00000",
"u  c #D40000",
"i  c #C80000",
"p  c #BC0000",
"a  c #B00000",
"s  c #A40000",
"d  c #980000",
"f  c #880000",
"g  c #7C0000",
"h  c #700000",
"j  c #640000",
"k  c #580000",
"l  c #4C0000",
"z  c #400000",
"x  c #FCD8D8",
"c  c #FCB8B8",
"v  c #FC9C9C",
"b  c #FC7C7C",
"n  c #FC5C5C",
"m  c #FC4040",
"M  c #FC2020",
"N  c #FC0000",
"B  c #FCA85C",
"V  c #FC9840",
"C  c #FC8820",
"Z  c #FC7800",
"A  c #E46C00",
"S  c #CC6000",
"D  c #B45400",
"F  c #9C4C00",
"G  c #FCFCD8",
"H  c #FCFCB8",
"J  c #FCFC9C",
"K  c #FCFC7C",
"L  c #FCF85C",
"P  c #FCF440",
"I  c #FCF420",
"U  c #FCF400",
"Y  c #E4D800",
"T  c #CCC400",
"R  c #B4AC00",
"E  c #9C9C00",
"W  c #848400",
"Q  c #706C00",
"!  c #585400",
"~  c #404000",
"^  c #D0FC5C",
"/  c #C4FC40",
"(  c #B4FC20",
")  c #A0FC00",
"_  c #90E400",
"`  c #80CC00",
"'  c #74B400",
"]  c #609C00",
"[  c #D8FCD8",
"{  c #BCFCB8",
"}  c #9CFC9C",
"|  c #80FC7C",
" . c #60FC5C",
".. c #40FC40",
"X. c #20FC20",
"o. c #00FC00",
"O. c #00FC00",
"+. c #00EC00",
"@. c #00E000",
"#. c #00D400",
"$. c #04C800",
"%. c #04BC00",
"&. c #04B000",
"*. c #04A400",
"=. c #049800",
"-. c #048800",
";. c #047C00",
":. c #047000",
">. c #046400",
",. c #045800",
"<. c #044C00",
"1. c #044000",
"2. c #D8FCFC",
"3. c #B8FCFC",
"4. c #9CFCFC",
"5. c #7CFCF8",
"6. c #5CFCFC",
"7. c #40FCFC",
"8. c #20FCFC",
"9. c #00FCFC",
"0. c #00E4E4",
"q. c #00CCCC",
"w. c #00B4B4",
"e. c #009C9C",
"r. c #008484",
"t. c #007070",
"y. c #005858",
"u. c #004040",
"i. c #5CBCFC",
"p. c #40B0FC",
"a. c #20A8FC",
"s. c #009CFC",
"d. c #008CE4",
"f. c #007CCC",
"g. c #006CB4",
"h. c #005C9C",
"j. c #D8D8FC",
"k. c #B8BCFC",
"l. c #9C9CFC",
"z. c #7C80FC",
"x. c #5C60FC",
"c. c #4040FC",
"v. c #2024FC",
"b. c #0004FC",
"n. c #0000FC",
"m. c #0000EC",
"M. c #0000E0",
"N. c #0000D4",
"B. c #0000C8",
"V. c #0000BC",
"C. c #0000B0",
"Z. c #0000A4",
"A. c #000098",
"S. c #000088",
"D. c #00007C",
"F. c #000070",
"G. c #000064",
"H. c #000058",
"J. c #00004C",
"K. c #000040",
"L. c #282828",
"P. c #FCE034",
"I. c #FCD424",
"U. c #FCCC18",
"Y. c #FCC008",
"T. c #FCB400",
"R. c #003800",
"E. c #002800",
"W. c #9800E4",
"Q. c #8000CC",
"!. c #7400B4",
"~. c #60009C",
"^. c #500084",
"/. c #440070",
"(. c #340058",
"). c #280040",
"_. c #FCD8FC",
"`. c #FCB8FC",
"'. c #FC9CFC",
"]. c #FC7CFC",
"[. c #FC5CFC",
"{. c #FC40FC",
"}. c #FC20FC",
"|. c #FC00FC",
" X c #E000E4",
".X c #C800CC",
"XX c #B400B4",
"oX c #9C009C",
"OX c #840084",
"+X c #6C0070",
"@X c #580058",
"#X c #400040",
"$X c #FCE8DC",
"%X c #FCE0D0",
"&X c #FCD8C4",
"*X c #FCD4BC",
"=X c #FCCCB0",
"-X c #FCC4A4",
";X c #FCBC9C",
":X c #FCB890",
">X c #FCB080",
",X c #FCA470",
"<X c #FC9C60",
"1X c #F0945C",
"2X c #E88C58",
"3X c #DC8854",
"4X c #D08050",
"5X c #C87C4C",
"6X c #BC7848",
"7X c #B47044",
"8X c #A86840",
"9X c #A0643C",
"0X c #9C6038",
"qX c #905C34",
"wX c #885830",
"eX c #80502C",
"rX c #744C28",
"tX c #6C4824",
"yX c #5C4020",
"uX c #543C1C",
"iX c #483818",
"pX c #403018",
"aX c #382C14",
"sX c #28200C",
"dX c #600064",
"fX c #006464",
"gX c #006060",
"hX c #00001C",
"jX c #00002C",
"kX c #302410",
"lX c #480048",
"zX c #500050",
"xX c #000034",
"cX c gray11",
"vX c #4C4C4C",
"bX c gray36",
"nX c gray25",
"mX c gray19",
"MX c #343434",
"NX c #D8F4F4",
"BX c #B8E8E8",
"VX c #9CDCDC",
"CX c #74C8C8",
"ZX c #48C0C0",
"AX c #20B4B4",
"SX c #20B0B0",
"DX c #00A4A4",
"FX c #009898",
"GX c #008C8C",
"HX c #008484",
"JX c #007C7C",
"KX c #007878",
"LX c #007474",
"PX c #007070",
"IX c #006C6C",
"UX c #980088",
/* pixels */
"kXkXkXkXkXkXkXkXkXkXkXkXkXkXkXkXkXkXkXkXaXaXkXkXkXkXaXaXaXaXaXaXaXaXpXpXaXaXpXpXpXpXpXpXpXpXpXaXkXkXkXkXkXkXkXkXkXaXaXaXaXpXpXpX",
"kXsXsXsXsXsXsXsXsXsXsXsXsXsXsXsXsXsXsXsXsXsXsXsXsXsXsXsXsXsXsXsXsXsXsXsXsXsXsXsXsXsXsXsXsXsXsXsXsXsXsXsXsXsXsXsXsXsXsXsXsXsXsXkX",
"aXsXsXsXsX  sXsXsXsXsXsXsXsXsXsXsXsX    sXsXsXsXsXsX  sXsXsXsXsXsXcXsXsXcX  cXsXsXsXsXsXsXsXsXsXsXsX    sX  sXsX        sXsXsXcX",
"uXyXyXiXpXsXuXuXyXyXyXyXpXuXuXyXuXuXsXpXpXuXuXuXpXpXsXuXuXpXuXyXuXpXuXyXiXsXiXyXuXuXiXiXyXyXiXiXyXuXkXkXiXpXiXiXpXpXsXiXyXuXuXaX",
"yXrXeXtXtXkXyXrXrXeXqXeXrXrXeXqXrXeXaXiXtXyXyXtXyXyXkXrXeXtXtXrXyXyXeXqXtXaXtXrXeXtXtXrXrXeXyXtXeXtXpXpXtXuXtXyXyXyXpXyXeXeXtXuX",
"uXrXtXrXeXaXtXrXeXeXeXrXeXrXeXeXeXrXkXiXyXyXtXtXtXyXkXeXeXtXeXrXtXyXrXrXtXkXtXeXrXtXrXrXtXeXyXyXeXrXpXiXtXyXyXtXtXtXaXyXeXrXrXuX",
"uXrXtXrXtXkXtXrXrXeXqXeXrXrXeXeXrXqXkXuXyXyXtXtXtXtXkXrXqXeXeXtXyXyXrXeXtXkXyXeXtXtXrXrXyXrXtXrXeXrXpXiXrXyXtXtXtXrXpXyXeXeXrXuX",
"uXrXtXeXrXkXtXrXeXeXeXeXrXrXrXrXeXeXkXuXtXyXtXtXtXyXkXrXeXeXtXeXtXyXrXeXrXaXtXeXtXtXeXrXyXtXtXrXeXrXuXuXrXtXtXrXrXrXaXyXeXrXrXyX",
"uXrXtXeXtXkXrXeXtXeXeXeXeXrXeXqXrXrXkXuXyXyXtXtXtXyXaXtXqXtXyXeXrXyXrXeXrXaXtXeXrXrXeXeXtXtXyXrXeXrXuXpXrXrXrXeXeXtXaXtXeXrXtXuX",
"uXtXrXrXyXaXtXeXtXtXqXeXtXtXeXeXtXrXkXuXtXyXtXtXtXuXkXtXwXeXtXeXrXtXrXeXtXaXtXrXeXrXeXeXrXeXtXrXqXrXuXiXrXrXtXeXrXrXaXyXeXeXtXuX",
"yXrXrXrXyXkXtXeXeXeXeXeXtXrXrXeXeXeXkXuXtXyXtXrXrXyXkXeXwXrXtXeXeXtXrXeXtXkXtXtXeXeXeXrXeXeXeXrXwXrXuXiXeXrXtXeXrXtXaXyXeXeXrXuX",
"yXrXtXrXyXaXtXeXeXrXeXeXrXeXrXrXeXrXpXuXtXtXyXeXrXtXaXtXeXtXrXrXeXyXrXwXrXkXtXrXeXtXrXtXeXeXeXqXeXeXuXpXrXrXrXeXrXrXpXtXeXrXtXyX",
"tXrXtXeXtXkXrXrXeXeXeXwXeXeXrXrXrXrXpXuXrXyXtXrXtXtXkXtXeXtXtXeXeXtXrXrXrXkXtXrXwXtXtXtXtXrXeXqXeXeXuXpXeXtXtXeXeXtXaXtXrXrXtXyX",
"yXeXrXeXyXaXtXeXeXeXeXeXeXeXrXqXeXtXpXpXeXtXyXeXtXyXpXtXrXtXeXeXeXtXrXrXrXkXyXrXeXrXyXtXyXtXrXtXeXeXuXpXeXtXtXrXeXtXaXrXqXeXeXuX",
"uXrXtXrXyXkXtXeXqXqXrXeXeXeXeXeXqXtXpXpXrXtXtXrXtXtXkXrXqXrXeXeXeXtXrXeXrXkXtXeXwXrXtXtXtXtXtXtXeXeXyXpXeXtXtXrXrXtXpXtXeXeXrXuX",
"yXtXyXrXyXkXtXrXeXeXeXwXeXqXrXeXrXeXpXuXrXtXtXrXrXyXkXtXqXeXrXeXeXtXrXeXtXkXyXeXeXeXeXeXeXtXtXyXrXrXyXpXeXtXtXrXrXtXaXyXeXeXrXyX",
"yXtXtXeXtXkXtXeXqXeXeXeXwXtXyXyXrXrXpXpXeXtXtXrXeXyXaXtXrXeXtXeXrXtXyXrXyXaXyXeXwXeXqXeXeXeXtXrXqXrXyXpXtXtXtXrXrXyXaXtXeXeXtXiX",
"tXtXtXrXrXkXtXeXeXeXtXrXrXtXyXtXeXrXpXuXrXtXrXrXrXtXkXtXqXeXrXtXrXtXtXrXyXaXyXeXqXeXrXwXeXeXrXeXeXrXpXpXrXrXrXrXtXyXpXtXqXeXeXyX",
"yXtXtXrXtXkXtXeXeXtXyXyXyXtXrXrXqXeXaXuXrXtXtXrXrXtXaXeXwXeXeXeXrXrXtXeXtXaXyXrXqXeXeXwXeXeXeXeXeXrXiXiXrXtXtXtXtXtXpXyXeXtXrXuX",
"yXyXeXrXrXkXrXrXeXtXtXtXtXeXeXrXeXeXpXiXeXtXtXeXeXrXaXtXrXrXrXrXrXtXtXeXtXaXtXrXeXeXeXeXrXeXtXqXrXeXiXuXrXyXtXrXtXtXpXtXeXtXrXuX",
"yXtXeXeXrXkXrXeXeXrXtXtXrXeXeXeXeXeXaXuXeXtXtXeXrXrXkXrXqXrXeXeXrXtXtXrXtXaXrXeXeXeXeXeXrXrXeXrXrXeXpXuXtXyXtXeXrXyXpXuXeXtXyXuX",
"yXyXrXeXtXkXrXrXeXeXrXrXeXeXrXrXqXeXaXiXrXeXrXrXrXtXkXtXeXrXrXeXeXrXtXrXyXpXtXeXrXrXeXeXtXtXeXrXrXrXpXiXtXyXtXrXrXyXaXtXwXrXtXuX",
"uXtXrXeXtXkXrXtXeXeXeXeXeXrXtXrXwXrXaXuXeXeXtXeXrXtXaXyXeXrXrXrXtXtXrXeXyXaXtXeXtXrXrXqXtXrXeXqXrXrXpXuXtXyXtXtXtXyXpXrXqXrXtXuX",
"yXrXtXeXrXkXwXeXrXrXeXeXtXtXyXtXeXtXaXuXrXtXtXeXrXtXkXtXeXrXrXrXeXrXtXeXrXaXtXeXtXeXeXeXtXrXeXeXrXrXpXiXtXyXtXtXtXyXaXtXeXeXtXuX",
"yXrXtXeXrXkXeXeXtXtXeXrXyXrXyXrXeXtXaXyXeXrXtXrXrXtXaXtXeXeXtXtXeXtXtXeXrXaXtXrXrXeXqXeXtXtXeXeXrXqXpXuXtXyXtXtXtXyXaXtXeXeXtXuX",
"tXtXtXrXrXkXtXrXrXrXrXrXyXrXtXtXeXrXaXyXrXtXtXtXtXrXkXtXeXeXtXrXtXtXtXrXrXkXtXrXeXeXwXeXrXtXrXqXrXeXaXuXyXyXtXtXyXtXkXtXeXrXeXyX",
"yXyXrXrXtXkXrXrXrXrXtXeXtXeXyXtXeXtXkXuXtXuXyXtXtXtXaXtXeXeXtXrXtXtXtXrXeXpXyXrXeXeXqXeXrXrXeXeXrXrXaXpXtXyXyXtXyXtXaXtXeXtXeXyX",
"uXtXeXeXtXkXrXrXrXrXtXrXrXrXtXtXeXtXkXpXtXuXtXyXyXyXaXtXeXeXeXeXrXtXtXtXeXaXyXrXeXeXeXeXrXrXeXrXeXeXpXuXtXyXtXtXtXtXkXyXeXrXrXuX",
"yXyXrXwXtXkXeXrXrXrXrXtXrXeXtXtXeXyXaXuXrXuXtXtXyXuXkXtXeXrXeXrXtXtXtXyXyXkXyXtXeXrXeXeXtXtXrXqXrXrXpXuXtXyXtXyXyXyXkXtXrXtXtXyX",
"yXtXrXeXyXkXrXeXrXeXeXeXeXeXtXrXeXyXaXuXrXyXyXtXyXyXaXtXeXtXeXrXtXtXrXtXuXkXyXrXeXrXrXrXtXtXtXtXrXeXpXiXyXtXtXrXtXtXaXtXeXrXeXyX",
"uXrXrXqXyXkXrXeXrXrXeXrXrXtXyXeXeXtXkXuXtXyXtXrXtXtXaXyXeXtXeXtXtXtXrXtXyXaXyXeXeXqXrXtXtXeXtXtXrXtXpXuXrXyXyXyXyXyXkXtXeXtXtXuX",
"yXrXtXqXyXaXrXrXtXtXwXrXyXyXtXeXeXrXkXyXrXeXtXrXyXyXaXyXrXeXrXrXrXyXrXtXuXkXtXeXeXrXrXrXrXrXuXyXtXtXpXuXyXtXyXyXuXyXkXyXeXtXrXyX",
"yXtXrXeXtXkXrXrXyXrXrXtXyXrXtXtXeXeXkXtXtXtXtXrXyXtXaXuXeXeXrXeXrXtXrXtXuXkXtXtXeXrXtXeXrXtXuXuXtXtXaXuXyXtXyXyXuXuXpXyXeXtXrXuX",
"yXtXrXeXtXkXrXrXtXrXrXrXtXrXtXtXeXrXkXyXtXtXyXrXtXtXaXuXrXrXrXtXtXtXtXtXyXkXtXeXtXrXrXrXqXyXuXyXrXtXaXyXtXtXyXyXyXyXpXyXeXrXrXuX",
"yXrXrXwXtXkXtXtXrXrXtXrXrXrXtXyXrXrXkXuXyXyXyXtXyXtXpXyXrXtXrXtXtXtXtXrXyXkXtXeXyXyXtXrXrXtXuXyXrXtXiXuXtXyXuXyXyXtXpXyXeXrXrXuX",
"yXrXeXwXtXkXrXrXeXrXtXtXtXrXtXyXtXtXkXuXtXyXyXyXtXtXaXtXeXtXtXrXyXyXyXeXyXkXyXeXyXyXyXtXrXtXyXtXrXyXaXyXtXyXyXyXuXyXpXyXeXrXeXyX",
"yXrXrXrXyXkXrXrXrXeXtXyXtXrXtXyXtXyXkXyXeXyXtXyXtXtXpXtXrXyXyXtXtXyXrXeXuXkXtXeXrXyXtXtXrXtXtXeXrXrXaXyXtXyXtXyXyXyXaXyXeXrXeXyX",
"uXrXeXrXtXkXrXtXrXrXrXyXrXtXtXtXrXyXkXyXtXrXtXtXyXyXaXtXrXtXtXtXtXyXtXrXuXkXyXeXtXuXtXyXtXyXtXtXrXyXaXuXtXyXtXtXyXtXpXyXeXrXrXuX",
"uXrXrXtXtXkXtXrXrXeXrXyXrXtXtXtXrXyXkXyXtXtXtXrXyXtXaXyXtXtXtXyXrXyXyXtXuXkXtXeXrXyXtXtXrXyXyXeXeXtXaXuXtXyXtXtXrXtXaXyXrXrXeXuX",
"kXkXkXkXkXkXkXkXkXkXkXkXkXkXkXkXkXkXkXkXaXaXkXkXkXkXaXaXaXaXaXaXaXaXpXpXaXaXpXpXpXpXpXpXpXpXpXaXkXkXkXkXkXkXkXkXkXaXaXaXaXpXpXpX",
"kXsXsXsXsXsXsXsXsXsXsXsXsXsXsXsXsXsXsXsXsXsXsXsXsXsXsXsXsXsXsXsXsXsXsXsXsXsXsXsXsXsXsXsXsXsXsXsXsXsXsXsXsXsXsXsXsXsXsXsXsXsXsXkX",
"                                                                                                                                ",
"  cXcXcXcXcXcXcXcXcXcX    cXcXe L.e cXcXe e e cXcXcXcX    cX      cXcXcXcXcX                                          cXcXcXcXcX",
"mXw w L.w w L.cXcXL.q cX  e mX0 0 mXw w mXMXq q q nXw cXcXq   w e e e L.q nXq L.L.L.L.L.mXq q q mXL.cXcXcXcXe L.e e w q q mXw w ",
"0 0 vX0 0 $ $ nXw 0 8 e   mXnXvXbXnXq q MXq 0 $ $ $ $ q cXcX  vX$ vXw MX$ 8 8 $ 0 0 $ $ bXbX$ bXbXbXvXe cXe $ 7 $ $ bX8 7 8 bX$ ",
"bX$ nXq nXnXvX0 vX8 bXcXcX0 q MXvXnXq nX0 0 0 $ $ 0 bXnX      nXbXbX$ $ 8 8 7 8 bXvX$ $ bX8 8 8 8 7 bXq e q 7 6 6 7 8 7 6 7 7 7 ",
"8 bX$ 0 nX0 nXq 0 8 7 cXcXw w mXMXMXnX0 $ bXvX0 bXvX$ MXcX    q nX$ bX8 $ 8 8 nX7 8 0 8 bXvX8 bX8 $ 8 q L.w bX6 6 6 bX6 6 8 bX8 ",
"bXbXbXvXnX0 nX0 0 8 6 cX  mXmXmXnX0 q MXnXnXq 0 7 7 8 q       q nXMX0 vX0 vX$ nX7 7 $ 6 6 bXvX0 $ $ bXnXq L.8 5 6 6 0 q nXvX$ $ ",
"bX$ vX$ 8 bXbX$ vX8 5 L.cXnX0 nXnXq mXMXnX0 vX8 7 6 7 0       w bXq bX7 8 $ q nX7 7 7 6 6 6 7 bXvXbXbX0 MXw 8 6 8 6 bXvX0 $ 8 $ ",
"vX0 0 bX7 7 8 8 8 6 6 w   mX$ 8 bX$ $ vX$ $ bX8 bX$ 8 vXcX    L.8 bX8 5 7 nXe q bX$ 7 6 6 8 8 bXnX$ 7 $ e e bX8 0 8 7 5 6 6 6 bX",
"0 vX8 7 7 6 8 8 7 6 6 mX  w 0 bX8 8 bX$ $ bX$ $ nX$ bX$ mX    w $ $ 8 6 bX0 nXnXnXnX8 7 bX$ $ vXnX0 8 $ e   nXbX0 8 8 6 7 7 8 $ ",
"8 7 6 7 bX8 bXbXbX7 6 L.  q nX0 $ 8 0 q 0 bXbX$ vX8 7 vXw     0 $ nX$ 8 8 7 8 $ nX0 $ 0 $ 8 8 vXbXbX8 nXcX  w bXbX8 bX8 8 bXbX8 ",
"$ $ $ $ 0 nXnXmXmXnXnX    mX0 0 bX8 nXnX$ 7 6 7 bX7 $ mXe     0 bXvX8 8 bXbX8 7 vXnXnX0 $ bXbX$ vX$ bXq     e MXq q nXnXnXq nX0 ",
"mXw L.w MXL.e L.L.w mXcX        e e MXL.e cX  cX        cXcXcX0 vXbX$ vX0 vX$ bX$ nXq nXvX$ $ $ nXvXbXnX  e q 0 nXmXmXw mXq q q ",
"8 0 q nXvXvXnX$ 8 $ q     cXq 0 nXnXMX$ bXbXbXbX$ nX0 w     cX0 0 8 0 nXvX$ 8 8 $ q 0 q 0 0 bX$ 0 $ 8 w   e $ 8 8 8 8 $ $ 8 7 7 ",
"$ $ 0 q q q nXvX8 $ e cX  cXq vXbX$ 0 8 7 7 6 6 7 8 8 nX    L.vX0 $ 0 nX$ bXbX7 bXnX0 vXvX$ bXnXq q 0 cX  cXq mX0 nX$ q 0 bX$ 0 ",
"bXbX$ 0 nXmXq 0 bX$ e L.  cXcXw 0 vXnX$ $ $ 7 6 8 bXbXnX  cXq vX$ $ nXq 0 $ 8 8 7 7 bX$ bX8 vXmXq 0 0 e   cXbX$ $ vXvX$ 8 8 vX8 ",
"q nX0 q q q $ $ vXnXe nX  cXe L.w nXmXnX0 0 bX7 8 bX8 $ cXcXvXbX8 0 nX$ 0 0 7 8 $ bX$ $ $ bX0 q vXvX0 w     0 8 8 vX$ 7 7 8 8 8 ",
"mXq MXq nXvX8 8 vXmXcXq   cXmXnXq 0 w w nXnXq $ $ $ 7 6 bX  0 bXbXq q 8 $ $ 8 8 $ vX0 0 nX$ $ nX0 bX0 cX    q vX$ bX0 $ 8 $ 0 q ",
"0 bX8 $ $ $ q nX0 MXcXcX  q 0 vX$ bX7 MXL.q vXbX8 bX8 5 6 cXe vXvX0 nXvX0 bX8 bXq q mXq vX$ 8 0 vXbXnXcX    nXMX0 7 8 8 8 bX$ nX",
"6 7 6 7 bX7 $ 0 nXq L.  cXvXvXvXbXbXbX$ $ vXvX8 7 8 7 6 6 cXcXq 0 vX0 vXbXbX$ MXmXnX0 0 vXvX8 $ $ 7 vXL.  cX0 MXMXvX8 bX7 7 7 6 ",
"8 8 8 $ $ bX$ bX8 8 q   e 0 vX0 0 bX8 7 7 $ vX8 7 7 5 5 6   cXe $ $ vX$ 8 7 8 bXbX7 7 8 nXnX$ bX6 5 7 nX  MXvX0 0 0 $ vX$ 8 8 7 ",
"e e cXcXcXcXcXcXw w MXe w q 0 nXw 0 $ $ vXnXq nX0 bX7 6 8   cXcXmXnX$ 0 vXbXbX8 bX8 bX8 vXq $ 8 7 5 8 MXL.w cXcXw mXL.w e e e e ",
"        cX    cX        e L.w mXL.    cXcXcXcX  cXcXcXe w cXsX    L.$ MXw q 0 0 w MXmXmXMXe e mXw e cXe                         "
};
