/* XPM */
static char *_[] = {
/* columns rows colors chars-per-pixel */
"35 75 4 1 ",
"  c #0000A4",
". c #5C60FC",
"X c #B8BCFC",
"o c #D8D8FC",
/* pixels */
"                                   ",
"                                   ",
"                                   ",
"                                   ",
"                                   ",
"                                   ",
"                                   ",
"                                   ",
"                                   ",
"                                   ",
"          .....XXXXXooo            ",
"          .....XXXXXooo            ",
"          .....XXXXXooo            ",
"          .....XXXXXooo            ",
"          .....XXXXXooo            ",
"          XXXXXoooooooo            ",
"          XXXXXoooooooo            ",
"          XXXXXoooooooo            ",
"          XXXXXoooooooo            ",
"          XXXXXoooooooo            ",
"          ooooooooooooo            ",
"          ooooooooooooo            ",
"          ooooooooooooo            ",
"          ooooooooooooo            ",
"          ooooooooooooo            ",
"          ooooooooooooo            ",
"          ooooooooooooo            ",
"          ooooooooooooo            ",
"          ooooooooooooo            ",
"          ooooooooooooo            ",
"          ooooooooooooo            ",
"          ooooooooooooo            ",
"          ooooooooooooo            ",
"          ooooooooooooo            ",
"          ooooooooooooo            ",
"          ooooooooooooo            ",
"          ooooooooooooo            ",
"          ooooooooooooo            ",
"          ooooooooooooo            ",
"          ooooooooooooo            ",
"          ooooooooooooo            ",
"          ooooooooooooo            ",
"          ooooooooooooo            ",
"          ooooooooooooo            ",
"          ooooooooooooo            ",
"          ooooooooooooo            ",
"          ooooooooooooo            ",
"          ooooooooooooo            ",
"          ooooooooooooo            ",
"          ooooooooooooo            ",
"          ooooooooooooo            ",
"          ooooooooooooo            ",
"          ooooooooooooo            ",
"          ooooooooooooo            ",
"          ooooooooooooo            ",
"          ooooooooooooo            ",
"          ooooooooooooo            ",
"          ooooooooooooo            ",
"          ooooooooooooo            ",
"          ooooooooooooo            ",
"          ooooooooooooo            ",
"          ooooooooooooo            ",
"          ooooooooooooo            ",
"          ooooooooooooo            ",
"          ooooooooooooo            ",
"          ooooooooooooo            ",
"          ooooooooooooo            ",
"          ooooooooooooo            ",
"          ooooooooooooo            ",
"          ooooooooooooo            ",
"          ooooooooooooo            ",
"          ooooooooooooo            ",
"          ooooooooooooo            ",
"          ooooooooooooo            ",
"          ooooooooooooo            "
};
