/* XPM */
static char *_[] = {
/* columns rows colors chars-per-pixel */
"35 75 6 1 ",
"  c #0000A4",
". c #4040FC",
"X c #5C60FC",
"o c #9C9CFC",
"O c #B8BCFC",
"+ c #D8D8FC",
/* pixels */
"                                   ",
"                                   ",
"                                   ",
"                                   ",
"                                   ",
"                                   ",
"                                   ",
"                                   ",
"                                   ",
"                                   ",
"     XXXXOOOOO+++++++++++++XXXX    ",
"     XXXXOOOOO+++++++++++++XXXX    ",
"     XXXXOOOOO+++++++++++++XXXX    ",
"     XXXXOOOOO+++++++++++++XXXX    ",
"     XXXXOOOOO+++++++++++++XXXX    ",
"     OOOO++++++++++++++++++++++XXXX",
"     OOOO++++++++++++++++++++++XXXX",
"     OOOO++++++++++++++++++++++XXXX",
"     OOOO++++++++++++++++++++++XXXX",
"     ++++OOOOOXXXXOOOO+++++++++++++",
"     ++++OOOOOXXXXOOOO+++++++++++++",
"     ++++OOOOOXXXXOOOO+++++++++++++",
"     ++++OOOOOXXXXOOOO+++++++++++++",
"     ++++OOOOOXXXXOOOO+++++++++++++",
"     OOOO.....    XXXXOOOOO++++++++",
"     OOOO.....    XXXXOOOOO++++++++",
"     OOOO.....    XXXXOOOOO++++++++",
"     OOOO.....    XXXXOOOOO++++++++",
"     OOOO.....    XXXXOOOOO++++++++",
"                      OOOOO++++++++",
"                      OOOOO++++++++",
"                      OOOOO++++++++",
"                      OOOOO++++++++",
"                  ....+++++++++OOOO",
"                  ....+++++++++OOOO",
"                  ....+++++++++OOOO",
"                  ....+++++++++OOOO",
"                  ....+++++++++OOOO",
"                  oooo+++++++++XXXX",
"                  oooo+++++++++XXXX",
"                  oooo+++++++++XXXX",
"                  oooo+++++++++XXXX",
"                  oooo+++++++++XXXX",
"              ....+++++++++OOOO    ",
"              ....+++++++++OOOO    ",
"              ....+++++++++OOOO    ",
"              ....+++++++++OOOO    ",
"              oooo+++++++++XXXX    ",
"              oooo+++++++++XXXX    ",
"              oooo+++++++++XXXX    ",
"              oooo+++++++++XXXX    ",
"              oooo+++++++++XXXX    ",
"         .....++++++++OOOOO        ",
"         .....++++++++OOOOO        ",
"         .....++++++++OOOOO        ",
"         .....++++++++OOOOO        ",
"         .....++++++++OOOOO        ",
"         ooooo++++OOOOXXXXX        ",
"         ooooo++++OOOOXXXXX        ",
"         ooooo++++OOOOXXXXX        ",
"         ooooo++++OOOOXXXXX        ",
"     ....+++++++++XXXX             ",
"     ....+++++++++XXXX             ",
"     ....+++++++++XXXX             ",
"     ....+++++++++XXXX             ",
"     ....+++++++++XXXX             ",
"     oooo++++++++++++++++++++++++++",
"     oooo++++++++++++++++++++++++++",
"     oooo++++++++++++++++++++++++++",
"     oooo++++++++++++++++++++++++++",
"     oooo++++++++++++++++++++++++++",
"     ++++++++++++++++++++++++++++++",
"     ++++++++++++++++++++++++++++++",
"     ++++++++++++++++++++++++++++++",
"     ++++++++++++++++++++++++++++++"
};
