/* XPM */
static char *_[] = {
/* columns rows colors chars-per-pixel */
"35 75 7 1 ",
"  c #0000A4",
". c #4040FC",
"X c #5C60FC",
"o c #7C80FC",
"O c #9C9CFC",
"+ c #B8BCFC",
"@ c #D8D8FC",
/* pixels */
"                                   ",
"                                   ",
"                                   ",
"                                   ",
"                                   ",
"                                   ",
"                                   ",
"                                   ",
"                                   ",
"                                   ",
"     ooooo++++@@@@@@@@@@@@@@XXXX   ",
"     ooooo++++@@@@@@@@@@@@@@XXXX   ",
"     ooooo++++@@@@@@@@@@@@@@XXXX   ",
"     ooooo++++@@@@@@@@@@@@@@XXXX   ",
"     ooooo++++@@@@@@@@@@@@@@XXXX   ",
"     +++++@@@@@@@@@@@@@@@@@@@@@@   ",
"     +++++@@@@@@@@@@@@@@@@@@@@@@   ",
"     +++++@@@@@@@@@@@@@@@@@@@@@@   ",
"     +++++@@@@@@@@@@@@@@@@@@@@@@   ",
"     +++++@@@@@@@@@@@@@@@@@@@@@@   ",
"     @@@@@OOOO.....XXXX@@@@@@@@@   ",
"     @@@@@OOOO.....XXXX@@@@@@@@@   ",
"     @@@@@OOOO.....XXXX@@@@@@@@@   ",
"     @@@@@OOOO.....XXXX@@@@@@@@@   ",
"     @@@@@OOOO.....XXXX@@@@@@@@@   ",
"     +++++         XXXX@@@@@@@@@   ",
"     +++++         XXXX@@@@@@@@@   ",
"     +++++         XXXX@@@@@@@@@   ",
"     +++++         XXXX@@@@@@@@@   ",
"              XXXXX++++@@@@@XXXX   ",
"              XXXXX++++@@@@@XXXX   ",
"              XXXXX++++@@@@@XXXX   ",
"              XXXXX++++@@@@@XXXX   ",
"              XXXXX++++@@@@@XXXX   ",
"          oooo@@@@@@@@@            ",
"          oooo@@@@@@@@@            ",
"          oooo@@@@@@@@@            ",
"          oooo@@@@@@@@@            ",
"          oooo@@@@@@@@@            ",
"              +++++@@@@@@@@@XXXX   ",
"              +++++@@@@@@@@@XXXX   ",
"              +++++@@@@@@@@@XXXX   ",
"              +++++@@@@@@@@@XXXX   ",
"              +++++@@@@@@@@@XXXX   ",
"              XXXXXOOOO@@@@@@@@@XXX",
"              XXXXXOOOO@@@@@@@@@XXX",
"              XXXXXOOOO@@@@@@@@@XXX",
"              XXXXXOOOO@@@@@@@@@XXX",
"              XXXXXOOOO@@@@@@@@@XXX",
"                   XXXX@@@@@@@@@@@@",
"                   XXXX@@@@@@@@@@@@",
"                   XXXX@@@@@@@@@@@@",
"                       @@@@@@@@@@@@",
"                       @@@@@@@@@@@@",
"                       @@@@@@@@@@@@",
"                       @@@@@@@@@@@@",
"                       @@@@@@@@@@@@",
"          ++++         @@@@@@@@@@@@",
"          ++++         @@@@@@@@@@@@",
"          ++++         @@@@@@@@@@@@",
"          ++++         @@@@@@@@@@@@",
"          ++++         @@@@@@@@@@@@",
"     +++++@@@@OOOOO    @@@@@@@@@   ",
"     +++++@@@@OOOOO    @@@@@@@@@   ",
"     +++++@@@@OOOOO    @@@@@@@@@   ",
"     +++++@@@@OOOOO    @@@@@@@@@   ",
"     +++++@@@@OOOOO    @@@@@@@@@   ",
"     XXXXX@@@@@@@@@@@@@+++++       ",
"     XXXXX@@@@@@@@@@@@@+++++       ",
"     XXXXX@@@@@@@@@@@@@+++++       ",
"     XXXXX@@@@@@@@@@@@@+++++       ",
"     XXXXX@@@@@@@@@@@@@+++++       ",
"          XXXX+++++@@@@            ",
"          XXXX+++++@@@@            ",
"          XXXX+++++@@@@            "
};
