/* XPM */
static char *_[] = {
/* columns rows colors chars-per-pixel */
"35 75 7 1 ",
"  c #0000A4",
". c #4040FC",
"X c #5C60FC",
"o c #7C80FC",
"O c #9C9CFC",
"+ c #B8BCFC",
"@ c #D8D8FC",
/* pixels */
"                                   ",
"                                   ",
"                                   ",
"                                   ",
"                                   ",
"                                   ",
"                                   ",
"                                   ",
"                                   ",
"                                   ",
"         @@@@@@@@@@@@@@@@@@@@@@@@@@",
"         @@@@@@@@@@@@@@@@@@@@@@@@@@",
"         @@@@@@@@@@@@@@@@@@@@@@@@@@",
"         @@@@@@@@@@@@@@@@@@@@@@@@@@",
"         @@@@@@@@@@@@@@@@@@@@@@@@@@",
"         @@@@@++++@@@@@@@@@@@@@@@@@",
"         @@@@@++++@@@@@@@@@@@@@@@@@",
"         @@@@@++++@@@@@@@@@@@@@@@@@",
"         @@@@@++++@@@@@@@@@@@@@@@@@",
"         @@@@@OOOO                 ",
"         @@@@@OOOO                 ",
"         @@@@@OOOO                 ",
"         @@@@@OOOO                 ",
"         @@@@@OOOO                 ",
"         @@@@@OOOO                 ",
"         @@@@@OOOO                 ",
"         @@@@@OOOO                 ",
"         @@@@@OOOO                 ",
"         @@@@@OOOO                 ",
"     XXXX@@@@@XXXXOOOO+++++++++oooo",
"     XXXX@@@@@XXXXOOOO+++++++++oooo",
"     XXXX@@@@@XXXXOOOO+++++++++oooo",
"     XXXX@@@@@XXXXOOOO+++++++++oooo",
"     OOOO@@@@@@@@@@@@@@@@@@@@@@++++",
"     OOOO@@@@@@@@@@@@@@@@@@@@@@++++",
"     OOOO@@@@@@@@@@@@@@@@@@@@@@++++",
"     OOOO@@@@@@@@@@@@@@@@@@@@@@++++",
"     OOOO@@@@@@@@@@@@@@@@@@@@@@++++",
"     ++++@@@@@OOOO++++@@@@@@@@@@@@@",
"     ++++@@@@@OOOO++++@@@@@@@@@@@@@",
"     ++++@@@@@OOOO++++@@@@@@@@@@@@@",
"     ++++@@@@@OOOO++++@@@@@@@@@@@@@",
"     ++++@@@@@OOOO++++@@@@@@@@@@@@@",
"     @@@@.....    XXXX@@@@@@@@@@@@@",
"     @@@@.....    XXXX@@@@@@@@@@@@@",
"     @@@@.....    XXXX@@@@@@@@@@@@@",
"     @@@@.....    XXXX@@@@@@@@@@@@@",
"                      @@@@@@@@@@@@@",
"                      @@@@@@@@@@@@@",
"                      @@@@@@@@@@@@@",
"                      @@@@@@@@@@@@@",
"                      @@@@@@@@@@@@@",
"                      @@@@@@@@@@@@@",
"                      @@@@@@@@@@@@@",
"                      @@@@@@@@@@@@@",
"                      @@@@@@@@@@@@@",
"                      @@@@@@@@@@@@@",
"         @@@@@        @@@@@@@@@OOOO",
"         @@@@@        @@@@@@@@@OOOO",
"         @@@@@        @@@@@@@@@OOOO",
"         @@@@@        @@@@@@@@@OOOO",
"     @@@@@@@@@XXXX    @@@@@@@@@    ",
"     @@@@@@@@@XXXX    @@@@@@@@@    ",
"     @@@@@@@@@XXXX    @@@@@@@@@    ",
"     @@@@@@@@@XXXX    @@@@@@@@@    ",
"     @@@@@@@@@XXXX    @@@@@@@@@    ",
"     @@@@@@@@@@@@@XXXX@@@@@OOOO    ",
"     @@@@@@@@@@@@@XXXX@@@@@OOOO    ",
"     @@@@@@@@@@@@@XXXX@@@@@OOOO    ",
"     @@@@@@@@@@@@@XXXX@@@@@OOOO    ",
"     @@@@@@@@@@@@@XXXX@@@@@OOOO    ",
"     XXXX@@@@@@@@@@@@@OOOOO        ",
"     XXXX@@@@@@@@@@@@@OOOOO        ",
"     XXXX@@@@@@@@@@@@@OOOOO        ",
"     XXXX@@@@@@@@@@@@@OOOOO        "
};
