/* XPM */
static char *_[] = {
/* columns rows colors chars-per-pixel */
"35 75 6 1 ",
"  c #0000A4",
". c #4040FC",
"X c #7C80FC",
"o c #9C9CFC",
"O c #B8BCFC",
"+ c #D8D8FC",
/* pixels */
"                                   ",
"                                   ",
"                                   ",
"                                   ",
"                                   ",
"                                   ",
"                                   ",
"                                   ",
"                                   ",
"                                   ",
"              OOOOoooo             ",
"              OOOOoooo             ",
"              OOOOoooo             ",
"              OOOOoooo             ",
"              OOOOoooo             ",
"         OOOOO++++XXXX             ",
"         OOOOO++++XXXX             ",
"         OOOOO++++XXXX             ",
"         OOOOO++++XXXX             ",
"     ....OOOOO++++....             ",
"     ....OOOOO++++....             ",
"     ....OOOOO++++....             ",
"     ....OOOOO++++....             ",
"     ....OOOOO++++....             ",
"     oooo+++++++++....             ",
"     oooo+++++++++....             ",
"     oooo+++++++++....             ",
"     oooo+++++++++....             ",
"     oooo+++++++++....             ",
"     OOOO+++++++++    +++++oooo    ",
"     OOOO+++++++++    +++++oooo    ",
"     OOOO+++++++++    +++++oooo    ",
"     OOOO+++++++++    +++++oooo    ",
"     OOOO++++++++++++++++++++++oooo",
"     OOOO++++++++++++++++++++++oooo",
"     OOOO++++++++++++++++++++++oooo",
"     OOOO++++++++++++++++++++++oooo",
"     OOOO++++++++++++++++++++++oooo",
"     +++++++++++++XXXX+++++++++OOOO",
"     +++++++++++++XXXX+++++++++OOOO",
"     +++++++++++++XXXX+++++++++OOOO",
"     +++++++++++++XXXX+++++++++OOOO",
"     +++++++++++++XXXX+++++++++OOOO",
"     +++++++++++++    OOOOO++++++++",
"     +++++++++++++    OOOOO++++++++",
"     +++++++++++++    OOOOO++++++++",
"     +++++++++++++    OOOOO++++++++",
"     OOOO+++++++++    OOOOO++++++++",
"     OOOO+++++++++    OOOOO++++++++",
"     OOOO+++++++++    OOOOO++++++++",
"     OOOO+++++++++    OOOOO++++++++",
"     OOOO+++++++++    OOOOO++++++++",
"     OOOO+++++++++    OOOOO++++++++",
"     OOOO+++++++++    OOOOO++++++++",
"     OOOO+++++++++    OOOOO++++++++",
"     OOOO+++++++++    OOOOO++++++++",
"     OOOO+++++++++    OOOOO++++++++",
"     XXXXOOOOO++++XXXXOOOOO++++++++",
"     XXXXOOOOO++++XXXXOOOOO++++++++",
"     XXXXOOOOO++++XXXXOOOOO++++++++",
"     XXXXOOOOO++++XXXXOOOOO++++++++",
"         OOOOO+++++++++++++++++    ",
"         OOOOO+++++++++++++++++    ",
"         OOOOO+++++++++++++++++    ",
"         OOOOO+++++++++++++++++    ",
"         OOOOO+++++++++++++++++    ",
"              OOOO+++++++++        ",
"              OOOO+++++++++        ",
"              OOOO+++++++++        ",
"              OOOO+++++++++        ",
"              OOOO+++++++++        ",
"                  ++++             ",
"                  ++++             ",
"                  ++++             ",
"                  ++++             "
};
