/* XPM */
static char *_[] = {
/* columns rows colors chars-per-pixel */
"35 75 7 1 ",
"  c #0000A4",
". c #2024FC",
"X c #5C60FC",
"o c #7C80FC",
"O c #9C9CFC",
"+ c #B8BCFC",
"@ c #D8D8FC",
/* pixels */
"                                   ",
"                                   ",
"                                   ",
"                                   ",
"                                   ",
"                                   ",
"                                   ",
"                                   ",
"                                   ",
"                                   ",
"     @@@@@@@@@@@@@@@@@@@@@@@@@@oooo",
"     @@@@@@@@@@@@@@@@@@@@@@@@@@oooo",
"     @@@@@@@@@@@@@@@@@@@@@@@@@@oooo",
"     @@@@@@@@@@@@@@@@@@@@@@@@@@oooo",
"     @@@@@@@@@@@@@@@@@@@@@@@@@@oooo",
"     @@@@@@@@@@@@@@@@@@@@@@@@@@@@@@",
"     @@@@@@@@@@@@@@@@@@@@@@@@@@@@@@",
"     @@@@@@@@@@@@@@@@@@@@@@@@@@@@@@",
"     @@@@@@@@@@@@@@@@@@@@@@@@@@@@@@",
"                      .....@@@@@@@@",
"                      .....@@@@@@@@",
"                      .....@@@@@@@@",
"                      .....@@@@@@@@",
"                      .....@@@@@@@@",
"                      .....@@@@++++",
"                      .....@@@@++++",
"                      .....@@@@++++",
"                      .....@@@@++++",
"                      .....@@@@++++",
"                  ....+++++@@@@XXXX",
"                  ....+++++@@@@XXXX",
"                  ....+++++@@@@XXXX",
"                  ....+++++@@@@XXXX",
"              ....++++@@@@@++++    ",
"              ....++++@@@@@++++    ",
"              ....++++@@@@@++++    ",
"              ....++++@@@@@++++    ",
"              ....++++@@@@@++++    ",
"              oooo@@@@@@@@@oooo    ",
"              oooo@@@@@@@@@oooo    ",
"              oooo@@@@@@@@@oooo    ",
"              oooo@@@@@@@@@oooo    ",
"              oooo@@@@@@@@@oooo    ",
"         .....++++@@@@@@@@@XXXX    ",
"         .....++++@@@@@@@@@XXXX    ",
"         .....++++@@@@@@@@@XXXX    ",
"         .....++++@@@@@@@@@XXXX    ",
"         .....@@@@@@@@@@@@@        ",
"         .....@@@@@@@@@@@@@        ",
"         .....@@@@@@@@@@@@@        ",
"         .....@@@@@@@@@@@@@        ",
"         .....@@@@@@@@@@@@@        ",
"         OOOOO@@@@@@@@@@@@@        ",
"         OOOOO@@@@@@@@@@@@@        ",
"         OOOOO@@@@@@@@@@@@@        ",
"         OOOOO@@@@@@@@@@@@@        ",
"         OOOOO@@@@@@@@@@@@@        ",
"         +++++@@@@@@@@@@@@@        ",
"         +++++@@@@@@@@@@@@@        ",
"         +++++@@@@@@@@@@@@@        ",
"         +++++@@@@@@@@@@@@@        ",
"         +++++@@@@@@@@@@@@@        ",
"         +++++@@@@@@@@@@@@@        ",
"         +++++@@@@@@@@@@@@@        ",
"         +++++@@@@@@@@@@@@@        ",
"         +++++@@@@@@@@@@@@@        ",
"         @@@@@@@@@@@@@@@@@@        ",
"         @@@@@@@@@@@@@@@@@@        ",
"         @@@@@@@@@@@@@@@@@@        ",
"         @@@@@@@@@@@@@@@@@@        ",
"         @@@@@@@@@@@@@@@@@@        ",
"         @@@@@@@@@@@@@@@@@@        ",
"         @@@@@@@@@@@@@@@@@@        ",
"         @@@@@@@@@@@@@@@@@@        ",
"         @@@@@@@@@@@@@@@@@@        "
};
