/* XPM */
static char *_[] = {
/* columns rows colors chars-per-pixel */
"35 75 6 1 ",
"  c #0000A4",
". c #4040FC",
"X c #7C80FC",
"o c #9C9CFC",
"O c #B8BCFC",
"+ c #D8D8FC",
/* pixels */
"                                   ",
"                                   ",
"                                   ",
"                                   ",
"                                   ",
"                  ++++             ",
"                  ++++             ",
"                  ++++             ",
"                  ++++             ",
"                  ++++             ",
"              +++++++++++++        ",
"              +++++++++++++        ",
"              +++++++++++++        ",
"              +++++++++++++        ",
"              +++++++++++++        ",
"         ++++++++++++++++++OOOO    ",
"         ++++++++++++++++++OOOO    ",
"         ++++++++++++++++++OOOO    ",
"         ++++++++++++++++++OOOO    ",
"     +++++++++OOOOXXXX+++++++++XXXX",
"     +++++++++OOOOXXXX+++++++++XXXX",
"     +++++++++OOOOXXXX+++++++++XXXX",
"     +++++++++OOOOXXXX+++++++++XXXX",
"     +++++++++OOOOXXXX+++++++++XXXX",
"     +++++++++OOOO....+++++++++OOOO",
"     +++++++++OOOO....+++++++++OOOO",
"     +++++++++OOOO....+++++++++OOOO",
"     +++++++++OOOO....+++++++++OOOO",
"     +++++++++OOOO....+++++++++OOOO",
"     +++++++++OOOO    +++++++++OOOO",
"     +++++++++OOOO    +++++++++OOOO",
"     +++++++++OOOO    +++++++++OOOO",
"     +++++++++OOOO    +++++++++OOOO",
"     +++++++++OOOO    +++++++++++++",
"     +++++++++OOOO    +++++++++++++",
"     +++++++++OOOO    +++++++++++++",
"     +++++++++OOOO    +++++++++++++",
"     +++++++++OOOO    +++++++++++++",
"     OOOO+++++++++XXXX+++++++++++++",
"     OOOO+++++++++XXXX+++++++++++++",
"     OOOO+++++++++XXXX+++++++++++++",
"     OOOO+++++++++XXXX+++++++++++++",
"     OOOO+++++++++XXXX+++++++++++++",
"     oooo++++++++++++++++++++++OOOO",
"     oooo++++++++++++++++++++++OOOO",
"     oooo++++++++++++++++++++++OOOO",
"     oooo++++++++++++++++++++++OOOO",
"         ooooo++++    +++++++++OOOO",
"         ooooo++++    +++++++++OOOO",
"         ooooo++++    +++++++++OOOO",
"         ooooo++++    +++++++++OOOO",
"         ooooo++++    +++++++++OOOO",
"                  ....+++++++++oooo",
"                  ....+++++++++oooo",
"                  ....+++++++++oooo",
"                  ....+++++++++oooo",
"                  ....+++++++++oooo",
"                  ....+++++OOOO....",
"                  ....+++++OOOO....",
"                  ....+++++OOOO....",
"                  ....+++++OOOO....",
"                  XXXX+++++OOOO    ",
"                  XXXX+++++OOOO    ",
"                  XXXX+++++OOOO    ",
"                  XXXX+++++OOOO    ",
"                  XXXX+++++OOOO    ",
"                  OOOO+++++oooo    ",
"                  OOOO+++++oooo    ",
"                  OOOO+++++oooo    ",
"                  OOOO+++++oooo    ",
"                  OOOO+++++oooo    ",
"                  +++++++++....    ",
"                  +++++++++....    ",
"                  +++++++++....    ",
"                  +++++++++....    "
};
