/* XPM */
static char *cat2[] = {
/* columns rows colors chars-per-pixel */
"64 64 256 2 ",
"   c black",
".  c #0000A8",
"X  c #00A800",
"o  c #00A8A8",
"O  c #A80000",
"+  c #A800A8",
"@  c #A85400",
"#  c gray66",
"$  c gray33",
"%  c #5454FC",
"&  c #54FC54",
"*  c #54FCFC",
"=  c #FC5454",
"-  c #FC54FC",
";  c #FCFC54",
":  c gray99",
">  c #ECECEC",
",  c gainsboro",
"<  c #D0D0D0",
"1  c #C0C0C0",
"2  c #B4B4B4",
"3  c gray66",
"4  c #989898",
"5  c gray55",
"6  c #7C7C7C",
"7  c gray44",
"8  c #646464",
"9  c gray33",
"0  c #484848",
"q  c gray22",
"w  c #2C2C2C",
"e  c #202020",
"r  c #FC0000",
"t  c #EC0000",
"y  c #E00000",
"u  c #D40000",
"i  c #C80000",
"p  c #BC0000",
"a  c #B00000",
"s  c #A40000",
"d  c #980000",
"f  c #880000",
"g  c #7C0000",
"h  c #700000",
"j  c #640000",
"k  c #580000",
"l  c #4C0000",
"z  c #400000",
"x  c #FCD8D8",
"c  c #FCB8B8",
"v  c #FC9C9C",
"b  c #FC7C7C",
"n  c #FC5C5C",
"m  c #FC4040",
"M  c #FC2020",
"N  c #FC0000",
"B  c #FCA85C",
"V  c #FC9840",
"C  c #FC8820",
"Z  c #FC7800",
"A  c #E46C00",
"S  c #CC6000",
"D  c #B45400",
"F  c #9C4C00",
"G  c #FCFCD8",
"H  c #FCFCB8",
"J  c #FCFC9C",
"K  c #FCFC7C",
"L  c #FCF85C",
"P  c #FCF440",
"I  c #FCF420",
"U  c #FCF400",
"Y  c #E4D800",
"T  c #CCC400",
"R  c #B4AC00",
"E  c #9C9C00",
"W  c #848400",
"Q  c #706C00",
"!  c #585400",
"~  c #404000",
"^  c #D0FC5C",
"/  c #C4FC40",
"(  c #B4FC20",
")  c #A0FC00",
"_  c #90E400",
"`  c #80CC00",
"'  c #74B400",
"]  c #609C00",
"[  c #D8FCD8",
"{  c #BCFCB8",
"}  c #9CFC9C",
"|  c #80FC7C",
" . c #60FC5C",
".. c #40FC40",
"X. c #20FC20",
"o. c #00FC00",
"O. c #00FC00",
"+. c #00EC00",
"@. c #00E000",
"#. c #00D400",
"$. c #04C800",
"%. c #04BC00",
"&. c #04B000",
"*. c #04A400",
"=. c #049800",
"-. c #048800",
";. c #047C00",
":. c #047000",
">. c #046400",
",. c #045800",
"<. c #044C00",
"1. c #044000",
"2. c #D8FCFC",
"3. c #B8FCFC",
"4. c #9CFCFC",
"5. c #7CFCF8",
"6. c #5CFCFC",
"7. c #40FCFC",
"8. c #20FCFC",
"9. c #00FCFC",
"0. c #00E4E4",
"q. c #00CCCC",
"w. c #00B4B4",
"e. c #009C9C",
"r. c #008484",
"t. c #007070",
"y. c #005858",
"u. c #004040",
"i. c #5CBCFC",
"p. c #40B0FC",
"a. c #20A8FC",
"s. c #009CFC",
"d. c #008CE4",
"f. c #007CCC",
"g. c #006CB4",
"h. c #005C9C",
"j. c #D8D8FC",
"k. c #B8BCFC",
"l. c #9C9CFC",
"z. c #7C80FC",
"x. c #5C60FC",
"c. c #4040FC",
"v. c #2024FC",
"b. c #0004FC",
"n. c #0000FC",
"m. c #0000EC",
"M. c #0000E0",
"N. c #0000D4",
"B. c #0000C8",
"V. c #0000BC",
"C. c #0000B0",
"Z. c #0000A4",
"A. c #000098",
"S. c #000088",
"D. c #00007C",
"F. c #000070",
"G. c #000064",
"H. c #000058",
"J. c #00004C",
"K. c #000040",
"L. c #282828",
"P. c #FCE034",
"I. c #FCD424",
"U. c #FCCC18",
"Y. c #FCC008",
"T. c #FCB400",
"R. c #B420FC",
"E. c #A800FC",
"W. c #9800E4",
"Q. c #8000CC",
"!. c #7400B4",
"~. c #60009C",
"^. c #500084",
"/. c #440070",
"(. c #340058",
"). c #280040",
"_. c #FCD8FC",
"`. c #FCB8FC",
"'. c #FC9CFC",
"]. c #FC7CFC",
"[. c #FC5CFC",
"{. c #FC40FC",
"}. c #FC20FC",
"|. c #FC00FC",
" X c #E000E4",
".X c #C800CC",
"XX c #B400B4",
"oX c #9C009C",
"OX c #840084",
"+X c #6C0070",
"@X c #580058",
"#X c #400040",
"$X c #FCE8DC",
"%X c #FCE0D0",
"&X c #FCD8C4",
"*X c #FCD4BC",
"=X c #FCCCB0",
"-X c #FCC4A4",
";X c #FCBC9C",
":X c #FCB890",
">X c #FCB080",
",X c #FCA470",
"<X c #FC9C60",
"1X c #F0945C",
"2X c #E88C58",
"3X c #DC8854",
"4X c #D08050",
"5X c #C87C4C",
"6X c #BC7848",
"7X c #B47044",
"8X c #A86840",
"9X c #A0643C",
"0X c #9C6038",
"qX c #905C34",
"wX c #885830",
"eX c #80502C",
"rX c #744C28",
"tX c #6C4824",
"yX c #5C4020",
"uX c #543C1C",
"iX c #483818",
"pX c #403018",
"aX c #382C14",
"sX c #28200C",
"dX c #600064",
"fX c #006464",
"gX c #006060",
"hX c #00001C",
"jX c #00002C",
"kX c #302410",
"lX c #480048",
"zX c #500050",
"xX c #000034",
"cX c gray11",
"vX c #4C4C4C",
"bX c gray36",
"nX c gray25",
"mX c gray19",
"MX c #343434",
"NX c #D8F4F4",
"BX c #B8E8E8",
"VX c #9CDCDC",
"CX c #74C8C8",
"ZX c #48C0C0",
"AX c #20B4B4",
"SX c #20B0B0",
"DX c #00A4A4",
"FX c #009898",
"GX c #008C8C",
"HX c #008484",
"JX c #007C7C",
"KX c #007878",
"LX c #007474",
"PX c #007070",
"IX c #006C6C",
"UX c #980088",
/* pixels */
"$ bX$ bXbXvXvXvX0 0 0 0 yX0 yXtX0 $ vX$ vXvXq 8 5 5 5 bXyXvXvX0 0 yX0 yX0 vX0 tX0 0 yXyXyXyXyXtXtXtXtXrX$ 0 0 nXq 0 8 7 8 $ tXtX",
"$ bX$ bXbXvXvX0 0 0 0 0 0 0 yX0 0 vX0 vX0 0 0 5 6 5 5 5 7 0 0 0 0 uXyXyX0 0 0 0 0 yXyXyXyXyXuXtXyXtX0 0 0 $ 0 q nXbX6 6 8 0 yXuX",
"bXbXbX$ $ $ $ $ $ vX0 0 0 0 0 0 0 0 0 0 vX0 0 7 6 6 5 5 5 5 0 q vXyXuX0 0 0 0 tX0 yXyXyXyXyXuX0 tXvXvX$ vXnXq w 0 $ 6 5 8 vXMXMX",
"bX$ $ $ $ $ $ $ $ vX0 yXyX0 0 0 0 0 yXnX0 nX0 7 5 5 5 5 5 5 6 $ 0 q 0 0 yX0 0 0 0 0 0 yXyX0 0 0 0 vX$ $ 0 nXnXq bX8 6 5 bXnXpXpX",
"$ bX$ $ $ bX$ $ $ 0 0 yXyXyX0 0 0 yXyXyXq q 0 8 6 5 4 5 5 5 5 7 0 nXMXq q 0 0 0 0 0 0 yXyXuXyX0 vX$ $ vX0 q q 0 7 6 5 6 0 mXL.L.",
"$ bX$ $ bXbX$ $ 0 0 0 0 0 yXyXyXyXq yXyXq 0 nX8 4 4 # 4 4 5 6 6 7 q q q 0 yX0 0 0 0 yXyX0 vXvXvXbX$ 0 MXq $ 0 $ 7 4 4 6 mXL.L.kX",
"$ $ $ $ $ $ $ $ 0 0 0 0 0 yXyXyXuXyXyXyXyXMXpXbX4 4 4 4 6 6 8 8 8 bXMXnXnX0 0 $ $ $ $ $ $ 0 vXbX8 bX0 q nXnX0 8 6 5 5 7 q e aXe ",
"$ $ $ $ $ vX$ $ $ 0 0 0 0 yXyXyXyXyXyXyXq 0 mX$ 4 4 # # 5 5 6 $ bX8 8 vX0 $ bX8 7 6 6 6 7 7 6 6 bX$ q q q MXnX$ 6 5 # 7 e e L.kX",
"$ $ vXvXvXvX$ $ vX0 0 0 yX0 uXuXyXyXuXuXq 0 q nX5 4 # # 4 4 6 8 vXbX8 8 0 bX8 8 7 6 5 5 6 7 7 8 mXq L.mXmXL.0 8 7 6 5 7 e L.pXpX",
"$ $ vXvXvX$ $ $ 0 0 0 0 yX0 uXiXuXuXiXuXyXq q q 6 # # 4 # 4 5 6 8 0 bX8 $ nX$ bXbXbX8 7 7 7 7 6 8 7 0 mXL.MXL.q mX8 5 6 cXL.aXpX",
"bX$ vXvXvXvX0 0 nX0 0 0 yXuXuXuXuXuXuXuXq q q mX6 4 # # 4 # 4 6 7 7 8 bX0 bX8 bXbXvXvXbX8 8 7 7 6 6 8 $ q q vXvX7 # # # $ L.e kX",
"$ vXvXvXvX$ $ 0 0 0 0 0 uXyXuXuXuXuXuXyXq vXq sX7 4 # # # # 4 4 5 7 vX0 vX6 6 $ vX$ vXbX$ 0 $ bX8 8 8 7 6 7 7 7 7 6 7 # $ L.L.MX",
"vXvX0 0 vXvXvX0 0 vXvX0 yXyXuXuXuXuXuXyXq MXq nX7 4 5 4 4 4 4 4 5 $ MXq vX8 vXnXvX0 L.vXnXvXvXvXvX8 bX8 7 5 6 5 7 8 bX5 0 mXaXaX",
"vXtXtX0 0 0 0 0 vXvXvX0 yXyXuXiXiXuXuXuXuXuXnXe bX5 # 5 5 5 5 6 7 7 6 7 bX8 bX0 8 2 6 nX0 0 q q q bXbX8 6 7 6 6 6 7 8 bXmXL.aXpX",
"tXtX0 0 0 0 vXvXvX0 0 0 0 uXuXuXuXuXiXiXuXyXq q $ 4 5 5 4 5 4 4 5 6 6 6 7 0 6 5 6 2 6 mX0 0 nX$ $ 7 8 bXbX$ 7 6 7 8 $ mXL.pXL.pX",
"tXtXyXyX0 0 0 vXvXvX0 0 tXyXuXuXuXuXiXiXuXyXnXnX$ 4 4 5 5 5 5 5 5 5 5 5 6 5 5 2 4 # 6 nX0 nXMXMX0 8 8 7 8 vX$ bXbXbX0 q mXpXkXkX",
"yXtXtXyX0 yX0 0 vXvX0 0 tXyXyXyXyXuXuXiXuXq uXnXq 5 4 # 5 6 6 5 5 6 7 7 6 4 # # # 2 6 mXnX0 q MXvXbX7 7 bX$ vXnX0 $ vXvXq e kXpX",
"yXtXyXyXyX0 0 0 vXvX0 nXyX0 yXyXyXyXuXuXuXuXyXq $ 6 4 6 6 5 6 6 7 7 6 5 4 4 # # 4 4 5 vX0 nXq w MXmXq $ 0 8 7 mXnXnX0 vXnXpXL.pX",
"0 0 tXyXyXyX0 0 0 0 0 0 yX0 uXuXyXyXuXuXiXuXyXq $ 7 7 5 6 6 7 8 7 bX6 # 4 2 # # 4 4 5 kXnXnXnXMXmXq $   q   6 vXyX$ 0 8 bXL.L.mX",
"0 0 0 yXyXyXyXyXyX0 0 0 0 q yXyX0 iXyXuXyXuXuXq bX5 5 4 5 8 8 bXbXL.8 4 # # # # 2 # 7 q 0 0 q mXmXhX5 , _.< pXbXvX$ $ $ 7 0 mXpX",
"0 0 yXyXyX0 yXyXyX0 0 0 0 0 yXiXyXuXyXiXiXuX0 q 6 5 # 5 5 6 8 $ mX8 5 8 2 2 4 # # 2 4 aXnXvX0 mXhX4 : : : : 5 yX7 nX$ 8 bX7 q pX",
"0 0 yXyXyXyXyXyXyX0 0 yXq yXuXyXuXyXuXyXyXyXq 0 8 5 5 4 5 6 8 0 nX6 nX1 : : , 2 # 2 6   nXvX0 nX  < : _.: : # iX5 8 nX0 8 6 q L.",
"0 tX0 yXuXyXuXuXyXyXyXyXyXyXyX0 yX0 uXuXnXyXnXbX7 4 5 4 5 7 $ q 8 8 MX, : : : > # 1 2 mXe 0 vXmXhX5 : : : x 4 2 1 4 8 8 $ 7 q pX",
"0 tXtXyXuXyXuXuXyXyXyXyXyX0 0 yXyXyXq pXq pXq 0 7 6 4 5 5 7 0 vX0 0 hX2 : : : : 4 4 6 mXq 0 mXMXcX  4 , 1 2 # 1 2 5 8 6 8 7 q MX",
"yXyXyXyXyX0 yXyXyXyXyXyXyXpXyXyXuXuXuX0 7 5 5 6 8 7 6 5 6 0 vX0 nXnXbXe 1 > : c 6 bXaXq q MXMXq e   4 4 # # 2 # 7 5 5 5 6 bXmXpX",
"yXyXyXyXyXyXuXyXyXyXyXyXyXuXyXvXuX$ 0 7 5 5 # 4 7 bX6 6 7 $ 0 q mXMXq cXcX8 7 pXkXuXq mXMXw q L.w   2 1 2 2 # # 8 bX# 4 5 8 MXpX",
"yXuXyXyXyXyXyXyXyXyX0 0 yXyXyX0 0 nX7 5 5 # # # 7 bX7 8 bXvXyXq q q q L.L.sXz aXyXpXkXL.mXw w mXmX  4 1 2 # 2 # 5 5 2 # 5 bXMXmX",
"yXuXyXyXyX0 0 yXyXyX0 yXyXtXtXyXq q 6 4 5 4 4 # 5 7 6 6 6 bXvX0 MXmXmXmXq yXpXpXuXpXMXmXe q e L.L.cXcX2 2 1 # bX4 # # # 5 bXw L.",
"uXuXyX0 vX0 0 0 0 0 0 0 yXiXuXbX0 5 4 # 4 4 4 2 5 7 6 4 5 bX$ 0 0 0 nXmXmXpXpXuXpXaXpXMXmXe mXq e q   4 1 2 # MX4 4 2 4 5 vXw pX",
"yXyX0 0 $ 0 0 vX$ $ vX0 yX0 0 nXnX5 5 6 # 4 # # 4 vX6 6 6 6 8 $ q MXMXmXMXnXiXiXq q q q w q MXq mXe 4 2 # 1 2 4 # 1 # 4 bXe mXpX",
"$ 0 0 0 0 vX$ $ $ vX0 0 yXyX0 vX8 5 6 8 4 # # # 4 7 7 6 8 8 8 bX0 q q mXq q nX0 0 nXnXq MXmXmXq cXL.2 2 2 2 # 4 2 # # 4 8 e MXmX",
"0 yX0 0 0 vXvXvX0 0 yXyX0 nX0 8 7 6 6 4 # # # # 2 5 6 8 7 8 8 8 $ 0 0 q q q nXnXq 0 vX0 MXq nXe cX4 2 2 2 2 # # 2 2 # # $ MXmXpX",
"yXq 0 0 vX0 0 q nXyXnXnX0 q 8 7 6 8 5 4 4 2 # # 4 # 6 7 7 8 8 7 7 7 8 vXnXnXbXbX0 q q nXnXmXw   5 2 # 2 2 2 2 5 # 4 2 4 7 nXmXkX",
"0 0 vX0 0 0 q q nX0 nXq q q 5 5 5 5 5 5 4 # 2 4 # # 4 6 6 6 7 7 8 7 6 5 5 bXbXvX0 0 0 nXnXq e   2 2 2 2 2 2 # # 2 # # 6 7 8 $ MX",
"0 0 0 0 yXuXMXuXq MXq nXbX6 5 5 5 6 6 5 4 # 2 # # # 5 6 6 6 6 5 5 5 5 5 4 5 7 bX$ $ vX0 q 0 mX6 2 2 2 1 2 # # # 2 # # 6 $ vXbX0 ",
"MXuXyXq uXuXyXq q MXq nX6 5 5 5 5 6 6 5 5 4 # # 4 4 4 5 6 6 6 5 5 5 5 4 4 5 7 $ 0 nXnXnX0 e vXq 5 # 4 2 # # 2 2 1 2 6 nXw q 0 0 ",
"q q MXMXMXpXpXnXq 0 nX8 5 5 4 4 5 5 6 5 5 5 # # 4 4 4 5 5 6 6 6 5 5 5 4 4 5 6 8 bX$ 0 0 0 bX4 4 7 4 4 4 2 2 1 2 # 4 7 mXmXL.mXq ",
"L.mXmXq $ 0 q q nXq 8 5 5 5 4 4 4 5 5 5 5 4 # # 4 4 4 4 4 5 5 5 5 5 5 4 4 5 5 7 8 $ $ vX0 bX6 7 6 4 2 # # 2 2 # 5 w MXw q L.L.w ",
"mXnX0 $ 8 bXq 0 nX$ 7 4 5 5 5 4 4 4 5 5 5 4 4 4 4 4 5 5 4 5 5 5 5 5 5 5 5 5 5 5 6 7 7 8 $ vX0 0 5 4 4 2 # 2 # 4 bX  mXmXL.MXL.mX",
"q $ $ vXvX0 0 nX$ 8 7 6 5 6 5 5 4 4 4 5 5 4 5 4 4 5 5 5 5 4 4 5 6 7 7 6 5 6 5 5 5 5 5 6 bX0 nX7 6 4 4 4 # # # 4 vXw mXmXq q mXq ",
"vXbX8 8 $ vXvX0 $ 8 8 5 5 6 5 5 4 4 4 4 5 4 5 5 5 5 6 6 6 5 5 5 4 5 5 6 7 5 5 5 5 6 6 6 6 cXbX5 4 5 # # 2 # # 5 e MXL.e L.mXMXnX",
"bXbX7 bX0 vX$ $ 7 8 6 5 5 5 5 4 # # 4 4 4 4 5 5 5 6 6 6 7 5 5 5 5 5 4 4 4 4 4 4 4 4 4 4 4 4 # # # 2 1 < 2 2 2 4 e e L.L.q q q 0 ",
"bXbX8 8 8 0 $ $ $ 7 6 5 5 5 4 # # # # 4 4 4 5 5 5 5 6 6 7 6 6 5 5 5 5 4 4 4 # # 2 # 2 2 1 2 2 1 2 2 2 1 1 1 1 5 cXMXw w mXq q 0 ",
"vXvXbX7 8 bX8 8 7 6 6 5 5 5 4 4 4 4 4 4 4 4 5 5 5 5 5 6 6 7 6 6 6 5 5 4 4 # # # 1 1 1 1 1 1 1 1 2 2 2 1 1 # # 5 e w mXL.q nXnX0 ",
"bXbX$ 8 7 8 7 6 6 6 6 5 5 4 4 4 5 5 4 5 4 4 5 5 5 5 5 5 6 6 7 7 7 6 5 5 4 4 # # 1 1 1 1 < 1 1 1 1 1 2 1 1 2 # 4 q cXe w q nXnX0 ",
"8 8 8 7 8 8 7 6 6 7 6 5 6 5 4 5 5 5 4 4 4 5 5 5 5 5 5 5 6 6 6 7 7 6 6 5 5 4 4 # 2 1 1 1 1 1 1 1 1 1 1 1 1 2 # 4 0 w L.e mXnXnXnX",
"5 5 7 8 7 7 6 6 6 6 6 5 5 5 5 5 5 4 # 4 5 5 5 6 5 5 5 5 5 6 6 7 7 7 6 5 5 5 4 4 # 1 < < 1 1 1 1 1 1 1 1 1 1 4 # 6 cXe MXmXnX0 0 ",
"6 6 5 7 8 6 6 6 6 6 6 7 6 5 5 5 4 # # 4 5 5 5 5 5 5 5 5 5 5 6 6 7 7 7 7 6 5 5 4 4 2 1 < 1 < 1 1 1 1 < 1 1 < # # #   cXmXL.nXnXnX",
"6 6 6 7 6 6 6 6 6 6 6 8 7 5 5 6 5 4 4 4 5 5 5 5 5 5 5 5 5 5 6 6 6 7 7 7 7 6 6 5 5 4 2 1 1 < 1 1 1 1 < < 1 1 1 # # nXnXL.mXq nXq ",
"6 5 6 6 6 7 5 6 6 6 5 7 6 6 6 7 6 5 5 4 5 6 6 6 5 5 5 5 4 5 5 5 5 5 6 6 6 6 6 5 5 4 # 1 < < 1 1 < < < < 1 1 2 2 4 cX  w w q nXq ",
"5 6 6 6 5 5 5 6 6 6 6 6 6 6 8 7 7 6 5 5 5 5 7 6 6 5 4 4 5 5 5 6 5 5 5 4 5 4 7 5 5 8 6 # 1 1 1 1 < < < < < 1 1 1 2 8 e mXL.q q nX",
"5 5 6 6 6 5 5 6 6 6 5 5 5 6 7 7 8 6 6 5 5 6 8 8 6 5 5 5 5 6 6 6 6 5 4 # 2 2 2 2 # 4 4 4 2 1 1 1 1 < < < < < 1 1 2 5   L.L.q q nX",
"4 4 5 5 5 6 6 6 6 5 5 5 5 5 6 8 7 6 6 5 6 7 8 8 6 6 6 5 5 5 6 6 6 6 5 # 1 1 < < 1 1 2 4 1 1 1 1 1 1 < < < 1 < 1 1 4   cXL.MXMXnX",
"4 4 5 6 7 6 6 5 5 5 5 5 5 5 5 7 8 8 7 6 7 6 7 7 6 6 6 5 6 5 6 6 5 6 6 # 2 1 1 1 1 1 1 1 1 1 1 1 1 1 < < 1 < < 1 1 # nXcXe w MXnX",
"4 4 5 6 6 6 6 5 4 4 5 5 5 4 5 5 8 bX7 6 6 7 6 5 6 6 6 6 6 6 6 6 5 5 5 4 # 1 1 2 2 2 1 < 1 1 1 1 1 1 < < < < 1 1 2 2 $   w w MXq ",
"4 4 4 5 5 6 5 5 4 # 4 5 5 4 4 4 7 7 6 6 8 7 6 5 6 6 5 5 5 6 6 6 5 5 5 4 # 1 1 2 2 1 1 1 2 1 2 2 2 1 1 1 < 1 1 1 2 # 7 cXw cXw q ",
"5 5 5 6 6 5 5 5 4 # 4 5 5 4 4 5 8 8 6 5 7 7 6 6 6 6 5 4 4 5 5 6 6 5 5 4 # 2 1 2 2 1 1 1 2 2 # # # 2 2 1 1 < < 2 2 # 5 q e cXw MX",
"5 6 6 6 5 5 5 5 5 4 4 5 5 5 4 5 7 7 7 5 7 7 6 6 5 5 5 4 4 5 5 7 6 5 5 # 2 1 1 2 2 2 2 1 # # # 4 4 2 1 1 1 1 1 1 2 # vXq e w w mX",
"5 6 7 6 5 5 5 5 5 5 5 5 6 6 5 5 6 8 7 6 7 6 6 6 6 5 5 4 4 4 5 6 6 6 4 4 # 2 2 2 # # # # # # 4 5 4 4 2 1 1 < 2 1 2 2 8 cXw w w mX",
"5 6 6 5 5 5 5 6 5 5 5 5 5 5 4 5 6 7 8 6 6 5 5 5 5 5 5 4 # # 5 6 6 6 5 4 # # # 4 4 # # # 4 # 4 5 4 5 4 2 1 2 2 1 2 4 8 q e e e w ",
"5 5 6 6 5 6 6 6 6 5 5 5 5 6 5 6 7 6 7 5 4 5 5 5 5 5 4 4 # # 5 5 5 5 4 # # # 4 5 5 5 4 4 4 4 4 5 4 5 5 # 2 < 1 2 2 4 vXq w cXe w ",
"4 5 6 6 6 7 7 6 5 5 5 5 6 5 7 5 6 7 7 7 5 5 5 5 4 5 4 4 # 4 5 5 5 4 # 1 2 # # 4 5 5 5 4 4 4 # 4 # 4 4 # 2 # 1 1 1 # bXq cXe L.mX",
"4 5 5 6 7 7 6 6 5 5 5 5 6 6 6 6 6 4 6 nX5 4 5 5 5 5 # # # 5 6 5 5 4 # 2 # # # 4 5 5 5 5 5 4 4 4 4 4 4 4 4 # 2 1 2 5 bXMXw e L.w ",
"4 4 5 6 6 6 6 6 5 5 6 6 7 7 6 7 5 5 5 6 6 5 5 6 5 4 # 4 4 5 5 6 5 5 # # # # 4 5 5 5 5 5 5 4 4 # 4 4 # 4 # 2 # 2 5 0 w e e L.L.w "
};
