/* XPM */
static char *cauldroninner[] = {
/* columns rows colors chars-per-pixel */
"64 64 44 1 ",
"  c gray17",
". c #2C2C2B",
"X c #2B2B2C",
"o c #2C2B2C",
"O c #2B2C2C",
"+ c gray18",
"@ c #302F2F",
"# c #2F302F",
"$ c #30302F",
"% c #2F2F30",
"& c #302F30",
"* c #2F3030",
"= c #313131",
"- c gray20",
"; c #343433",
": c #343334",
"> c #343434",
", c #383737",
"< c #373837",
"1 c #383837",
"2 c #383738",
"3 c #373838",
"4 c #3A3A3A",
"5 c gray23",
"6 c #3C3C3B",
"7 c #3C3B3C",
"8 c #3B3C3C",
"9 c #3C3C3C",
"0 c #3F3F3F",
"q c #40403F",
"w c #403F40",
"e c #3F4040",
"r c #414141",
"t c #434343",
"y c #444443",
"u c #444344",
"i c #434444",
"p c #444444",
"a c gray28",
"s c #474848",
"d c #4B4B4B",
"f c #4C4C4C",
"g c gray31",
"h c #505050",
/* pixels */
"+++.++++=++@@=+==+===+===+=+++*++o*++++   O    ++   ++++++++++++",
"+==+==+$+++++++==>=>=============@+=++++ +++ .o+ ++ +X+   o+  ++",
"++++=+================++=+==+++@=====&+++ +++++ O+@++ + +++. .++",
" +=++=*==&=====+=====>>=========+=+====&++  +     +++++++O.++O+ ",
"+++#+#++$++&+=======;:=========>*===+=++++#+++ ++++++#++ +      ",
"++++=+&+=====*=*+===>>>>=>=>>>===>======+=+=++=+++++    o+++++++",
"++++++==+========>=>=>=>>>4444>4<>>>>>=====+++@$++++++++++  ++++",
"++@++ ++++====>>>>>>>>>4><>>>44>>>>>==>======++++ +  +++  +  +  ",
"  +++=+==+=&+====>>>>4=>>>>>>>>>4>4>>>>==>;==>==++      ++  +++ ",
"+ ++++&+======>=>>>>2>4>44844444>444,>>4>>>>===>==+++ + + +.  o ",
"+ ++=++==++:===>>>>4>4944>>4444>4424444>>>>>>>=>==+++       O+++",
" ++++==+====>>2>>4>>944494444449>44>34>34>>=>=>====++ + +++     ",
"    +++++=&=>>>>>442<49944999999994444,44>>>>>>=====+ + .O  +   ",
"  +++=++=>=>>>>44>444444444999999948444444144>>>>==++++ +O      ",
"      ++==>>>44434494499999999999999449444,>3>4>>====+ +      + ",
"X++++++:=>>>4;4>4449498r99999r999999999944444>>>>>====+++       ",
"     +++===>>>4>4>4449999rrrr9e9999498994444444>>>>=====++ ++   ",
"   +++==4>>>>4>4999499999r9rrrrrprrrrr9r9444>4>>>>>>=>==++      ",
"    +==>>>>444>4464999rr9rrrrrppruppr999949444,444>4>>==++o     ",
" +  +*===>>>>44499999r9rrrrrrrrrrrr9rr9r99994>4>>>>>==#=++++ . +",
"O  ++++=>>>>>44448999rrrr9rrppppppppprr9r9999994444>>>>==++     ",
"++ ++==:=>>344>999rrrrrrppppprppprrrprrrr99r9994444>>>==+@o     ",
"  ++=>=>>4>4>4479999rrrppppppprpppppprprrprrr9994444>>>==*+     ",
"  ++====>>>>449999rrrrrrpppppffpppdddprrr9r99999444>4>:===+     ",
"   +==>>>>44>99999rrrpprdpppddrpdddpppfpppprr99984>44>>;===+++  ",
" X++=;=>>>4>4499rrrrpppdrdfffpfddppddpppprrirr999r944>=;===++   ",
" +++==>>>>44449r9rrrprprppdppddddpppdpdtdppprr9r992>:>>>=>=== + ",
"++++====>4>;44499rrrrppdffpfdddfddddpdidpprrrrr99944444>>>>=+++ ",
" O+++=>>>4444999rrrrpppppppddffffffffpdpprpr9r9r99844>4>>=>+++ +",
"  ++=+==>>>1499rerrrprpprdddffhhhffdddddpdppdrr99944>4>>>>=$++  ",
"++++==>>>>>447999rrpppfffdffhhffhhfhfdpdppprrr9e994441>:>===++ +",
" +++==>>4484999rrrrrrpppffddfhhhhhhffddddppyrrrr999944>4>>==+.  ",
"+++===>><>4499990ttppptdpdddhhhhhhhfffdddppprrr9rr9r954>>>==++ +",
"++==>>>=>4>499rr0rttppppapddffhhhffffddppppprppr999444,4>=>=+=++",
"+ ++==>44424499r0rtrpdaaadddffhghhfffdffdddpur9rr9r79941>>>=++  ",
"++====>>>>4>44990rppppaaadddfffffhffdddpaprppdppr99449>>>>>>=+++",
"====>>444449999r9rrrtpdadddddddfffddddpdpdrptrrr9r9994>4>4>>==$+",
"  +==>>>4444999rrerrpppapdddddfffddddddppdptrrrr9r9444444>;==+++",
"+++%>==4>49999r9rrrrrpdppapddaddfdddpdppdpadpprrrrr99994>4>>=+++",
"++++==>>4444999rrrrrrtppapdaddpdpdpdddffppappprqr994494>4>>=====",
"===>>>4:4444449989rrrrppdpaadpadddpddpppprpppprrr9999449><>>====",
"====>>>4>44999r99999rtrppppapddpdpdpsdppdrprrr909994944>4>>>===+",
"+++=>>>>4>>3947999rrrrtpppaappapppppppppprprptrrr94444>4>>>==++=",
"====>>>>>44>44449r9r0pprppppapddddppdppdprrr0r909944<441>>>====+",
"=+==>>>44>44999r9q9rrpptpptprppprprprppppprrrrr99r984>4>3>>>==+=",
"+====>>2>44998r999099rrtrrrrrrrrprprppprrrrrr99994>444>,>>=====$",
"++=%>>>>>4444499909r999rr00rrrrrpppipprrr99r99999494>43>>>====+=",
"=>>>>>>>>=<>4448r990rrr909900rrrrrrrrrpprrr99999444>43>>>===>>==",
"==>>=>>>>44474497999r9rrrprprr9r9rrr9r9rr9r9999444><>=>=>=>=====",
"*===@==>>>>24449r9wrrrrrr9r999999999rrrr9949444>4444444>>====&+=",
"%=======>>4244449999999999994699999r99999r999694>4=>>2>>>======+",
">=>=>=======>>444999999r99r99r9999999rr9994444>>4>4>>>>>========",
"+=======>>>14>44444899979999994444444444444444>4>>>>>>=====$==>=",
">=========>>41>444444>44444994944444994>4>1>>>=>>>>=;===>>====;=",
"======&==>>>=>4>>44>>4444>4>49449824>>>44>1>>4>>>====++=*+++++=+",
"+++=========>>=44>2>44>4444944444443444>=;4>3>>>>>==+==+===+==++",
"===++========>>>>>444>44444>>444424>>>>><1>>>>>>>====++==&=+++&=",
"+++===&==;>>==>>>>>>>4<4>,444>4>>>>>>>>>>>>===++++$====@==+=+++ ",
"===>>=====>>>====>=>=+===>>4>>>>===>=>>>=>=====*==++=++=&++$+===",
"======+%====>====>=>>4>>>>>>>2>>4:>>>>=>=>===+++++=+=$@++===++=+",
"+*+++=+=+&+======+*+==*=>>>>>==>>=+=*=+===@+++=+ ++O+++ ++o++&+&",
"++.+*++=====*==========>=>>==============++ ++++++*++++++++ +  +",
"++++=++===+==$===+%+=+==++===++++++++O+Oo++++ + ++++++++ +++++=+",
"++++===>===++#==+=*=>=========&=$+O    +.  +++ +++++ +  +++++   "
};
