/* XPM */
static char * porte_xpm[] = {
"64 64 256 2",
"  	c None",
". 	c #141414",
"+ 	c #1A1919",
"@ 	c #1E1E1E",
"# 	c #201E1C",
"$ 	c #26231F",
"% 	c #2E261E",
"& 	c #34200B",
"* 	c #38220C",
"= 	c #3A240C",
"- 	c #3F280E",
"; 	c #362410",
"> 	c #302418",
", 	c #35291C",
"' 	c #392510",
") 	c #3D2810",
"! 	c #202020",
"~ 	c #222221",
"{ 	c #262626",
"] 	c #282421",
"^ 	c #2B2826",
"/ 	c #282828",
"( 	c #2E2E2E",
"_ 	c #302F2D",
": 	c #382F26",
"< 	c #31302F",
"[ 	c #313131",
"} 	c #3A3632",
"| 	c #3C3A37",
"1 	c #383838",
"2 	c #3E3E3E",
"3 	c #40270D",
"4 	c #41280E",
"5 	c #492C0F",
"6 	c #412910",
"7 	c #402A14",
"8 	c #492D11",
"9 	c #4A2E15",
"0 	c #45321F",
"a 	c #4B3011",
"b 	c #4E3011",
"c 	c #4A341D",
"d 	c #513111",
"e 	c #533414",
"f 	c #583612",
"g 	c #5A3813",
"h 	c #5A3814",
"i 	c #5F3C15",
"j 	c #5B3B1A",
"k 	c #4D3A27",
"l 	c #5D3F20",
"m 	c #603B14",
"n 	c #613C15",
"o 	c #683F16",
"p 	c #4D4134",
"q 	c #49423B",
"r 	c #5B4126",
"s 	c #5C4228",
"t 	c #50463B",
"u 	c #5A4C3D",
"v 	c #664016",
"w 	c #664018",
"x 	c #694016",
"y 	c #6A4118",
"z 	c #714618",
"A 	c #71481E",
"B 	c #75481A",
"C 	c #754B1E",
"D 	c #784A1B",
"E 	c #6B4A26",
"F 	c #664E35",
"G 	c #634C38",
"H 	c #77512B",
"I 	c #7C5226",
"J 	c #7B532A",
"K 	c #7A552F",
"L 	c #705436",
"M 	c #414141",
"N 	c #484440",
"O 	c #484848",
"P 	c #534A40",
"Q 	c #504F4D",
"R 	c #594E42",
"S 	c #53514F",
"T 	c #515151",
"U 	c #565656",
"V 	c #5B5853",
"W 	c #595959",
"X 	c #6D5943",
"Y 	c #705941",
"Z 	c #735F4A",
"` 	c #606060",
" .	c #686868",
"..	c #736A60",
"+.	c #707070",
"@.	c #767676",
"#.	c #787571",
"$.	c #7A7A7A",
"%.	c #826241",
"&.	c #866646",
"*.	c #8B6F50",
"=.	c #83705D",
"-.	c #8B7A68",
";.	c #867C72",
">.	c #937E69",
",.	c #878078",
"'.	c #94897F",
").	c #9F8973",
"!.	c #808080",
"~.	c #8D8680",
"{.	c #888888",
"].	c #9D8F80",
"^.	c #909090",
"/.	c #969696",
"(.	c #989898",
"_.	c #9E9E9E",
":.	c #A19588",
"<.	c #A79F97",
"[.	c #A19F9E",
"}.	c #A5A09B",
"|.	c #A0A0A0",
"1.	c #A8A8A7",
"2.	c #A8A8A8",
"3.	c #BBAEA1",
"4.	c #B9B3AD",
"5.	c #B0B0B0",
"6.	c #B4B3B3",
"7.	c #B6B6B6",
"8.	c #B8B8B8",
"9.	c #C3B9AE",
"0.	c #CBC4BE",
"a.	c #C0C0C0",
"b.	c #C9C7C5",
"c.	c #C8C8C8",
"d.	c #D0D0D0",
"e.	c #D6D6D4",
"f.	c #D6D6D6",
"g.	c #D8D8D8",
"h.	c #DFDFDE",
"i.	c #E0E0E0",
"j.	c #5A2612",
"k.	c #000000",
"l.	c #A972B9",
"m.	c #AA216B",
"n.	c #030744",
"o.	c #000401",
"p.	c #000000",
"q.	c #EA9F48",
"r.	c #000000",
"s.	c #0002B1",
"t.	c #000001",
"u.	c #000000",
"v.	c #0001A6",
"w.	c #000002",
"x.	c #00046C",
"y.	c #000013",
"z.	c #00045C",
"A.	c #000003",
"B.	c #00046C",
"C.	c #000013",
"D.	c #0110C9",
"E.	c #000000",
"F.	c #000000",
"G.	c #000000",
"H.	c #000000",
"I.	c #000000",
"J.	c #000000",
"K.	c #000000",
"L.	c #000000",
"M.	c #0002B1",
"N.	c #000000",
"O.	c #000001",
"P.	c #000000",
"Q.	c #1025CD",
"R.	c #FFF960",
"S.	c #030744",
"T.	c #ED7D95",
"U.	c #18F66C",
"V.	c #532566",
"W.	c #309A98",
"X.	c #000000",
"Y.	c #309CA0",
"Z.	c #000004",
"`.	c #000000",
" +	c #000000",
".+	c #550D49",
"++	c #550E02",
"@+	c #18F601",
"#+	c #030744",
"$+	c #000000",
"%+	c #000000",
"&+	c #18F618",
"*+	c #000005",
"=+	c #000000",
"-+	c #18F644",
";+	c #18F634",
">+	c #000000",
",+	c #000000",
"'+	c #550D49",
")+	c #000001",
"!+	c #18F6C4",
"~+	c #000000",
"{+	c #030774",
"]+	c #070D50",
"^+	c #000112",
"/+	c #000000",
"(+	c #000000",
"_+	c #550D49",
":+	c #000001",
"<+	c #18F6E8",
"[+	c #000000",
"}+	c #000000",
"|+	c #18FB04",
"1+	c #550D49",
"2+	c #BAABCD",
"3+	c #ED7E29",
"4+	c #18F698",
"5+	c #A962FA",
"6+	c #030744",
"7+	c #00000F",
"8+	c #000000",
"9+	c #000000",
"0+	c #550D49",
"a+	c #BAABCD",
"b+	c #000000",
"c+	c #000000",
"d+	c #550D49",
"e+	c #18F6A8",
"f+	c #18F6C4",
"g+	c #B00230",
"h+	c #F58845",
"i+	c #18F710",
"j+	c #A96D91",
"k+	c #A96D51",
"l+	c #ED7F09",
"m+	c #00000F",
"n+	c #550D49",
"o+	c #18F99C",
"p+	c #000024",
"q+	c #000001",
"r+	c #000000",
"s+	c #000000",
"t+	c #000070",
"u+	c #FFFFFF",
"v+	c #FFFFFF",
"w+	c #A96CE9",
"x+	c #A96D91",
"y+	c #FFFFFE",
"z+	c #000001",
"A+	c #000000",
"B+	c #000000",
"C+	c #18F6B4",
"D+	c #030744",
"E+	c #18F96C",
"F+	c #000000",
"G+	c #000000",
"^.$.+.!.|.5.5.5.5.5.5.5.5.5.5.5.5.5.5.5.5.5.5.5.5.5.5.5.5.5.5.5.5.5.5.5.5.5.5.5.5.5.5.5.5.5.5.5.5.5.5.5.5.5.5.5.5.5.5.a.g.c.$./ ",
"8.(.^.|.a.g.g.g.g.g.g.g.g.g.g.g.g.g.g.g.g.g.g.g.g.g.g.g.g.g.g.g.g.g.g.g.g.g.g.g.g.g.g.g.g.g.g.g.g.g.g.g.g.g.g.g.g.d.d.i.c.$./ O ",
"g.c.a.d.g.8.|.^.!.+.$.+.+.+.+.+.+.+.+.+.+.+.+.+.+.+.+.+.+.+.+.+.+.+.+.+.+.+.+.+.+.+.+.+.+.+.+.+.+.+.+.+.+.$.!.(.2.a.g.c.$.[ 1 5.",
"d.i.g.a. .! / T  .$.!.!.!.!.!.!.!.!.!.!.!.!.!.!.!.!.!.!.!.!.!.!.!.!.!.!.!.!.!.!.!.!.!.!.!.!.!.!.!.!.!.!.!.$.W M ! [ ` ` / 1 (.g.",
"2.2.{.1 O d.d.(. .W T W W W W W W W W W W W W W W W W W W W W W W W W W W W W W W W W W W W W W W W W W W  .(.c.g.{.[ / 1 ^.i.5.",
"{.$.O [ g.` ! ! ! ! ! + ! + ! + ! + ! + ! + ! + ! + ! + ! + ! + ! + ! + ! + ! + ! + ! + ! + ! + ! ! + ! + ! ! / (.g.{.T +.8.g.!.",
"{.$.M O g.! m d d a d d d d d d ' & a m g j m d 6 a d d 8 & g D m a d d d g g 6 & 6 D m a 8 8 a d ) & y D g d a 6 a ` 1 O 2.g.{.",
"{.$.1 T d.! A m d a d d d a d d * & a y g g m d 6 8 d g 8 & y D m d j d d m g 6 & 6 D y a 8 8 g f & & y D g d 6 6 d / ! / {.g.!.",
"{.$.1 W d./ y g -.g.5.k a 6 d d & & d y m m m d 6 a d y a & y A m d g d g m f * & 6 D w a 8 8 y w 6 & y D L 5.t 6 d / [ !  .i.{.",
"{.$.1 W g.O m g c.2.O / d 6 a d * & d y m y g d 6 8 d y a * z A m d m y y y g * & 6 D m d 8 a A m 6 & z I 2.` ! 0 d O T / W i.!.",
"{.$.M T g.+.y j O ! O 5.=.8 a d * & d y m m g d a a d y 6 & A D f f m y y y g * & a D y a a a z m 4 & A u / _ !.Z d +.+.[ T g.{.",
"{.!.M O g.~.z m M |.g.a.d 6 a d * & d A g m y g d d f x 4 * z D f d g x y y g * & d D y d a d z g * * A r  .a.4.6 d {.!.M O i.!.",
"{.$.M O g.{.y j m :.=.j a 6 8 d * & a A g m v y m m g v 3 & z D f f m y y A g 8 * d D w d a f z f * * D A f Y 6 a d {.!.M O i.{.",
"{.!.M O i.!.z m m a d d d 6 8 d & & 8 A z m y y w m y m 3 & y A f g y v v z m 8 & g D y d j m y f * & D A d d 6 8 d {.$.M O i.!.",
"{.$.M O g.{.z m m d d d j 6 a d * & 6 m 8 * m z y m y g 6 & y A f m y d g y g a * g D w d m m y f * * D z d d 6 a d {.!.M O g.{.",
"{.!.M O g.~.A m m d d d g 8 8 d * & - 8 8 * 8 g w d y m * & y D f v y d 6 v g a & g D w g w d y d * 3 A z d d 6 a d {.$.M O i.!.",
"{.$.M O g.{.y m m d a j m 8 8 d ' & g d a a * 6 6 * m y 4 * m A g x y a 6 w g d & d D y v a d y d * 4 z z g a a j a {.!.M O i.{.",
"{.!.M O g.{.z m m d 8 m y 8 8 a - * y A d d d d d 4 a 6 8 & m D g y m a 6 m g d & g D y f a a m d * 4 v x A g d y d {.$.M O i.!.",
"{.$.M O g.{.z o j g 8 y y a 8 d ) & z A g f f d f d a 8 * & w A m o m 8 6 d j f & d D z d a 6 d d - 6 x y y m g w g {.!.M O i.{.",
"{.!.M O g.{.y o g g m z y a a d - * A A f m m m m d d 8 3 & m D o m m 8 6 d m g & a A y d a 8 d d * 6 x y v w g w g {.$.M O i.!.",
"{.$.M O g.{.y m m g y z y d d d ) & A A f m d j x m d d * & d D y m m 8 6 6 m g & a D y d d d d d - 4 A A x v g g a {.!.M O i.{.",
"{.,.M O g.{.m y y m y A z d d g - * z D g g a m m y y d ' & m A y d a 6 ) 8 g g & a D y d g g d d * 4 D A m j 8 g d {.$.M O i.!.",
"{.!.1 O g.{.m z z m y A z f d g * * A A g d a a f y y d 4 & y A m d 8 8 6 6 g g & 8 D v g g g d d & - A A g d a g d {.!.M O i.{.",
"{.!.M O g.{.o D A x x A z f d g 4 * A D f d 6 a d m v g d * m D d d 8 8 6 8 f g & 4 A m d v g g g & * D D d d d m d {.$.M O i.!.",
"{.$.M O g.{.y z z m x A A f a m * * y A d d 8 a d f m A *.'.<.0.3.).A A 6 8 a d & - A x A D y g a & * D D d d d d d {.!.M O i.{.",
"{.!.M O g.{.y z y m x z y m d m - & x D f g 8 a m y 0.i.c.(.$.$.{.^.^...v w a d & - A A A y m 4 a 4 * A D a a d a d {.!.M O i.!.",
"{.$.M O i.{.y z m x z z A g g m 6 & y D g f 8 a J d.b.W / +.(.!.O ! 1 O [ g j d * * a d d 3 * - - & & D A d a 8 d d {.$.M O g.{.",
"{.!.M O g.{.y z z A z z z m g m * - A D f f 8 m d.5.| P |         _ ^ / ! | y g & * 4 4 a d d d a & & D z a d 6 g f {.$.M O i.!.",
"{.$.M O i.{.A x D m y A x y m x 6 - z D g d 8 ].[.M _                 $ ^ +.X g & * y g d d a d d 4 & D z a d d w m {.!.M O i.{.",
"{.!.M O i.!.A A x d 4 A m x A m 4 * A A g g d R 1 ^                     [ 2.Z d & * z x f g d d d * * A y a d m m o {.!.M O i.!.",
"{.$.M O i.~.A z 3 * - z d a z x * 4 x D g g d > ] T [                 . O g.r d & - A x x g x g v 4 * z x a d m m w {.!.1 O i.{.",
"{.,.M O i.!.A m * 8 * d 3 * y m 4 4 y D g g d ' 6 O ` <             ! 1 +.0.g d * * A x y a m x x 4 & y g a d j m m {.$.M O i.!.",
"{.!.1 O g.{.y 6 4 a * * * * v d & - w D g g d a * : 1 M $         | 2./ 8.;.a d - - A m a 6 m y m 6 & m g d g g m m {.!.M O g.{.",
"{.!.M O g.{.g * a d 4 * 4 4 6 4 * * m A g j a 8 a * ] / !         5.{.M g.6 a d & * D m d 6 g z m 6 & m g d j a d m {.$.M O i.!.",
"{.$.M O i.{.* & d d 8 * d 8 & 4 * & g D g m a 8 d 4 > ! $         a.M |.c 6 a d & * D A a 8 f y m 6 * y g d g 8 a g {.!.M O g.{.",
"{.!.M O g.{.& 8 d d d d d d * 8 * & f D g g a 8 d d ' M <         5.! '.6 6 a d & * D z d 6 g y m 6 4 y y d 8 8 d g {.$.M O i.!.",
"{.$.M O i.{.6 d d d d g g d d d * & g D g m a 8 m d ' T Q         +.` Z 8 6 a a ' 4 D A d 6 g y x 6 8 y y d d 8 a g {.!.M O i.~.",
"{.!.M O g.{.w g d a g y m g d d * & f D m m a a z f * O S +     M / 8.s a 8 d d 4 * A z d 6 g v y * 5 A v d d a d g {.$.M O i.!.",
"{.$.M O i.{.z y d d g A y g d d - & d D m m a a z f ' [ | N ! ! ! $.i.F a a d d * * A A a 6 m w m * * A m d d a j g {.!.M O g.{.",
"{.!.M O g.~.A A d g g z z g d d & & g D o g j d z g 4 % _ [ } ` 5.i.}.s d m g d * & z z d 6 g m v * & D g d d a g f {.$.M O i.!.",
"{.$.M O g.{.A z d g w z y d d d & & g D v d m f z f 8 p ~.a.g.d.2.+.q j d j g d * & w g d 8 8 o m 4 & A m d d d j f {.!.M O i.{.",
"{.!.M O g.~.A D d g y y x d g g & & d D o g y f z f 8 6 * ' & k 0 , 0 w g m d a * * w g d 8 8 w x 4 * D A d g g g g {.!.M O i.!.",
"{.!.1 O i.{.A z f x z w g g d a & & g D y m m d z d 8 6 8 & * m z d m y g g d 6 * & A m d 6 a m m * * A A d m m m d {.!.1 O g.{.",
"{.!.M O g.{.D A d y z w g g g a - & g D y o m g z f 8 6 d * ' m y m v x w a 8 * & & A y d 8 a m x * * D A d m j d a {.$.M O i.!.",
"{.$.M O g.{.D A g z y m a g d d & & g A v m y g z d a 8 a * & d y d 6 v v d * * & & D x d d d m m * * A A d g g a d {.!.M O g.{.",
"{.!.M O g.{.A z x A g g a g g a ; & d D m m y m z d d 6 a & & - 4 8 6 4 d d 4 a & * A w d g g m x * & v D d d g d g {.$.M O i.!.",
"{.$.M O i.{.D z x z d g d g a a - & g A g x x y z d d 8 d & * * a d d 5 * * a a * & D v d g d d m * * g D d d g m g {.!.M O i.{.",
"{.!.M O g.~.D y y z w m a d 6 a - & d D g y m y z m y d d & & z x d d d 4 d d d & * y v d m j a v * 4 f A g a g y g {.!.M O i.!.",
"{.$.M O i.{.A A x z v y v a 6 a * & d A A A x y y y m j d & & A A g d d d g d d & * D y d w g a g - - d D d d a g m {.!.1 O g.{.",
"{.!.M O g.{.A D x y x y w a 6 a * & a x z y z y g m f g d * & D A g d d d m m a & * D y d w g g g & - d D d a 6 g m {.!.M O i.!.",
"{.$.M O i.{.z D x y x v v a ) a * & a y y 4 g z f m x d d * & D A d d a d v m a * & D y d v g g g & * g D d a 6 d g {.$.M O g.{.",
"{.!.M O g.{.x A m y m v w a ) a & & 4 m d 4 * y x 4 m g d * * D A g a g y m m a & * A v d g m g g & * g D d a 6 d g {.!.M O i.!.",
"{.$.M O i.{.y D l >.>.E m a ) a * & * 4 4 d 4 * * 4 6 x d * & D A g d g A v g 8 * & y m a d d j g * 4 E 9.a.V 6 a g {.!.M O g.{.",
"{.!.M M g.1.z D g.c.+.] y d ) a - & * g d d d d d d * m m * & D z g m g z y g a & * A y a d d v d * 6 %.(.W ! t d g |.{.O O i.!.",
"{.!.O [ a.d.D J {.Q ! !.%.g ) a * & & d d g g a d d 4 - * * & D A g g g y x g a * & D x d d j d d * 8 s ! 1 ^.-.a d a.2.T O g.{.",
"{.!.W ! ^.d.A z ! W 8.g.H g ) a * & & d d g g a d d d a d * * D A g g g g m g d * * A z a a g d d * 4 A #.d.d.G a g g.a.T O i.!.",
"{.{. ./ O !.A D ,.g.}.F y m 6 8 & & & v v v d 6 d d d d d & & D D g m g w g g d * & D D d d y d d * * A D E r a 8 d g.d.T T i.{.",
"{.{.+.O ! ^ A A d d d d m w ) a * & * g y y a 6 d v g d d * * A A f m g m m g d & & z A d a j d d & * m A d a 8 a d c.d.O ` i.!.",
"{.{.!. .1 / ` 8.g.g.a.5.5.5.5.5.5.5.5.5.5.5.5.5.5.5.5.5.5.5.5.5.5.4.5.5.5.5.5.5.5.5.5.5.5.5.5.5.5.5.5.5.8.1.^.{.{.2.d.a./ $.g.{.",
" .` O 1 ! ] O (.c.g.g.g.g.g.g.g.g.g.g.g.g.g.g.g.g.g.g.g.g.g.g.g.g.g.g.g.g.g.g.g.g.g.g.g.g.g.g.g.g.g.g.g.g.g.d.d.g.g.8.O M c.a.` ",
"[ ! / M  . .[ ! 1 T  .+.+.+.+.+.+.+.+.+.+.+.+.+.+.+.+.+.+.+.+.+.+.+.+.+.+.+.+.+.+.+.+.+.+.+.+.+.+.+.+.+.+.+.+. .O / /  .g.5.W ! ",
"! V (.g.g.g.g.c.2.^.{.!.!.!.!.!.!.!.!.!.!.!.!.!.!.!.!.!.!.!.!.!.!.!.!.!.!.!.!.!.!.!.!.!.!.!.!.!.!.!.!.!.!.!.{.(.5.c.g.d.+./ ! + ",
"` a.g.^.M ! [ M O T V W W W W V W W V W W W W W W W T W T W W W W W W W W W W W W W W W W W W W W W V W W V T T O 1 [ ! ! ! ! ! ",
"c.a.O + + $ + $ + ! + $ ! + ! ! + ! ! + ! + ! + + ! + $ ! + ! ! + ! + ! # ! # # # # # # # # # ! + ! ! + ! ! ! + $ ! + ! + $ ! + "};
