/* XPM */
static char *_01[] = {
/* columns rows colors chars-per-pixel */
"64 64 256 2 ",
"   c black",
".  c #0000A8",
"X  c #00A800",
"o  c #00A8A8",
"O  c #A80000",
"+  c #A800A8",
"@  c #A85400",
"#  c gray66",
"$  c gray33",
"%  c #5454FC",
"&  c #54FC54",
"*  c #54FCFC",
"=  c #FC5454",
"-  c #FC54FC",
";  c #FCFC54",
":  c gray99",
">  c #ECECEC",
",  c gainsboro",
"<  c #D0D0D0",
"1  c #C0C0C0",
"2  c #B4B4B4",
"3  c gray66",
"4  c #989898",
"5  c gray55",
"6  c #7C7C7C",
"7  c gray44",
"8  c #646464",
"9  c gray33",
"0  c #484848",
"q  c gray22",
"w  c #2C2C2C",
"e  c #202020",
"r  c #FC0000",
"t  c #EC0000",
"y  c #E00000",
"u  c #D40000",
"i  c #C80000",
"p  c #BC0000",
"a  c #B00000",
"s  c #A40000",
"d  c #980000",
"f  c #880000",
"g  c #7C0000",
"h  c #700000",
"j  c #640000",
"k  c #580000",
"l  c #4C0000",
"z  c #400000",
"x  c #FCD8D8",
"c  c #FCB8B8",
"v  c #FC9C9C",
"b  c #FC7C7C",
"n  c #FC5C5C",
"m  c #FC4040",
"M  c #FC2020",
"N  c #FC0000",
"B  c #FCA85C",
"V  c #FC9840",
"C  c #FC8820",
"Z  c #FC7800",
"A  c #E46C00",
"S  c #CC6000",
"D  c #B45400",
"F  c #9C4C00",
"G  c #FCFCD8",
"H  c #FCFCB8",
"J  c #FCFC9C",
"K  c #FCFC7C",
"L  c #FCF85C",
"P  c #FCF440",
"I  c #FCF420",
"U  c #FCF400",
"Y  c #E4D800",
"T  c #CCC400",
"R  c #B4AC00",
"E  c #9C9C00",
"W  c #848400",
"Q  c #706C00",
"!  c #585400",
"~  c #404000",
"^  c #D0FC5C",
"/  c #C4FC40",
"(  c #B4FC20",
")  c #A0FC00",
"_  c #90E400",
"`  c #80CC00",
"'  c #74B400",
"]  c #609C00",
"[  c #D8FCD8",
"{  c #BCFCB8",
"}  c #9CFC9C",
"|  c #80FC7C",
" . c #60FC5C",
".. c #40FC40",
"X. c #20FC20",
"o. c #00FC00",
"O. c #00FC00",
"+. c #00EC00",
"@. c #00E000",
"#. c #00D400",
"$. c #04C800",
"%. c #04BC00",
"&. c #04B000",
"*. c #04A400",
"=. c #049800",
"-. c #048800",
";. c #047C00",
":. c #047000",
">. c #046400",
",. c #045800",
"<. c #044C00",
"1. c #044000",
"2. c #D8FCFC",
"3. c #B8FCFC",
"4. c #9CFCFC",
"5. c #7CFCF8",
"6. c #5CFCFC",
"7. c #40FCFC",
"8. c #20FCFC",
"9. c #00FCFC",
"0. c #00E4E4",
"q. c #00CCCC",
"w. c #00B4B4",
"e. c #009C9C",
"r. c #008484",
"t. c #007070",
"y. c #005858",
"u. c #004040",
"i. c #5CBCFC",
"p. c #40B0FC",
"a. c #20A8FC",
"s. c #009CFC",
"d. c #008CE4",
"f. c #007CCC",
"g. c #006CB4",
"h. c #005C9C",
"j. c #D8D8FC",
"k. c #B8BCFC",
"l. c #9C9CFC",
"z. c #7C80FC",
"x. c #5C60FC",
"c. c #4040FC",
"v. c #2024FC",
"b. c #0004FC",
"n. c #0000FC",
"m. c #0000EC",
"M. c #0000E0",
"N. c #0000D4",
"B. c #0000C8",
"V. c #0000BC",
"C. c #0000B0",
"Z. c #0000A4",
"A. c #000098",
"S. c #000088",
"D. c #00007C",
"F. c #000070",
"G. c #000064",
"H. c #000058",
"J. c #00004C",
"K. c #000040",
"L. c #282828",
"P. c #FCE034",
"I. c #FCD424",
"U. c #FCCC18",
"Y. c #FCC008",
"T. c #FCB400",
"R. c #003800",
"E. c #002800",
"W. c #9800E4",
"Q. c #8000CC",
"!. c #7400B4",
"~. c #60009C",
"^. c #500084",
"/. c #440070",
"(. c #340058",
"). c #280040",
"_. c #FCD8FC",
"`. c #FCB8FC",
"'. c #FC9CFC",
"]. c #FC7CFC",
"[. c #FC5CFC",
"{. c #FC40FC",
"}. c #FC20FC",
"|. c #FC00FC",
" X c #E000E4",
".X c #C800CC",
"XX c #B400B4",
"oX c #9C009C",
"OX c #840084",
"+X c #6C0070",
"@X c #580058",
"#X c #400040",
"$X c #FCE8DC",
"%X c #FCE0D0",
"&X c #FCD8C4",
"*X c #FCD4BC",
"=X c #FCCCB0",
"-X c #FCC4A4",
";X c #FCBC9C",
":X c #FCB890",
">X c #FCB080",
",X c #FCA470",
"<X c #FC9C60",
"1X c #F0945C",
"2X c #E88C58",
"3X c #DC8854",
"4X c #D08050",
"5X c #C87C4C",
"6X c #BC7848",
"7X c #B47044",
"8X c #A86840",
"9X c #A0643C",
"0X c #9C6038",
"qX c #905C34",
"wX c #885830",
"eX c #80502C",
"rX c #744C28",
"tX c #6C4824",
"yX c #5C4020",
"uX c #543C1C",
"iX c #483818",
"pX c #403018",
"aX c #382C14",
"sX c #28200C",
"dX c #600064",
"fX c #006464",
"gX c #006060",
"hX c #00001C",
"jX c #00002C",
"kX c #302410",
"lX c #480048",
"zX c #500050",
"xX c #000034",
"cX c gray11",
"vX c #4C4C4C",
"bX c gray36",
"nX c gray25",
"mX c gray19",
"MX c #343434",
"NX c #D8F4F4",
"BX c #B8E8E8",
"VX c #9CDCDC",
"CX c #74C8C8",
"ZX c #48C0C0",
"AX c #20B4B4",
"SX c #20B0B0",
"DX c #00A4A4",
"FX c #009898",
"GX c #008C8C",
"HX c #008484",
"JX c #007C7C",
"KX c #007878",
"LX c #007474",
"PX c #007070",
"IX c #006C6C",
"UX c #980088",
/* pixels */
"5 # 4 6 7 5 6 6 bX8 7 7 6 5 6 6 6 6 6 7 6 7 6 4 6 $ 8 bX7 5 7   4 5 6 8 8 bX8 7 7 8 8 8 8 7 7 8 7 6 6 6 7 6 5 6 7 7 7 7 6 7 7   ",
"6 8 vX$ 0 vXbXvXMX$ nX0 0 $ 0 vX$ vX0 0 0 7 8 8 8 L.w L.vX5 8   # # 5 0 w MXw mXmXq MXMXmXmX0 $ 0 nX0 nX0 bX8 8 8 bX$ vXvX$ q   ",
"4 $ 0 $ nXbX7 8 bX8 0 nX0 vXvX0 vX$ 0 $ 7 $ nX8 7 cXL.L.q bXnX  5 bXnXw MXq w mXmXmXMXMXw w nXvX8 $ $ nX$ nXnX$ 7 6 7 8 bXbXnX  ",
"4 7 0 $ vX$ bX8 vX$ 7 vX$ $ 0 vX0 0 nXnXq nXq vX$ 8 L.L.mXnXMX  6 MXw MXmXw w nXnXw w w w nXnXmX0 7 $ $ 0 0 $ 8 bX$ bX8 7 8 q   ",
"5 7 6 $ $ $ 0 nXvX0 7 8 0 $ 0 7 8 $ $ MXw q q 0 0 8 0 mXmXnXq   6 q w q MXq mXq q mXw w mXvX0 L.cXMXbX6 bX8 vXbX$ $ vXvXbX8 nX  ",
"7 0 8 $ vXnXnX0 $ 0 bXbX0 $ $ 8 7 7 5 vXq pXaXmX$ bXbXvX0 vXnX  7 q w q nXq mXw w mXmXw q q nXw e L.0 7 $ 8 8 vXq $ $ vX0 vXq   ",
"7 0 mXnX7 $ vX0 vX$ $ nX0 vX$ 0 nX0 bXbX7 8 $ q q $ $ $ vXbX0   7 q MXw w q q mXmXL.mXmXq MXmXL.w cXq 6 8 $ vXnX0 $ vXvXvX0 q   ",
"7 q q mX$ bXvXnXbX5 # 5 vX$ nX0 0 vX0 vXbXvX$ $ $ $ 0 0 $ bXnX  7 nXq q mXw mXq q w mXw w 0 bXbX0 q q vX$ $ 0 nX$ $ $ $ bX$ MX  ",
"8 L.L.w 8 8 8 5 5 6 6 2 7 w q nXvX0 bXnX0 $ $ $ vX0 q nX$ $ MX  7 nXq q q mXw w MXq q nXmXq 0 MXmXmXmX8 8 q nXnX0 vX$ bX8 vXw   ",
"7 MXL.8 # 8 6 # 7 8 bXq MXnX0 vX0 nX$ bX$ bXnXvX0 q nXnXvXvXmX  7 q q q q mXw w w w mXMXq vXq w L.q nX6 bX0 $ $ $ bX$ $ 0 nXMX  ",
"4 6 nXbXbXnXnX7 7 6 $ e e w mXnXnXnX$ 7 vX6 8 $ 0 $ 7 0 nX0 MX  7 q q q MXw w w w w MXw nX$ w MXw $ 5 0 0 0 0 0 0 $ $ vXmXMXq   ",
"5 w L.nX0 0 nXnXnXMX0 0 L.w L.q nXnX8 vXq vX$ $ 0 0 7 7 vXvXMX  7 MXq w w w w w w q 0 nXnXnXMXMXq q 7 bX0 q nX0 nXq 0 vXmX0 $   ",
"bXq nXnX0 nXnXq q q nX7 8 nX0 w w 0 8 nXnX0 q q nXq nX8 5 5 bX  7 q q mXnX0 bX8 bXnXnXMXMXq L.L.L.vX0 0 vXq nXnX0 q 0 0 bXbX8   ",
"7 bX$ nXq q mXL.w q q q 8 8 vXvX8 8 vXq MXq nXnXq nX0 0 $ 8 0   6 q bXvXnX0 q MXmXMXw w q 0 nXMXnXvXbX$ vXvXvX0 0 vXvXbXbXvX$   ",
"8 0 bX8 0 w L.L.L.mXq w nX$ vX$ 7 $ w MXnXnXq nXvX0 nXq nX0 w   5 8 mXMXmXw w w w w w w w mX0 0 6 5 $ vXnX0 vX0 0 vX$ 7 bX$ MX  ",
"8 $ 7 8 0 q w L.w q q w q 8 bXnXnXmXnXq nXnX0 $ 8 bXnX0 0 0 q   8 $ 8 nXw mXw w w w w MXmXq bX6 < 5 0 bX$ nXnX0 0 0 vX0 bXnXnX  ",
"bXw mXvXbXq q MXmXmXMXmX0 8 $ q MXq 0 0 nX$ 7 8 $ 0 nX0 0 nXmX  7 vXnXbX$ w w w w w w w w mXmXMX4 7 vX$ 8 7 vXvXvXvX0 $ nXw e   ",
"8 w L.vXbXnXmXnXnXnX0 mXnX$ $ 0 nXq 0 nXbX7 bXvXnXq q nX0 0 q   7 MXw MX0 nXMXw w w w w w w w w vXvXMXnXvXvX0 vXvXvX0 vXmXL.e   ",
"8 w L.mX0 0 8 nXmXMXcXcXcXL.w q 0 q 0 7 8 0 q 0 nXw mX0 $ vXq   8 L.w L.L.nXnXMXw L.w L.w w w w w nXw q nX0 bX7 bXnX0 0 w L.e   ",
"bXL.w mX7 $ 0 7 $ L.cXL.w L.MXnXnX0 7 8 nXnXnX0 nXw mXnXnXnXw   8 w L.w w L.q 0 q MXmXw w w w mXmXnXL.mXq 0 $ $ $ 0 nX0 w w e   ",
"bXMX0 0 7 vXq 0 nXq nXw mXq nXbX$ $ $ nX0 0 0 nXq mXw w mXmXw   8 mXmXw w L.w w w q vX0 w L.w w mXnXw L.w 0 0 0 vX$ vX0 L.e cX  ",
"6 nXnXq bX$ q q q $ 6 7 8 8 0 nX0 0 nX0 nX0 0 0 0 w L.w q q w   8 w MXw w w w w w L.nX0 8 bXnXw w q MXL.L.MXnXmXnX0 0 $ 8 7 $   ",
"6 nXbX$ vX$ q q mXmXvXnXnXnX0 0 nX0 0 nXnXnXnXvXMXL.L.mXq q w   8 w w w w w w w w w w q q q vX$ 0 0 8 8 7 8 w w w q nX$ $ $ 0   ",
"6 0 7 8 vXvX0 bX8 q L.L.mXq vXnXq nXvXq nX0 vXvXmXL.w mXq q w   7 mXw w w w w w w w MXw w q mX0 8 0 8 7 6 7 bXL.w w 0 $ vX$ nX  ",
"5 7 6 0 bX$ vXq 0 q MXw nXvXvX0 0 0 0 q nXvXvXvXq w w q q nXMX  8 w L.w w w w w w mXe w e nX8 8 0 nXnX8 vX0 bX8 vXq nX$ 0 bX0   ",
"5 7 8 0 8 L.L.MXq q w L.L.mXnXvX8 $ 0 $ $ $ $ $ vXnXnXnXnX0 q   8 w L.w w w w w w w q L.w 0 nXbXq 0 0 bXnXq vXbX7 5 6 8 6 7 q   ",
"4 8 0 7 nXL.mXnXq nXMXnXMXw q nX5 8 0 $ vX$ $ vX0 nX0 0 0 0 MX  8 w w w w w w mXw mX$ 8 nX8 $ q 0 0 vX0 q nXvX0 nXq nX$ 7 $ nX  ",
"6 $ nXbX$ nXq nXnXq q q 0 0 0 8 7 $ 0 nX0 vXvX0 0 0 0 nX0 vXmX  8 w w w w L.w q MXq mXL.w q 0 nX0 0 vXvXnXnX0 0 nXw MXvX$ 8 L.  ",
"7 vXw $ bX0 nXnXnXnX0 0 vX$ bXbX7 vXvX0 8 $ 0 0 nXnX0 vX$ $ w   8 w w w mXw w w nXL.cXL.L.q $ nXnXvXvX0 q vX$ vX0 w MX$ $ 8 L.  ",
"6 L.nX0 q nXq nX0 vX$ 8 8 8 7 mX$ 6 8 8 6 vXnXnXnXnX0 vX$ 0 L.  8 q mXw MXmXw w mXw w w w q bXvX$ $ $ 0 nX0 bXbXbXnXnXvX$ 7 w   ",
"6 w q 0 MXq q nX0 vX$ bX7 6 $ 0 q 6 $ 0 6 q q q q q 0 vXvX0 mX  7 q mXw w w MXnXw w mXq mXbXbX$ $ $ $ 0 nX0 $ $ vXq nXbX7 7 nX  ",
"6 nXw L.L.w w mXMXq 0 0 vX0 q mXw MXMXe nXnXMXmXL.w mXnXnXq q   bXL.e e e e w e cXmXMXMXq bXq nX0 nXnXq mXq q nXq nX0 vXvX0 vX  ",
"                                                                                                                                ",
"5 7 8 7 6 6 6 6 6 6 6 7 7 7 7 7 8 6 4 6 6 5 5 5 6 7 7 6 7 7 8   8 8 8 8 8 8 8 8 bX8 6 6 7 6 2 1 < 1 2 4 6 6 6 5 5 6 6 6 6 6 7   ",
"6 mX$ $ $ 5 $ vX$ $ nXnXq w w q 0 nXvX6 6 bX$ vX0 0 0 0 nXq L.  8 w L.L.L.w bXq vXbXnXbX$ 8 7 bX6 5 $ 7 7 bX8 $ $ $ $ $ bX0 nX  ",
"bX$ $ 0 0 7 $ $ vXnX0 0 q MXq q q q L.nX5 $ 0 nXq q nXq q mXe   8 L.L.L.L.$ 0 q $ 0 mXw mX0 q 0 q nXvX8 0 vX$ bX$ $ bX$ $ 7 $   ",
"6 0 mXw $ 8 7 0 q q 0 0 vX0 nXnXL.mX8 $ 8 MXL.w MXMXmXMXq q w   bXw q nXnX$ w L.mXw MXq mXnX$ q nXq nX0 mXvXnXvXvX$ $ vXvXvXw   ",
"8 e mXnX$ $ $ 0 nXq nX0 vX$ $ 6 7 nX8 vXnXvXw mXMXmXmXq nXnXq   6 nXq q mXe mXMXw mXMXmXq 0 0 0 nXnXvXq nXq q 0 q 0 $ 0 $ $ e   ",
"bXw nXvXbXvXvX0 nXnX0 0 vX6 4 6 w w L.q q 7 8 mXq $ vX$ vX8 vX  6 nXL.L.L.mXmXq MXw q q nXbXbX0 vXq 0 w mXmXw w w nXvX$ vX$ L.  ",
"8 nXnX0 7 $ 0 nXnX0 nX0 $ 8 0 0 mXw L.0 0 vX8 7 7 8 8 7 7 7 $   6 8 0 q q q MX0 0 q MXnXvX8 8 bX7 $ vXnX0 L.L.L.MXvXvX$ bX$ e   ",
"7 nX0 8 6 bX0 nXnX0 vXvXvX8 8 $ L.nX0 vXvX$ 0 8 $ nX0 $ bXvXmX  6 $ $ 0 nXnXnXvX$ vX$ $ 0 bX7 8 4 8 5 8 8 w L.w 0 $ $ 8 $ MXw   ",
"7 nX$ 7 8 $ bXvXq nXnX0 0 $ 8 vXnXvXnXvX0 $ 0 0 $ vXnXq 0 vXmX  7 vXvX$ $ vX0 nX0 $ bX$ $ 7 7 0 bX7 7 $ 8 w L.mX0 $ 8 vXw w MX  ",
"7 $ $ $ 0 0 bX8 $ vXvX0 nXvX0 0 vX8 nXnXvX$ 0 vXvXnXq q vX0 L.  6 $ vX$ bX8 bX8 $ 0 0 0 vX$ 6 bXbX$ 8 7 $ mXL.q nXvX8 cXL.q w   ",
"7 0 vX0 0 0 0 $ 0 $ vXnXnXnXnXnXL.q 7 bXvXvX0 0 nXw mXnX$ 0 L.  6 $ $ $ $ 8 6 7 $ nXnXq nXbX7 8 bXbX8 8 $ $ nX0 0 0 MXw MXw w   ",
"7 q nX0 vX0 nXnXq 0 q MXnXmXq nXMXw q nX$ vX0 vX0 q nXvX$ nXL.  6 8 bXbX$ $ 7 6 $ nXnXvX0 8 8 8 $ bX$ vXq mXq 8 7 8 0 MXnXnXw   ",
"7 nX0 nXnXnXnXnXnX0 $ nXmXmXq q 0 0 vX0 vXvXvXvXvX0 vXvX0 q MX  5 8 vXvXvXvXbX7 8 8 $ $ $ vX7 $ nX$ bXvXmXw w mXq 0 $ bX$ nXMX  ",
"6 nXMXL.L.mXnXq q 0 $ mXw w mXvX7 $ vX0 0 0 0 $ $ 0 0 vX0 0 nX  5 bXnXnX0 8 bXbX8 $ $ q bXq $ 0 nX0 $ 0 MXL.w q nXnXnX0 nXq q   ",
"7 0 nXw L.mXq q 0 nXnXL.w mXvX0 $ vXbX$ 0 0 0 bX$ vX0 vXvX$ 0   6 $ vX0 vXbXbX$ $ nXvX$ 0 MXbX8 0 q 0 $ nXq w q 0 MXL.nXnXq q   ",
"5 0 0 MXMXq q nX0 nX0 mXe e nXq nX0 nX0 $ 0 0 $ vXnXq q nXbX0   6 vXbX$ $ bX$ $ 8 $ 0 7 $ nXvX$ nXnXnX0 0 nXq w vXbX$ $ 0 0 q   ",
"7 0 7 $ nX0 vXvX0 q nXq 0 5 # 8 vXvX0 bXbX0 0 $ nXL.L.q nX$ 0   5 $ $ $ 8 bX$ $ 8 bX6 8 8 0 0 0 nXq mXq nX0 0 nXnXbX7 $ bXbXnX  ",
"8 mX0 0 nXnXvX0 0 0 nXnX0 0 $ 8 6 8 $ $ 8 0 0 8 nXL.w nXvXvXq   5 bXbX$ bX$ 0 bX$ $ 6 7 bX$ $ 0 nXq mXq 0 nXnXvXvX0 0 q q 8 7   ",
"8 MX0 nXnX0 vXnXq nXvX$ $ bXbX7 8 bX0 0 8 $ vX8 vXL.MXvX$ 0 q   6 $ $ $ $ vXvX8 mX6 vX7 7 8 0 vXvX0 nXnX0 0 0 vX0 $ bX8 5 4 7   ",
"7 mXMXbX0 nX$ $ $ $ $ vXvXbX0 mXnXvXvX0 $ $ bXbX0 w q $ vX0 q   6 vXvXvXvX$ bX8 0 6 0 q vX8 8 vXvXvX0 nXnX0 nXnX6 2 1 1 2 bXq   ",
"5 vXnXnX0 vX$ 0 0 bXvX0 bX8 8 0 w nX$ 0 vX0 vX8 $ w q $ $ 0 q   6 $ $ vX$ vXbXvX$ q nXnX8 6 5 6 $ nX$ vX0 nXq 8 4 2 2 5 8 0 nX  ",
"6 8 $ MXvX$ $ bX0 0 bX8 0 q 0 $ e nX$ nXnX0 0 8 bX0 $ bX$ vXq   6 bX$ 0 $ 0 $ 8 $ vXnXMXw w w w vX8 $ $ vX8 6 $ vXbX$ 0 vX$ q   ",
"6 0 w q 0 nXL.q MXMXbXbXe w 0 bXnXMX$ vX0 vXnX$ 8 bX8 bXvX0 q   6 $ vX0 0 0 nX6 vXq L.L.mXmXL.mX0 q 0 bX6 7 8 $ 0 0 0 $ 0 0 q   ",
"6 nXMXq 8 nXq mXw MXvX8 nXnXvXnX0 vX$ nXnX0 0 vX$ $ bX$ nX0 MX  7 0 vXvX0 nX$ q nXe L.L.w w L.mXvXvXnXmXw q 0 mXnXnXw q 0 vXMX  ",
"6 $ w w $ $ $ nXL.w vX8 8 vXvXvXq 0 8 6 bX0 vXvXvX0 $ 0 nX0 MX  7 0 $ vX0 0 0 vX$ e L.L.L.L.L.mXvXmXmX$ $ $ cXL.w mXq MXnX0 mX  ",
"7 $ 0 nXL.8 $ q L.mXnX$ $ vX$ $ q q q $ $ bX$ $ 0 nXvX0 nX0 q   7 0 $ $ 0 0 nXbX8 0 w L.L.w L.q 0 vX0 q $ mXe L.w mXw mXq 0 q   ",
"6 $ 0 $ $ bXq mXL.w MX$ $ $ 0 $ $ q mXq w q 0 $ nXnXq 0 0 nXMX  7 $ bX$ nXvX$ vXvX$ $ q nXvXnX0 vX$ $ $ bXnXbXq vXvXq q q nXnX  ",
"8 vX8 0 $ q q q mXL.0 vX$ 0 e nX$ 0 mXnXMXw L.q $ q MX0 vX0 q   6 8 bX$ vX$ $ nX8 7 bX0 MXMXL.MX0 8 5 6 8 8 0 vXbXvXnXnXL.L.L.  ",
"bX8 6 5 5 bX0 5 6 q q nX0 0 mXvXbXbX$ 0 $ 0 bXMX0 vX0 vXbXbXmX  7 0 nXvX0 mXmXL.nXnXq mXw L.MXnXnXbX8 vXnX8 6 8 8 q nXvXnXmXcX  ",
"4 8 $ 5 4 5 5 6 L.L.w q q 0 vXbXbXvX$ vXnXnX0 w mXbXbXq nXq e   bXw q nXw mXw q q mXq nXq w mXq 0 8 bXnX0 $ vXq 0 vXvX0 MXmXw   ",
"# 6 7 $ 0 0 q w w e e w MXq 0 0 q nXq q MXMXq w L.nXnXnX0 0 q   8 MXw e L.L.w w L.e e w w w w L.q nXw L.L.vXvXw nXq MXMXw w q   "
};
