/* XPM */
static char *wall3034[] = {
/* columns rows colors chars-per-pixel */
"64 64 16 1 ",
"  c gray19",
". c #282828",
"X c #484848",
"o c gray22",
"O c #343434",
"+ c gray33",
"@ c #646464",
"# c gray36",
"$ c gray25",
"% c gray44",
"& c gray11",
"* c black",
"= c #4C4C4C",
"- c #202020",
"; c #2C2C2C",
": c #7C7C7C",
/* pixels */
"@%@@@@%@@%@%%%@@@%%%%:%%%:@@%%%:%:%%%%@%%:%%%%%@%@@@@@@@%#@@@%@@",
"###@%@##@@@@@%%%%%%%%%@@%@@%@%%%%%%%%%@%%@@@@@@@@@%@@@%%###@####",
"##@@@@@@%@@@%@@@%%@@@@%%%@%%@@%%%%%@%@%%@@@@@@%%@@@@@@@@@@@@##@#",
"+##@@@##@@#@@@@#@@@@%%%@%@%%%@%@#@@%%%%%%%@%@%@##@%@#@@@##@#+###",
"########@@@@@@#@%@@@%#@#%@%%@@#@@@##@%%@%@%@@#@####@@@##########",
"##@#+#@@@@@@@@@%@@#@@#%@%%%#@%%%%@%%%#@#%@@@@@%@@@%%####@##@####",
"+#######@@#@@@%@@@@@@@@%@##@#@#@@@@@@@@@####@###@@##########+###",
"XXXXXXXXXXXXXXXXXXXXXXXXXXXXXXXXXXXXXXXXXXXXXXXXXXXXXXXXXXXXXXXX",
"#########@@@@@@@@@@@@@@@@@@@@@@@@@@@@@@@@@@@@@@@@@@@@###########",
"oo..X..XXoX.XXXXXXXX.XXXXooXXXX..XXXXXXXXXXX..XXXXooXXoX..oXoo..",
" X XX Xoo X XXoXoXXXXXoXXooXXoXoXXXoXoXoXoXXXoXooo  oo X Xoo X X",
".--..-....-....................-.................o.....--....--.",
"%%%%%%%%%%%%%#OOO;OOOOOOOOOOOOOOOOOOOOOOOOOOOOOO#%%%%%%%%%%%%@@@",
"==++=+=++=+++OO###+#######################++#+++@@+++++=+=====++",
"=+++=++=++#++OO++++++#################++++++++++@@++++=++==+=++=",
"X=++=+====+++OO+++++++++++++++++++++++++++++++++@@++++======X===",
"=++==+==+++++OO+++++++++++++++++++++++++++++++++@@++++X=+====+==",
"           ooOO+++++++++++++++++++++++++++++++++@#o             ",
"==+++++++++++;;++++++@@@@+O++@@@@@@@@@@@@+O+++++@+++++++++++====",
"..  . .....  *O++++++@+++O&++@+++++++++++O*++++X@$  ....  ....  ",
".oo.oo    oo *;XXX+++@+++O*++@+++++++++XXO*XXXXX@O..   oo   .oo.",
"  .. ..    . *;XXXXXX@XXXO*XX@XXXXXXXXXXXO*XXXXX#O..    ..    -.",
". .oo.o  .o.o*OXXXXXX@XXX;*XX@XXX;;;;;;;;;*XXXXX#O..  .o.o  . .o",
"... ..  ..   *;XXXXXX#XXX;*XX#XXX;*********XXXXX#O . ....  .... ",
". -. -.      *;XXXXXX#XXX;*XX#XXX;*XXXXXXXXXXXXX#O..  . -.  . --",
". .  .o... .o*;XXXXXX#XXX;*XX#XXX;*XXXXXXXXXXX$$#O.. .. . ... . ",
"..- ..  .... *;$$$$$X#$XXO####XXXX#######O$$$$$$#O.. ....  ...- ",
"....... .  ..*&$$$$$$#$$$$$$$$$$$$$$$$$$$;*$$$$$#O.. . ..... ...",
".-..-.... ...*;$$$$$$#$$$$$$$$$$$$$$$$$$$;*$$$$$#O.... -.....-..",
"......... ...*;$$$$$$#$$$$$$$$$$$$$$$$$$$;*$$$$$#O.... .........",
"..-..-.....- *&$$$$$$O;;;;;;;X$$$;;;;X$$$;*$$$$$#O......-.....-.",
". .  . ... . *;$$$$$$&*******#$$$;***#$$$&*$$$$$+O..... . ... . ",
"..--.--......*;$$$$$$$$$$$$$$#$$$&*$$+$$$&*$$$$O+O......--....--",
"..-..-.......*&OOOOO$$$$$$$$$+$$$&*$$+OOO&*OOOOO+O......-.....-.",
"... .. ... . *;OOOOOO+++++++++OOO&*OO+OOO&*OOOOO+O....... ......",
"..&-.&-....-.*&OOOOOO+OOOOOOOOOOO&*OO+OOO&*OOOOO+O......&-....&-",
".............*&OOOOOO+OOOOOOOOOOO&*OO+OOO&*OOOOO+;..............",
"--..&..-.--..*&OOOOOOXOOOOOOOOOOO&*OO+OOO&*OOOOO+;....--....--..",
"**************&OOOOOOO&&&&&&&&&&&&*OOO&&&&*OOOOO+***************",
"=============O&OOOOOO&*************OO&*****OOOOOXX==============",
" oooXXooXoooo&*OOOOOOOOOOOOOOOOOOOOOOOOOOOOOOOOOXXXoooXXooXo ooo",
"ooooooooooooo*&OOOOOOOOOOOOOOOOOOOOOOOOOOOOOOOOOXX ooXoooooooooo",
"oooooooooXXXX*&OOOOOOOOOOOOOOOOOOOOOOOOOOOOOOOOOXXXXoooooooooooo",
" ooooooooo oo&*OOOOOOOOOOOOOOOOOOOOOOOOOOOOOOOOOXXoooooooooo ooo",
"...........-.*OXXXXXXXXXXXXXXXXXXXXXXXXXXXXXXXXXXO..-...........",
"ooooooooooooooooooXXXXXXXXXXXXXXXXXXXXXXXXXXoooooooooooooooooooo",
"..&&.&&....&........&..........&&...........&&.....-....&&....&&",
"-.-..-...-.-..-.-.....-..--..-.-...-.-.-.-...-.-..--..-.-...-.-.",
"&&&&&&&&&&&&&&&&&&&&&&&&&&&&&&&&&&&&&&&&&&&&&&&&&&&&&&&&&&&&&&&&",
"XXXXXXXXXXXXXXXXXXXXXXXXXXXXXXXXXXXXXXXXXXXXXXXXXXXXXXXXXXXXXXXX",
"oo  o   oooo o oooooooo ooo  ooo o  ooooooo o o o  oo o   o oo  ",
"  o o      ooo oo o  oo o o ooooooo ooooo  ooooooo oo o    .  o ",
"          o  o oooo o   o ooo       ooo o oo         o          ",
"  o   o  oooo oooo  o ooooo ooooooo o   o  ooooooooo       o  o ",
".        o  o o  oooooooo    o   o   oo     o   o               ",
"oo     o  oo             oo oo  o .      o oo  o . .     o  oo  ",
"...   o    ..  o oo   o  o .o      o oo    o      o     o   ... ",
" o     .   o         oo  o  o  o o       o o  o o    .   .   o  ",
"    o ..        o     .   .            oo           . o ..      ",
"        o                      o              o                 ",
". .       .    . .   o    o   o ..     o     o ..   .   .   ... ",
"              .    . . . .    . . ..   .     . ....      .      ",
"    .          o  .  .  oo .   o   oo. . .    o   oo  .         ",
".   ..    .   o          .. . ..        .... ..    .. ..    .   "
};
