/* XPM */
static char *wall3030[] = {
/* columns rows colors chars-per-pixel */
"64 64 13 1 ",
"  c #282828",
". c gray19",
"X c gray22",
"o c #484848",
"O c gray33",
"+ c #646464",
"@ c gray44",
"# c gray36",
"$ c #202020",
"% c #4C4C4C",
"& c gray11",
"* c black",
"= c #7C7C7C",
/* pixels */
"+@++++@++@+@@@+++@@@@=@@@=++@@@=@=@@@@+@@=@@@@@+@+++++++@#+++@++",
"###+@+##+++++@@@@@@@@@++@++@+@@@@@@@@@+@@+++++++++@+++@@###+####",
"##++++++@+++@+++@@++++@@@+@@++@@@@@+@+@@++++++@@++++++++++++##+#",
"O##+++##++#++++#++++@@@+@+@@@+@+#++@@@@@@@+@+@+##+@+#+++##+#O###",
"########++++++#+@+++@#+#@+@@++#+++##+@@+@+@++#+####+++##########",
"##+#O#+++++++++@++#++#@+@@@#+@@@@+@@@#+#@+++++@+++@@####+##+####",
"O#######++#+++@++++++++@+##+#+#+++++++++####+###++##########O###",
"oooooooooooooooooooooooooooooooooooooooooooooooooooooooooooooooo",
"#########++++++++++++++++++++++++++++++++++++++++++++###########",
"XX  o  ooXo oooooooo ooooXXoooo  ooooooooooo  ooooXXooXo  XoXX  ",
".o.oo.oXX.o.ooXoXoooooXooXXooXoXoooXoXoXoXoooXoXXX..XX.o.oXX.o.o",
" $$  $    $                    $                 X     $$    $$ ",
"@@@@@@@@@@@@@@@@@@@@@@@@@@@@@@@@@@@@@@@@@@@@@@@@@@@@@@@@@@@@@+++",
"%%OO%O%OO%OOOO#OOOOOOOO######OO#OOOOO###OOOOOOOO##OOOOO%O%%%%%OO",
"%OOO%OO%OO#OOO##OOOO#O%O#OO#O%O#OO#O#####OOOO#O%OOOOOO%OO%%O%OO%",
"o%OO%O%%%%OOOOOO%OO%OOO##OO##OOOOOOOOOOOO%OO%OOOOOOOOO%%%%%%o%%%",
"%OO%%O%%OOOOOOOOOO%OOO%OOOOOO%O#OOOO#OOO#OO%OOO%OOOOOOo%O%%%%O%%",
"...........XXXXXXXXXXXXXXXXXXXXXXXXXXXXXXXXXXXXXXXX.............",
"%%OOOOOOOOOOOOOOOOOOOOOOOOOOOOOOOOOOOOOOOOOOOOOOOOOOOOOOOOOO%%%%",
"  .. .     ...X  . .X  . ....  X...  X.X  . .X    ..    ..    ..",
" XX XX....XX..XX....XX........XX....XX.XX....XX...  ...XX... XX ",
"..  .  .... .XX..X.X X.X....X.X  .X.XXXXX.X.  ..X.  ....  ....$ ",
" . XX X.. X XX X ..XXX ..  .. X X.. X X X ..X X ..  .. X X.. . X",
"   .  ..  ..... . ... . .... .  X. .  X  . ..  . .. .    ..    .",
" .$ .$ ............ .....  .X..  .X... .....  ....  .. .$ .. .$$",
" . .. X   . XX.X ..X X ..  .. X X.. X X X ..X X ..  .  . .   . .",
"  $.  ..    ..    ..    .  .    ..    .    ..    .  .    ..   $.",
"       . ..   ... . ... .  . ... . ... ... . ... .  . .     .   ",
" $  $    .      .  .  .      .  .  .. .  .  .  .      .$     $  ",
"         .      . .  .. .  . ... . ...  .. .   . .    .         ",
"  $  $     $..$   ..    .  .    ..    .    ..$          $     $ ",
" . .. .   . .. .   . .        . .   . . .   . .        . .   . .",
"  $$ $$          . $   .    .  $$ .  .$   . $$          $$    $$",
"  $  $                         $.    $ $     $          $     $ ",
"   .  .   . .. .   . .        . .   . . .   . .          .      ",
"  &$ &$    $        $          $$           $$          &$    &$",
"                    ..        ..    .. ..                       ",
"$$  &  $ $$    $$    $$      $$    $$   $$    $$      $$    $$  ",
"****************************************************************",
"%%%%%%%%%%%%%OOOOOOOOOOOOOOOOOOOOOOOOOOOOOOOOOOOO%%%%%%%%%%%%%%%",
".XXXooXXoXXXXooXXXXXoooXoXooooooXXXoooooooXoXoX.XXoXXXooXXoX.XXX",
"XXXXXXXXXXXXXXXooooXoXXXoXoooXXXXXXXoooXoXooX.XXXX.XXoXXXXXXXXXX",
"XXXXXXXXXooooXoooXXXoXoooooXoooooooooXXXoXXoooooooooXXXXXXXXXXXX",
".XXXXXXXXX.XXXoXXoooooooXXXXXoXXXoXXXooXXXXXoXXXoXXXXXXXXXXX.XXX",
"           $            $  $                     $  $           ",
"XXXXXXXXXXXXXXXXXXooooooooooooooooooooooooooXXXXXXXXXXXXXXXXXXXX",
"  && &&    &        &          &&           &&     $    &&    &&",
"$ $  $   $ $  $ $     $  $$  $ $   $ $ $ $   $ $  $$  $ $   $ $ ",
"&&&&&&&&&&&&&&&&&&&&&&&&&&&&&&&&&&&&&&&&&&&&&&&&&&&&&&&&&&&&&&&&",
"oooooooooooooooooooooooooooooooooooooooooooooooooooooooooooooooo",
"XX..X...XXXX.X.XXXXXXXX.XXX..XXX.X..XXXXXXX.X.X.X..XX.X...X.XX..",
"..X.X......XXX.XX.X..XX.X.X.XXXXXXX.XXXXX..XXXXXXX.XX.X.... ..X.",
"..........X..X.XXXX.X...X.XXX.......XXX.X.XX.........X..........",
"..X...X..XXXX.XXXX..X.XXXXX.XXXXXXX.X...X..XXXXXXXXX.......X..X.",
" ........X..X.X..XXXXXXXX....X...X...XX.....X...X...............",
"XX.....X..XX.............XX.XX..X. ......X.XX..X. . .....X..XX..",
"   ...X....  ..X.XX...X..X. X......X.XX....X......X.....X...   .",
".X..... ...X.........XX..X..X..X.X.......X.X..X.X.... ... ...X..",
"....X.  ........X..... ... ............XX........... .X.  ......",
"........X......................X..............X.................",
" . ....... .... . ...X....X...X.  .....X.....X.  ... ... ...   .",
".............. .... . . . .... . .  ... ..... .    ...... ......",
".... ..........X.. .. ..XX. ...X...XX . . ....X...XX.. .........",
" ...  .... ...X..........  . .  ........    .  ....  .  .... ..."
};
