/* XPM */
static char *woodlike07[] = {
/* columns rows colors chars-per-pixel */
"64 64 256 2 ",
"   c black",
".  c #0000A8",
"X  c #00A800",
"o  c #00A8A8",
"O  c #A80000",
"+  c #A800A8",
"@  c #A85400",
"#  c gray66",
"$  c gray33",
"%  c #5454FC",
"&  c #54FC54",
"*  c #54FCFC",
"=  c #FC5454",
"-  c #FC54FC",
";  c #FCFC54",
":  c gray99",
">  c #ECECEC",
",  c gainsboro",
"<  c #D0D0D0",
"1  c #C0C0C0",
"2  c #B4B4B4",
"3  c gray66",
"4  c #989898",
"5  c gray55",
"6  c #7C7C7C",
"7  c gray44",
"8  c #646464",
"9  c gray33",
"0  c #484848",
"q  c gray22",
"w  c #2C2C2C",
"e  c #202020",
"r  c #FC0000",
"t  c #EC0000",
"y  c #E00000",
"u  c #D40000",
"i  c #C80000",
"p  c #BC0000",
"a  c #B00000",
"s  c #A40000",
"d  c #980000",
"f  c #880000",
"g  c #7C0000",
"h  c #700000",
"j  c #640000",
"k  c #580000",
"l  c #4C0000",
"z  c #400000",
"x  c #FCD8D8",
"c  c #FCB8B8",
"v  c #FC9C9C",
"b  c #FC7C7C",
"n  c #FC5C5C",
"m  c #FC4040",
"M  c #FC2020",
"N  c #FC0000",
"B  c #FCA85C",
"V  c #FC9840",
"C  c #FC8820",
"Z  c #FC7800",
"A  c #E46C00",
"S  c #CC6000",
"D  c #B45400",
"F  c #9C4C00",
"G  c #FCFCD8",
"H  c #FCFCB8",
"J  c #FCFC9C",
"K  c #FCFC7C",
"L  c #FCF85C",
"P  c #FCF440",
"I  c #FCF420",
"U  c #FCF400",
"Y  c #E4D800",
"T  c #CCC400",
"R  c #B4AC00",
"E  c #9C9C00",
"W  c #848400",
"Q  c #706C00",
"!  c #585400",
"~  c #404000",
"^  c #D0FC5C",
"/  c #C4FC40",
"(  c #B4FC20",
")  c #A0FC00",
"_  c #90E400",
"`  c #80CC00",
"'  c #74B400",
"]  c #609C00",
"[  c #D8FCD8",
"{  c #BCFCB8",
"}  c #9CFC9C",
"|  c #80FC7C",
" . c #60FC5C",
".. c #40FC40",
"X. c #20FC20",
"o. c #00FC00",
"O. c #00FC00",
"+. c #00EC00",
"@. c #00E000",
"#. c #00D400",
"$. c #04C800",
"%. c #04BC00",
"&. c #04B000",
"*. c #04A400",
"=. c #049800",
"-. c #048800",
";. c #047C00",
":. c #047000",
">. c #046400",
",. c #045800",
"<. c #044C00",
"1. c #044000",
"2. c #D8FCFC",
"3. c #B8FCFC",
"4. c #9CFCFC",
"5. c #7CFCF8",
"6. c #5CFCFC",
"7. c #40FCFC",
"8. c #20FCFC",
"9. c #00FCFC",
"0. c #00E4E4",
"q. c #00CCCC",
"w. c #00B4B4",
"e. c #009C9C",
"r. c #008484",
"t. c #007070",
"y. c #005858",
"u. c #004040",
"i. c #5CBCFC",
"p. c #40B0FC",
"a. c #20A8FC",
"s. c #009CFC",
"d. c #008CE4",
"f. c #007CCC",
"g. c #006CB4",
"h. c #005C9C",
"j. c #D8D8FC",
"k. c #B8BCFC",
"l. c #9C9CFC",
"z. c #7C80FC",
"x. c #5C60FC",
"c. c #4040FC",
"v. c #2024FC",
"b. c #0004FC",
"n. c #0000FC",
"m. c #0000EC",
"M. c #0000E0",
"N. c #0000D4",
"B. c #0000C8",
"V. c #0000BC",
"C. c #0000B0",
"Z. c #0000A4",
"A. c #000098",
"S. c #000088",
"D. c #00007C",
"F. c #000070",
"G. c #000064",
"H. c #000058",
"J. c #00004C",
"K. c #000040",
"L. c #282828",
"P. c #FCE034",
"I. c #FCD424",
"U. c #FCCC18",
"Y. c #FCC008",
"T. c #FCB400",
"R. c #003800",
"E. c #002800",
"W. c #9800E4",
"Q. c #8000CC",
"!. c #7400B4",
"~. c #60009C",
"^. c #500084",
"/. c #440070",
"(. c #340058",
"). c #280040",
"_. c #FCD8FC",
"`. c #FCB8FC",
"'. c #FC9CFC",
"]. c #FC7CFC",
"[. c #FC5CFC",
"{. c #FC40FC",
"}. c #FC20FC",
"|. c #FC00FC",
" X c #E000E4",
".X c #C800CC",
"XX c #B400B4",
"oX c #9C009C",
"OX c #840084",
"+X c #6C0070",
"@X c #580058",
"#X c #400040",
"$X c #FCE8DC",
"%X c #FCE0D0",
"&X c #FCD8C4",
"*X c #FCD4BC",
"=X c #FCCCB0",
"-X c #FCC4A4",
";X c #FCBC9C",
":X c #FCB890",
">X c #FCB080",
",X c #FCA470",
"<X c #FC9C60",
"1X c #F0945C",
"2X c #E88C58",
"3X c #DC8854",
"4X c #D08050",
"5X c #C87C4C",
"6X c #BC7848",
"7X c #B47044",
"8X c #A86840",
"9X c #A0643C",
"0X c #9C6038",
"qX c #905C34",
"wX c #885830",
"eX c #80502C",
"rX c #744C28",
"tX c #6C4824",
"yX c #5C4020",
"uX c #543C1C",
"iX c #483818",
"pX c #403018",
"aX c #382C14",
"sX c #28200C",
"dX c #600064",
"fX c #006464",
"gX c #006060",
"hX c #00001C",
"jX c #00002C",
"kX c #302410",
"lX c #480048",
"zX c #500050",
"xX c #000034",
"cX c gray11",
"vX c #4C4C4C",
"bX c gray36",
"nX c gray25",
"mX c gray19",
"MX c #343434",
"NX c #D8F4F4",
"BX c #B8E8E8",
"VX c #9CDCDC",
"CX c #74C8C8",
"ZX c #48C0C0",
"AX c #20B4B4",
"SX c #20B0B0",
"DX c #00A4A4",
"FX c #009898",
"GX c #008C8C",
"HX c #008484",
"JX c #007C7C",
"KX c #007878",
"LX c #007474",
"PX c #007070",
"IX c #006C6C",
"UX c #980088",
/* pixels */
"# 2 2 1 1 1 1 1 1 1 2 2 2 1 1 2 2 2 2 1 2 1 1 1 2 2 2 2 2 2 2 2 2 2 1 1 1 1 2 2 2 2 2 2 2 2 2 2 2 2 1 1 1 1 1 1 1 2 1 1 1 2 2 # ",
"$ bX7 7 7 7 7 7 7 7 7 8 7 7 7 6 7 7 7 6 7 8 8 7 7 7 7 6 6 6 6 6 6 6 5 5 7 7 6 7 7 7 7 7 bX8 $ vX$ $ bXbXbX7 8 7 7 7 8 6 6 7 $ 0 ",
"8 8 bX$ vXvX$ $ 8 bX8 7 7 7 7 6 6 6 6 6 5 6 6 $ bX$ bX8 $ 8 bX7 7 7 7 6 8 8 7 7 7 7 6 6 7 7 7 7 $ 7 8 7 7 bX8 8 8 8 7 7 7 bXbX$ ",
"6 7 8 bXbXbX$ vX$ vXbX7 7 7 7 6 6 5 6 6 7 6 5 6 7 7 6 7 7 8 8 7 8 8 8 8 vX0 0 $ 8 8 7 7 6 7 6 7 6 5 6 7 6 6 6 6 6 6 6 7 5 7 7 7 ",
"7 7 6 7 7 7 7 8 $ bX$ bXvX8 bX8 7 7 6 6 6 6 6 5 5 6 5 6 5 6 7 6 7 6 7 7 7 7 $ bX$ $ 8 7 7 8 8 6 6 6 6 8 7 7 8 7 6 5 6 6 5 6 6 7 ",
"7 7 7 7 8 8 8 7 8 7 7 7 7 7 8 7 7 8 7 7 7 6 6 6 5 5 5 5 6 6 7 bXbX8 8 7 8 7 7 7 7 6 6 6 6 7 8 7 7 7 6 7 7 8 7 7 7 7 7 7 7 6 6 6 ",
"7 7 6 6 6 8 8 7 8 7 8 7 8 8 bXbXbXbX8 8 bX8 8 6 6 Q E T T T T R E R T T T T T Q iX7 6 6 6 7 7 7 6 8 8 7 8 bX8 8 bX7 7 7 7 8 7 7 ",
"nXq q q nXnXq MXMXq MXMXmXMXmXmXL.MXMXMXmXpXR E E Q W R T T W Q Q W W Y Y Y Y R E E pXmXmXMXMXMXq q q MXw MXL.MXq mXMXq q MXq nX",
"                                      $ vXQ W R W Q Q Q E Q ~ ~ W Y E E T T Q Q E W W Q 8                                       ",
"yXrXrXyXyXuXtXrXrXeXqX  pXrXtXrXeXrXyXQ W E E E W E R ~ ~ ~ Q sXQ U U E E R Q W Q T R W W W 8 yXrXwX  iXtXyXtXtXyXyXyXrXwXeXwX  ",
"uXrXrXtXtXyXyXrXeXeXqX  iXtXeXeXtXtX! W E Q E T T E ~ Q W ~ E R Y U U E W Q T R R Y U T R W ! yXyXeX  pXyXyXtXtXyXyXtXeXeXeXwX  ",
"uXtXrXtXwXtXtXrXrXeX0X  uXrXyX! uX! ! Q Q Q W W R R ~ ~ ~ ! Q U U U U E Q Q E T R W T R R Q Q Q pXyX  pXtXyXtXtXtXtXtXrXeXrXwX  ",
"iXrXtXrXeXtXtXeXrXeX0X  uX! Q R T T Y Y Y Y U Y W ! R R ~ Q Q Y U U U W ! T W E W E R E E E E W Q Q ~ kXtXyXtXrXtXrXtXrXeXrXwX  ",
"uXrXtXeXeXtXrXeXrXeX0X  iXT Y T T Y Y U U U U U Y Q W W ~ ! ! R E T R T ! W E W U U U U U U Y Y T T R E ! yXtXeXrXrXtXeXeXrXwX  ",
"iXtXrXrXrXyXtXeXrXrXqX  Q U T ! ~ Q Q ! Q Q E U Y ! E ! ~ ~ Q ! aX! ! W ~ Q ! R Y E ! Q W E ! Q W Q T U R iXuXrXeXtXtXeXeXeXwX  ",
"uXrXrXrXtXtXtXeXeXrXqX  E U W ! Q R T Y T E ~ E U E ~   sXQ E Q E Q E ! ! ! Q Y R ~ W Y Y Y ~ E T ~ ! Y Y Q pXtXrXrXtXeXeXeXwX  ",
"yXrXtXeXrXtXrXeXeXeXqX  W Y W R E ! E R W R Q Q U E !   ! Q ! Q W Q ! E Y kXQ R E W Q W E W ! E W W ! E U W kXtXrXtXtXeXrXtXwX  ",
"yXrXrXeXrXyXrXrXeXeXqXvXW Y W Y T ! E R R T W Q T Y sXsXE W ! W sXW sXW R ! R R aXE Y R R Q R R R Y E R Y Q kXtXeXtXrXqXeXeXwX  ",
"uXtXyXrXtXyXtXeXqXeXqXE W Y E Y U E Q Q W W E Q Q U Q sX! Q ! Q ! W ! ~ Q T Q W ~ ! R T T Q T U U U E R Y Q kXyXrXtXrXeXeXwXwX  ",
"uXtXtXrXtXtXtXeXwXeXpXE W Y W Q E Q kX~ R T W W W Q Q Q ! sXQ kXQ ! ! R Q T Q W E E W ! Q R R W W Y R T Y Q q uXtXyXtXeXeXeXwX  ",
"yXtXrXrXrXrXrXeXeXeXE W W Y Q ~ R R W ! W Q W Y E ! Q ! Q ~ Q ~ Q Q ~ W Q Q R E Q T Y W Q Y U R R W ~ R Y W Q aXyXyXtXwXwXeXwX  ",
"yXyXrXrXrXtXrXrXeXtXW R Q T W T U E Q Q ! Q Y R W Y R sX! T ~ ~ Q W W sXE ! Q R W W W W Q Q E Y U T ~ E T Q W kXuXtXeXeXeXtXqX  ",
"uXyXeXrXeXtXrXeXeXQ W Q Q R W R Q ! W R Q ! Q ! T U U ~ ~ T ~ ! Q ~ W ! E Q T Y T ! kX! E R Q Q E Y R E R ! W 7 iXtXrXeXeXtXeX  ",
"uXyXeXeXrXtXrXrXeXW E W W R Q ! R T R Q W W aX! E E T Y E ~ W Q Q ! ! R ! Q Y E E ! Q E Q E T T Q R R E E ! W E aXuXtXeXeXrXeX  ",
"uXtXrXeXtXtXeXrXiXE Q ! W R W R Y R Q E R Q R R Q ~ R Y E ~ E E ! ! ~ E ~ ~ Y Q aXW ! W R Q Q R W R W W R Q E E kXiXtXqXqXrXeX  ",
"uXtXtXeXeXrXwXeXW W W W W T E E W W T T W Q R W Q T T sX! Y Q ! ~ Q ! ! ~ ! W R Q R E ! E T Q sXaXR E E R Q W W kXiXtXeXeXeXeX  ",
"yXtXtXrXrXtXrXrXW W E Q Q Y W ~ W E Q Q W T R Q Q T T E E T ~ ~ Q Q W Q Q R Q R E W Y R Q W Q Q Q E W E T Q E W kXiXtXwXeXrXwX  ",
"yXyXrXrXrXrXeXrXW E Q ! W Y ! W W ! ! R Y Y E Q R T U U T aXE R W ! Q E W R E T Y W T Y Q ~ ! W ! Q ~ E T Q W E sXuXyXeXeXrXqX  ",
"uXyXeXeXrXeXeXrXiXW ! Q W Q aXT E E E E W E W E T E T U R ! E ! W R ! ! ! R W T U ! Q E E ! E R Q E Q Q Y W Q W sXuXyXeXeXtXwX  ",
"yXyXrXeXtXeXeXeXQ Q W R ! W W Y E E Y Q Q W Q T R W R U R Q ~ ~ W Q E ! ~ R Q ! W W Q W T Q R T W T R ~ W W ! ! sXuXyXeXeXtXqX  ",
"uXtXrXwXtXeXeXeXQ ! E R W Y E Y E E U W E R Q Q Q ~ uX! ! ! W U Y ! ! ! ! ! ~ aXE R Q E T Q R T W T R E E ~ Q W sXiXyXeXeXtXwX  ",
"yXtXtXwXtXeXrXrXpXQ Q E E Y W Y R R U W E Y E Q T Q e sXW E ! R U Q R Y R aXmXpXR R Q E T Q T Y W T R R Y W E ! sXpXyXrXrXtXwX  ",
"yXtXrXeXrXrXrXrXyXQ ! ! W T W T E R U E E Y E W Y Q sXW U U T aXQ R Y Y T iXq aXE R Q R Y Q T U E T R E Y W Q Q sXiXrXeXeXrXwX  ",
"uXtXrXwXrXrXrXrXtXW Q Q W T W T E R U E R U E W U W sXR Y U T aXcXR U Y Y E mXpXR T Q R U W Y U E T R E T W R Q sXiXrXeXrXrXwX  ",
"uXrXeXeXtXrXeXtXeX! Q W W R Q R E E U E R U R W U W ! R Y Y ! MXmX~ T T E E iXpXR Y Q T U W Y U W R E W R W W ! sXiXtXrXeXrXqX  ",
"uXrXeXrXtXtXrXtXrXq W W W R Q R W E U E R U R E Y Q W W E Y Q q q q ! W ~ iX~ kXT Y W T U W Y Y W R E W R W R sXsXiXtXrXeXrXwX  ",
"uXrXrXtXeXtXtXtXrXq ~ ! W R Q E W E Y W R U R E Y ~ kXQ Q W ! q q nXq ! R nXq pXY U W T U W T Y W E E W R W E sXaXyXtXrXrXrXqX  ",
"uXtXrXtXrXrXtXtXrXtX~ ~ W T Q E W W Y W E Y E E U W kXE iXmXmXq nXnXw E U iXq uXY U W T U Q R T W E W W T W Q sXuXtXtXrXrXrXqX  ",
"iXyXrXtXyXtXtXtXtXtX~ ~ W Y W R W W T W E Y E E U Q W E kXq nXnXnXpX~ Q Q kX~ ! Y U W R U Q R R Q E W E T W ! kXuXtXtXrXrXrXwX  ",
"uXyXtXtXyXtXtXtXyXtXmX! E Y W T E W T Q W T E Q W E R ! uXnXnXnXnXiXR T Q T W ~ Y U W R Y Q E R Q R E E T W sXaXyXtXyXrXrXtXwX  ",
"iXuXyXtXyXyXtXtXyXtXrX! E Y W T E E Y W W E Q cXaX! uXq nXnXnXnXnXnXiXuX0 Q W q Q E Q R T Q E R Q R E E Y W sXiXtXtXtXeXrXtXqX  ",
"iXuXyXrXtXyXtXtXtXtXwX  E Y W T R R Y W ! Q Q Q Q R nXnXnXnXnX0 0 0 0 0 0 nXuXQ Q ! ! W E Q R T E T E R U W sXyXtXtXyXtXtXtXqX  ",
"pXuXyXrXtXyXtXyXtXrXqX  W Y E Y T T U E Q Q E R ! iXq tXnXnX0 0 0 0 nXyXR T T R ! Q W W Q ~ T Y E Y E R U W kXyXtXyXyXrXrXtXwX  ",
"pXuXtXrXtXuXyXtXrXrXqX  Q Y E Y T E R W E R E E E W W W T R R R yXT T T T T W E T W R W W ! Y U R Y R R Y Q kXyXyXyXyXrXrXtXwX  ",
"uXuXtXeXyXyXyXyXrXtXwX  W T W T R ~ Q Q E E T T E E Y Q E R T W Y Y Y Y Y W E R Q T W Q W Q E W W U R R T Q kXyXyXyXuXeXrXtXqX  ",
"iXyXyXtXyXyXyXyXrXtXqX  W T Q ~ Q Q ! W E W R E T E R W Q R W T T T T T T W R R E E E Q W W ! ! ! T W W T W kXyXyXyXyXrXtXtXwX  ",
"iXtXyXyXyXyXyXrXeXtXwX  ! E ~ sXsX! ! ! Q R W W E T T W Q R W R R R R R R W T R Q E E R E ! W W ~ kXsXW T Q sXiXyXyXtXrXtXtXwX  ",
"iXrXyXyXyXyXyXrXeXrXwX  kX~ sXaXiXpX~ ~ ! ! ! W W R W W Q W E E E E E E E Q W W E T ! ! Q ! ! ~ sXkX  ! Q ~ sXiXtXtXrXrXtXyXwX  ",
"iXtXyXuXyXuXtXrXrXtXeX  aXaXaXpXuXuXpX! ~ Q ~ W ! ! ! ! Q W E E E E E E E ! ~ Q ! ! ! Q ! ! sXsXaXuX  aXaXkXkXyXtXtXtXyXtXtXwX  ",
"uXtXyXyXyXuXtXrXtXyXrX  pXyXuXyXtXyXyXuXaX! ~ ! W ~ ! ~ ! W W W W W W W W ! ! ~ ~ ~ ~ ! ~ sXkXiXyXtX  pXuXiXiXtXtXtXtXtXtXrXqX  ",
"uXtXyXyXyXuXtXrXtXyXwX  iXtXyXrXrXtXyXtXuXiX~ ! ! ! ! ~ ! Q W W W W W W Q ! ~ ~ ! ~ ~ sXsXpXuXtXrXrX  uXtXtXyXrXtXtXtXtXtXrXwX  ",
"iXtXyXrXuXiXtXeXrXyXwX  iXtXyXrXrXtXuXtXtXtXuXiX~ ~ ~ ! ! ! ! ! ! ! ! ! ! ! ~ ~ ~ sXsXkXuXyXtXtXrXrX  uXtXtXtXtXyXyXyXrXrXrXeX  ",
"iXyXrXeXuXiXtXrXrXyXeX  uXtXyXrXrXtXyXtXtXyXyXtX  sXsXkX~ ~ ~ ~ ~ ~ ~ ~ ~   sXkXkXaXiXuXtXrXtXyXtXrX  iXrXtXyXtXyXtXtXeXrXtXeX  ",
"uXtXtXrXyXyXrXeXyXtXeX  uXtXyXtXrXtXuXtXtXyXyXrX  aXuXtXuXpXkXkXkXkXkXaXpX  aXyXyXyXtXtXrXrXtXtXtXeX  pXtXyXyXtXyXtXtXeXtXrXwX  ",
"uXtXtXtXyXuXtXeXtXtXwX  uXtXuXyXtXtXuXtXtXtXyXrX  pXtXeXtXtXyXyXuXuXyXtXtX  uXrXrXrXrXrXtXrXtXtXeXwX  pXtXtXyXtXyXtXtXrXrXrXwX  ",
"                                                                                                                                ",
"# 2 2 1 1 1 1 1 1 1 2 2 2 1 1 2 2 2 2 1 2 1 1 1 2 2 2 2 2 2 2 2 2 2 1 1 1 1 2 2 2 2 2 2 2 2 2 2 2 2 1 1 1 1 1 1 1 2 1 1 1 2 2 # ",
"$ bX7 7 7 7 7 7 7 7 7 8 7 7 7 6 7 7 7 6 7 8 8 7 7 7 7 6 6 6 6 6 6 6 5 5 7 7 6 7 7 7 7 7 bX8 bXvX$ $ bXbX8 7 8 7 7 7 8 6 6 6 $ 0 ",
"8 8 bX$ $ vXbX$ 7 bX8 7 7 7 7 6 6 6 7 6 5 6 7 $ bX$ bX8 $ bXbX7 7 7 7 6 8 8 7 7 7 7 6 5 7 7 7 7 $ 7 8 8 7 bX8 8 8 bX7 7 7 bXbX$ ",
"7 7 $ $ bX$ $ 0 $ $ 8 7 7 7 6 6 6 5 6 6 7 6 5 7 8 7 7 7 7 8 8 7 8 8 8 8 0 0 vX$ 8 8 7 6 6 7 6 7 6 6 6 7 6 6 6 7 6 6 6 7 5 7 7 7 ",
"7 7 6 7 7 7 7 8 bX$ $ bX$ 8 bX8 7 7 6 6 6 6 6 5 5 5 5 6 6 6 7 6 7 7 7 7 6 8 $ $ vXvX8 8 7 8 8 6 5 5 6 8 7 7 8 7 6 5 6 6 5 6 6 7 ",
"7 8 7 7 8 8 8 7 8 7 7 7 8 7 8 7 7 8 7 7 6 6 5 6 5 5 5 5 6 6 7 bX8 8 7 8 8 7 7 7 6 7 7 6 6 8 8 7 7 6 6 7 7 8 7 8 7 7 7 6 6 6 6 6 ",
"7 7 6 7 7 8 8 7 8 7 8 7 7 7 bXbXbXbX7 8 8 8 8 6 6 7 6 6 6 6 6 7 7 8 bX7 7 7 7 6 6 6 6 5 6 7 7 7 6 8 7 8 8 bX7 8 bX7 7 8 7 8 7 7 ",
"q q q q nXnXq MXMXq MXMXmXMXmXmXL.MXMXMXmXMXmXMXMXMXmXmXmXmXMXq nXnXnXnXnXq q q q q q q q q MXq q MXMXMXmXMXw MXMXmXMXq q q q nX"
};
