/* XPM */
static char *_[] = {
/* columns rows colors chars-per-pixel */
"35 75 7 1 ",
"  c #0000A4",
". c #4040FC",
"X c #5C60FC",
"o c #7C80FC",
"O c #9C9CFC",
"+ c #B8BCFC",
"@ c #D8D8FC",
/* pixels */
"                                   ",
"                                   ",
"                                   ",
"                                   ",
"                                   ",
"                                   ",
"              XXXXX+++++           ",
"              XXXXX+++++           ",
"              XXXXX+++++           ",
"              XXXXX+++++           ",
"              XXXXX+++++           ",
"          XXXX+++++@@@@@+++        ",
"          XXXX+++++@@@@@+++        ",
"          XXXX+++++@@@@@+++        ",
"          XXXX+++++@@@@@+++        ",
"     XXXXX++++@@@@@@@@@@@@@+++++   ",
"     XXXXX++++@@@@@@@@@@@@@+++++   ",
"     XXXXX++++@@@@@@@@@@@@@+++++   ",
"     XXXXX++++@@@@@@@@@@@@@+++++   ",
"     XXXXX++++@@@@@@@@@@@@@+++++   ",
"     XXXXX++++@@@@@@@@@@@@@+++++   ",
"     +++++@@@@@@@@@ooooo@@@@@@@@+++",
"     +++++@@@@@@@@@ooooo@@@@@@@@+++",
"     +++++@@@@@@@@@ooooo@@@@@@@@+++",
"     +++++@@@@@@@@@ooooo@@@@@@@@+++",
"     +++++@@@@@@@@@ooooo@@@@@@@@+++",
"     @@@@@@@@@@@@@@XXXXX@@@@@@@@@@@",
"     @@@@@@@@@@@@@@XXXXX@@@@@@@@@@@",
"     @@@@@@@@@@@@@@XXXXX@@@@@@@@@@@",
"     @@@@@@@@@@@@@@     @@@@@@@@@@@",
"     @@@@@@@@@@@@@@     @@@@@@@@@@@",
"     @@@@@@@@@@@@@@     @@@@@@@@@@@",
"     @@@@@@@@@@@@@@     @@@@@@@@@@@",
"     @@@@@@@@@@@@@@     @@@@@@@@@@@",
"     @@@@@@@@@@@@@@     @@@@@@@@@@@",
"     @@@@@@@@@@@@@@     @@@@@@@@@@@",
"     @@@@@@@@@@@@@@     @@@@@@@@@@@",
"     @@@@@@@@@@@@@@     @@@@@@@@@@@",
"     @@@@@@@@@@@@@@     @@@@@@@@@@@",
"     @@@@@@@@@@@@@@     @@@@@@@@@@@",
"     @@@@@@@@@@@@@@     @@@@@@@@@@@",
"     @@@@@@@@@@@@@@     @@@@@@@@@@@",
"     @@@@@@@@@@@@@@     @@@@@@@@@@@",
"     @@@@@@@@@@@@@@     @@@@@@@@@@@",
"     @@@@@@@@@@@@@@     @@@@@@@@@@@",
"     @@@@@@@@@@@@@@     @@@@@@@@@@@",
"     @@@@@@@@@@@@@@     @@@@@@@@@@@",
"     @@@@@@@@@@@@@@     @@@@@@@@@@@",
"     @@@@@@@@@@@@@@     @@@@@@@@@@@",
"     @@@@@@@@@@@@@@.....@@@@@@@@@@@",
"     @@@@@@@@@@@@@@.....@@@@@@@@@@@",
"     @@@@@@@@@@@@@@.....@@@@@@@@@@@",
"     @@@@@@@@@@@@@@.....@@@@@@@@@@@",
"     OOOOO@@@@@@@@@XXXXX@@@@@@@@@@@",
"     OOOOO@@@@@@@@@XXXXX@@@@@@@@@@@",
"     OOOOO@@@@@@@@@XXXXX@@@@@@@@@@@",
"     OOOOO@@@@@@@@@XXXXX@@@@@@@@@@@",
"     OOOOO@@@@@@@@@XXXXX@@@@@@@@@@@",
"     XXXXX++++@@@@@+++++@@@@@@@@@@@",
"     XXXXX++++@@@@@+++++@@@@@@@@@@@",
"     XXXXX++++@@@@@+++++@@@@@@@@@@@",
"     XXXXX++++@@@@@+++++@@@@@@@@@@@",
"     XXXXX++++@@@@@+++++@@@@@@@@@@@",
"     XXXXX++++@@@@@+++++@@@@@@@@@@@",
"          XXXX@@@@@@@@@@@@@@@@@@+++",
"          XXXX@@@@@@@@@@@@@@@@@@+++",
"          XXXX@@@@@@@@@@@@@@@@@@+++",
"              XXXXX@@@@@@@@+++++XXX",
"              XXXXX@@@@@@@@+++++XXX",
"              XXXXX@@@@@@@@+++++XXX",
"              XXXXX@@@@@@@@+++++XXX",
"              XXXXX@@@@@@@@+++++XXX",
"                   XXXXX+++XXXXX   ",
"                   XXXXX+++XXXXX   ",
"                   XXXXX+++XXXXX   "
};
