/* XPM */
static char *_[] = {
/* columns rows colors chars-per-pixel */
"35 75 7 1 ",
"  c #0000A4",
". c #4040FC",
"X c #5C60FC",
"o c #7C80FC",
"O c #9C9CFC",
"+ c #B8BCFC",
"@ c #D8D8FC",
/* pixels */
"                                   ",
"                                   ",
"                                   ",
"                                   ",
"                                   ",
"                                   ",
"                                   ",
"                                   ",
"                                   ",
"                                   ",
"         .....@@@@@@@@@@@@@        ",
"         .....@@@@@@@@@@@@@        ",
"         .....@@@@@@@@@@@@@        ",
"         .....@@@@@@@@@@@@@        ",
"         .....@@@@@@@@@@@@@        ",
"         .....@@@@@@@@OOOOO        ",
"         .....@@@@@@@@OOOOO        ",
"         .....@@@@@@@@OOOOO        ",
"         .....@@@@@@@@OOOOO        ",
"         XXXXX@@@@@@@@.....        ",
"         XXXXX@@@@@@@@.....        ",
"         XXXXX@@@@@@@@.....        ",
"         XXXXX@@@@@@@@.....        ",
"         XXXXX@@@@@@@@.....        ",
"         ooooo@@@@++++             ",
"         ooooo@@@@++++             ",
"         ooooo@@@@++++             ",
"         ooooo@@@@++++             ",
"         ooooo@@@@++++             ",
"         +++++@@@@OOOO     ++++    ",
"         +++++@@@@OOOO     ++++    ",
"         +++++@@@@OOOO     ++++    ",
"         +++++@@@@OOOO     ++++    ",
"         +++++@@@@XXXX+++++@@@@    ",
"         +++++@@@@XXXX+++++@@@@    ",
"         +++++@@@@XXXX+++++@@@@    ",
"         +++++@@@@XXXX+++++@@@@    ",
"         +++++@@@@XXXX+++++@@@@    ",
"     ....@@@@@++++    @@@@@@@@@    ",
"     ....@@@@@++++    @@@@@@@@@    ",
"     ....@@@@@++++    @@@@@@@@@    ",
"     ....@@@@@++++    @@@@@@@@@    ",
"     ....@@@@@++++    @@@@@@@@@    ",
"     oooo@@@@@OOOO    @@@@@@@@@    ",
"     oooo@@@@@OOOO    @@@@@@@@@    ",
"     oooo@@@@@OOOO    @@@@@@@@@    ",
"     oooo@@@@@OOOO    @@@@@@@@@    ",
"     ++++@@@@@XXXX    @@@@@@@@@    ",
"     ++++@@@@@XXXX    @@@@@@@@@    ",
"     ++++@@@@@XXXX    @@@@@@@@@    ",
"     ++++@@@@@XXXX    @@@@@@@@@    ",
"     ++++@@@@@XXXX    @@@@@@@@@    ",
"     @@@@@@@@@@@@@@@@@@@@@@@@@@@@@@",
"     @@@@@@@@@@@@@@@@@@@@@@@@@@@@@@",
"     @@@@@@@@@@@@@@@@@@@@@@@@@@@@@@",
"     @@@@@@@@@@@@@@@@@@@@@@@@@@@@@@",
"     @@@@@@@@@@@@@@@@@@@@@@@@@@@@@@",
"                      @@@@@@@@@    ",
"                      @@@@@@@@@    ",
"                      @@@@@@@@@    ",
"                      @@@@@@@@@    ",
"                      @@@@@@@@@    ",
"                      @@@@@@@@@    ",
"                      @@@@@@@@@    ",
"                      @@@@@@@@@    ",
"                      @@@@@@@@@    ",
"                      @@@@@@@@@    ",
"                      @@@@@@@@@    ",
"                      @@@@@@@@@    ",
"                      @@@@@@@@@    ",
"                      @@@@@@@@@    ",
"                      @@@@@@@@@    ",
"                      @@@@@@@@@    ",
"                      @@@@@@@@@    ",
"                      @@@@@@@@@    "
};
