/* XPM */
static char *_[] = {
/* columns rows colors chars-per-pixel */
"35 75 6 1 ",
"  c #0000A4",
". c #5C60FC",
"X c #7C80FC",
"o c #9C9CFC",
"O c #B8BCFC",
"+ c #D8D8FC",
/* pixels */
"                                   ",
"                                   ",
"                                   ",
"                                   ",
"                                   ",
"                  +++++++++XXXX    ",
"                  +++++++++XXXX    ",
"                  +++++++++XXXX    ",
"                  +++++++++XXXX    ",
"                  +++++++++XXXX    ",
"              +++++++++++++++++XXXX",
"              +++++++++++++++++XXXX",
"              +++++++++++++++++XXXX",
"              +++++++++++++++++XXXX",
"              +++++++++++++++++XXXX",
"         +++++OOOOXXXX+++++++++++++",
"         +++++OOOOXXXX+++++++++++++",
"         +++++OOOOXXXX+++++++++++++",
"         +++++OOOOXXXX+++++++++++++",
"     +++++++++OOOO    OOOOO++++++++",
"     +++++++++OOOO    OOOOO++++++++",
"     +++++++++OOOO    OOOOO++++++++",
"     +++++++++OOOO    OOOOO++++++++",
"     +++++++++OOOO    OOOOO++++++++",
"     +++++++++OOOO    OOOOO++++++++",
"     +++++++++OOOO    OOOOO++++++++",
"     +++++++++OOOO    OOOOO++++++++",
"     +++++++++OOOO    OOOOO++++++++",
"     +++++++++OOOO    OOOOO++++++++",
"     +++++++++++++XXXX+++++++++    ",
"     +++++++++++++XXXX+++++++++    ",
"     +++++++++++++XXXX+++++++++    ",
"     +++++++++++++XXXX+++++++++    ",
"     XXXX++++++++++++++++++        ",
"     XXXX++++++++++++++++++        ",
"     XXXX++++++++++++++++++        ",
"     XXXX++++++++++++++++++        ",
"     XXXX++++++++++++++++++        ",
"         XXXXX+++++++++++++++++    ",
"         XXXXX+++++++++++++++++    ",
"         XXXXX+++++++++++++++++    ",
"         XXXXX+++++++++++++++++    ",
"         XXXXX+++++++++++++++++    ",
"         +++++++++OOOO+++++++++++++",
"         +++++++++OOOO+++++++++++++",
"         +++++++++OOOO+++++++++++++",
"         +++++++++OOOO+++++++++++++",
"     +++++++++XXXX    OOOOO++++++++",
"     +++++++++XXXX    OOOOO++++++++",
"     +++++++++XXXX    OOOOO++++++++",
"     +++++++++XXXX    OOOOO++++++++",
"     +++++++++XXXX    OOOOO++++++++",
"     +++++++++XXXX    OOOOO++++++++",
"     +++++++++XXXX    OOOOO++++++++",
"     +++++++++XXXX    OOOOO++++++++",
"     +++++++++XXXX    OOOOO++++++++",
"     +++++++++XXXX    OOOOO++++++++",
"     +++++++++OOOO    OOOOO++++++++",
"     +++++++++OOOO    OOOOO++++++++",
"     +++++++++OOOO    OOOOO++++++++",
"     +++++++++OOOO    OOOOO++++++++",
"     OOOO+++++++++OOOOOOOOO++++++++",
"     OOOO+++++++++OOOOOOOOO++++++++",
"     OOOO+++++++++OOOOOOOOO++++++++",
"     OOOO+++++++++OOOOOOOOO++++++++",
"     OOOO+++++++++OOOOOOOOO++++++++",
"     ....++++++++++++++++++++++XXXX",
"     ....++++++++++++++++++++++XXXX",
"     ....++++++++++++++++++++++XXXX",
"     ....++++++++++++++++++++++XXXX",
"     ....++++++++++++++++++++++XXXX",
"         .....oooo+++++++++        ",
"         .....oooo+++++++++        ",
"         .....oooo+++++++++        ",
"         .....oooo+++++++++        "
};
