/* XPM */
static char *keyhud[] = {
/* columns rows colors chars-per-pixel */
"184 65 9 1 ",
"  c #404000",
". c #585400",
"X c #706C00",
"o c #848400",
"O c #9C9C00",
"+ c #B4AC00",
"@ c #CCC400",
"# c #E4D800",
"$ c None",
/* pixels */
"$$$$$$$$$$$$$$$$$$$$$$$$$$$$$$$$$$$$$$$$$$$$$$$$$$$$$$$$$$$$$$$$$$$$$$$$$$$$$$$$$$$$$$$$$$$$$$$$$$$$$$$$$$$$$$$$$$$$$$$$$$$$$$$$$OOOOOOO@@@@@@@@@###############@@@@@@@@OOOOOOOO$$$$$$$$",
"$$$$$$$$$$$$$$$$$$$$$$$$$$$$$$$$$$$$$$$$$$$$$$$$$$$$$$$$$$$$$$$$$$$$$$$$$$$$$$$$$$$$$$$$$$$$$$$$$$$$$$$$$$$$$$$$$$$$$$$$$$$$$$$$$OOOOOOO@@@@@@@@@###############@@@@@@@@OOOOOOOO$$$$$$$$",
"$$$$$$$$$$$$$$$$$$$$$$$$$$$$$$$$$$$$$$$$$$$$$$$$$$$$$$$$$$$$$$$$$$$$$$$$$$$$$$$$$$$$$$$$$$$$$$$$$$$$$$$$$$$$$$$$$$$$$$$$$$$$$$$$$OOOOOOO@@@@@@@@@###############@@@@@@@@OOOOOOOO$$$$$$$$",
"$$$$$$$$$$$$$$$$$$$$$$$$$$$$$$$$$$$$$$$$$$$$$$$$$$$$$$$$$$$$$$$$$$$$$$$$$$$$$$$$$$$$$$$$$$$$$$$$$$$$$$$$$$$$$$$$$$$$$$$$$$$$$$$$$OOOOOOO@@@@@@@@@###############@@@@@@@@OOOOOOOO$$$$$$$$",
"$$$$$$$$$$$$$$$$$$$$$$$$$$$$$$$$$$$$$$$$$$$$$$$$$$$$$$$$$$$$$$$$$$$$$$$$$$$$$$$$$$$$$$$$$$$$$$$$$$$$$$$$$$$$$$$$$$$$$$$$$$$$$$$$$OOOOOOO@@@@@@@@@###############@@@@@@@@OOOOOOOO$$$$$$$$",
"$$$$$$$$$$$$$$$$$$$$$$$$$$$$$$$$$$$$$$$$$$$$$$$$$$$$$$$$$$$$$$$$$$$$$$$$$$$$$$$$$$$$$$$$$$$$$$$$$$$$$$$$$$$$$$$$$$$$$$$$$$$$$$$$$OOOOOOO@@@@@@@@@###############@@@@@@@@OOOOOOOO$$$$$$$$",
"$$$$$$$$$$$$$$$$$$$$$$$$$$$$$$$$$$$$$$$$$$$$$$$$$$$$$$$$$$$$$$$$$$$$$$$$$$$$$$$$$$$$$$$$$$$$$$$$$$$$$$$$$$$$$$$$$$$$$$$$$$$$$$$$$OOOOOOO@@@@@@@@@###############@@@@@@@@OOOOOOOO$$$$$$$$",
"$$$$$$$$$$$$$$$$$$$$$$$$$$$$$$$$$$$$$$$$$$$$$$$$$$$$$$$$$$$$$$$$$$$$$$$$$$$$$$$$$$$$$$$$$$$$$$$$$$$$$$$$$$$$$$$$$$$$$$$$$$$$$$$$$OOOOOOO@@@@@@@@@###############@@@@@@@@OOOOOOOO$$$$$$$$",
"$$$$$$$$$$$$$$$$$$$$$$$$$$$$$$$$$$$$$$$$$$$$$$$$$$$$$$$$$$$$$$$$$$$$$$$$$$$$$$$$$$$$$$$$$$$$$$$$$$$$$$$$$$$$$$$$$$$$$$$$$$$$$$$$$OOOOOOO@@@@@@@@@###############@@@@@@@@OOOOOOOO$$$$$$$$",
"$$$$$$$$$$$$$$$$$$$$$$$$$$$$$$$$$$$$$$$$$$$$$$$$$$$$$$$$$$$$$$$$$$$$$$$$$$$$$$$$$$$$$$$$$$$$$$$$$$$$$$$$$$$$$$$$$$$$$$$$$$$$$$$$$@@@@@@@@@@@@@@@@XXXXXXXXXXXXXXX@@@@@@@@@@@@@@@@OOOOOOOO",
"$$$$$$$$$$$$$$$$$$$$$$$$$$$$$$$$$$$$$$$$$$$$$$$$$$$$$$$$$$$$$$$$$$$$$$$$$$$$$$$$$$$$$$$$$$$$$$$$$$$$$$$$$$$$$$$$$$$$$$$$$$$$$$$$$@@@@@@@@@@@@@@@@XXXXXXXXXXXXXXX@@@@@@@@@@@@@@@@OOOOOOOO",
"$$$$$$$$$$$$$$$$$$$$$$$$$$$$$$$$$$$$$$$$$$$$$$$$$$$$$$$$$$$$$$$$$$$$$$$$$$$$$$$$$$$$$$$$$$$$$$$$$$$$$$$$$$$$$$$$$$$$$$$$$$$$$$$$$@@@@@@@@@@@@@@@@XXXXXXXXXXXXXXX@@@@@@@@@@@@@@@@OOOOOOOO",
"$$$$$$$$$$$$$$$$$$$$$$$$$$$$$$$$$$$$$$$$$$$$$$$$$$$$$$$$$$$$$$$$$$$$$$$$$$$$$$$$$$$$$$$$$$$$$$$$$$$$$$$$$$$$$$$$$$$$$$$$$$$$$$$$$@@@@@@@@@@@@@@@@XXXXXXXXXXXXXXX@@@@@@@@@@@@@@@@OOOOOOOO",
"$$$$$$$$$$$$$$$$$$$$$$$$$$$$$$$$$$$$$$$$$$$$$$$$$$$$$$$$$$$$$$$$$$$$$$$$$$$$$$$$$$$$$$$$$$$$$$$$$$$$$$$$$$$$$$$$$$$$$$$$$$$$$$$$$@@@@@@@@@@@@@@@@XXXXXXXXXXXXXXX@@@@@@@@@@@@@@@@OOOOOOOO",
"$$$$$$$$$$$$$$$$$$$$$$$$$$$$$$$$$$$$$$$$$$$$$$$$$$$$$$$$$$$$$$$$$$$$$$$$$$$$$$$$$$$$$$$$$$$$$$$$$$$$$$$$$$$$$$$$$$$$$$$$$$$$$$$$$@@@@@@@@@@@@@@@@XXXXXXXXXXXXXXX@@@@@@@@@@@@@@@@OOOOOOOO",
"$$$$$$$$$$$$$$$$$$$$$$$$$$$$$$$$$$$$$$$$$$$$$$$$$$$$$$$$$$$$$$$$$$$$$$$$$$$$$$$$$$$$$$$$$$$$$$$$$$$$$$$$$$$$$$$$$$$$$$$$$$$$$$$$$@@@@@@@@@@@@@@@@XXXXXXXXXXXXXXX@@@@@@@@@@@@@@@@OOOOOOOO",
"$$$$$$$$$$$$$$$$$$$$$$$$$$$$$$$$$$$$$$$$$$$$$$$$$$$$$$$$$$$$$$$$$$$$$$$$$$$$$$$$$$$$$$$$$$$$$$$$$$$$$$$$$$$$$$$$$$$$$$$$$$$$$$$$$@@@@@@@@@@@@@@@@XXXXXXXXXXXXXXX@@@@@@@@@@@@@@@@OOOOOOOO",
"#########++++++++@@@@@@@@################################################################+++++++#########+++++++#################@@@@@@@ooooooooo$$$$$$$$$$$$$$$oooooooo@@@@@@@@OOOOOOOO",
"#########++++++++@@@@@@@@################################################################+++++++#########+++++++#################@@@@@@@ooooooooo$$$$$$$$$$$$$$$oooooooo@@@@@@@@OOOOOOOO",
"#########++++++++@@@@@@@@################################################################+++++++#########+++++++#################@@@@@@@ooooooooo$$$$$$$$$$$$$$$oooooooo@@@@@@@@OOOOOOOO",
"#########++++++++@@@@@@@@################################################################+++++++#########+++++++#################@@@@@@@ooooooooo$$$$$$$$$$$$$$$oooooooo@@@@@@@@OOOOOOOO",
"#########++++++++@@@@@@@@################################################################+++++++#########+++++++#################@@@@@@@ooooooooo$$$$$$$$$$$$$$$oooooooo@@@@@@@@OOOOOOOO",
"#########++++++++@@@@@@@@################################################################+++++++#########+++++++#################@@@@@@@ooooooooo$$$$$$$$$$$$$$$oooooooo@@@@@@@@OOOOOOOO",
"#########++++++++@@@@@@@@################################################################+++++++#########+++++++#################@@@@@@@ooooooooo$$$$$$$$$$$$$$$oooooooo@@@@@@@@OOOOOOOO",
"#########++++++++@@@@@@@@################################################################+++++++#########+++++++#################@@@@@@@ooooooooo$$$$$$$$$$$$$$$oooooooo@@@@@@@@OOOOOOOO",
"oooooooooXXXXXXXXOOOOOOOOOOOOOOOOOOOOOOOOOOOOOOOOOOOOOOOOOOOOOOOOOOOOOOOOOOOOOOOOOOOOOOOOXXXXXXXOOOOOOOOOXXXXXXXOOOOOOOOOOOOOOOOO@@@@@@@OOOOOOOOO$$$$$$$$$$$$$$$OOOOOOOO########OOOOOOOO",
"oooooooooXXXXXXXXOOOOOOOOOOOOOOOOOOOOOOOOOOOOOOOOOOOOOOOOOOOOOOOOOOOOOOOOOOOOOOOOOOOOOOOOXXXXXXXOOOOOOOOOXXXXXXXOOOOOOOOOOOOOOOOO@@@@@@@OOOOOOOOO$$$$$$$$$$$$$$$OOOOOOOO########OOOOOOOO",
"oooooooooXXXXXXXXOOOOOOOOOOOOOOOOOOOOOOOOOOOOOOOOOOOOOOOOOOOOOOOOOOOOOOOOOOOOOOOOOOOOOOOOXXXXXXXOOOOOOOOOXXXXXXXOOOOOOOOOOOOOOOOO@@@@@@@OOOOOOOOO$$$$$$$$$$$$$$$OOOOOOOO########OOOOOOOO",
"oooooooooXXXXXXXXOOOOOOOOOOOOOOOOOOOOOOOOOOOOOOOOOOOOOOOOOOOOOOOOOOOOOOOOOOOOOOOOOOOOOOOOXXXXXXXOOOOOOOOOXXXXXXXOOOOOOOOOOOOOOOOO@@@@@@@OOOOOOOOO$$$$$$$$$$$$$$$OOOOOOOO########OOOOOOOO",
"oooooooooXXXXXXXXOOOOOOOOOOOOOOOOOOOOOOOOOOOOOOOOOOOOOOOOOOOOOOOOOOOOOOOOOOOOOOOOOOOOOOOOXXXXXXXOOOOOOOOOXXXXXXXOOOOOOOOOOOOOOOOO@@@@@@@OOOOOOOOO$$$$$$$$$$$$$$$OOOOOOOO########OOOOOOOO",
"oooooooooXXXXXXXXOOOOOOOOOOOOOOOOOOOOOOOOOOOOOOOOOOOOOOOOOOOOOOOOOOOOOOOOOOOOOOOOOOOOOOOOXXXXXXXOOOOOOOOOXXXXXXXOOOOOOOOOOOOOOOOO@@@@@@@OOOOOOOOO$$$$$$$$$$$$$$$OOOOOOOO########OOOOOOOO",
"oooooooooXXXXXXXXOOOOOOOOOOOOOOOOOOOOOOOOOOOOOOOOOOOOOOOOOOOOOOOOOOOOOOOOOOOOOOOOOOOOOOOOXXXXXXXOOOOOOOOOXXXXXXXOOOOOOOOOOOOOOOOO@@@@@@@OOOOOOOOO$$$$$$$$$$$$$$$OOOOOOOO########OOOOOOOO",
"oooooooooXXXXXXXXOOOOOOOOOOOOOOOOOOOOOOOOOOOOOOOOOOOOOOOOOOOOOOOOOOOOOOOOOOOOOOOOOOOOOOOOXXXXXXXOOOOOOOOOXXXXXXXOOOOOOOOOOOOOOOOO@@@@@@@OOOOOOOOO$$$$$$$$$$$$$$$OOOOOOOO########OOOOOOOO",
"$$$$$$$$$$$$$$$$$XXXXXXXXXXXXXXXXXXXXXXX.........XXXXXXXXXXXXXXXXXXXXXXXX................       .........       ........XXXXXXXXX+++++++@@@@@@@@@###############@@@@@@@@++++++++XXXXXXXX",
"$$$$$$$$$$$$$$$$$XXXXXXXXXXXXXXXXXXXXXXX.........XXXXXXXXXXXXXXXXXXXXXXXX................       .........       ........XXXXXXXXX+++++++@@@@@@@@@###############@@@@@@@@++++++++XXXXXXXX",
"$$$$$$$$$$$$$$$$$XXXXXXXXXXXXXXXXXXXXXXX.........XXXXXXXXXXXXXXXXXXXXXXXX................       .........       ........XXXXXXXXX+++++++@@@@@@@@@###############@@@@@@@@++++++++XXXXXXXX",
"$$$$$$$$$$$$$$$$$XXXXXXXXXXXXXXXXXXXXXXX.........XXXXXXXXXXXXXXXXXXXXXXXX................       .........       ........XXXXXXXXX+++++++@@@@@@@@@###############@@@@@@@@++++++++XXXXXXXX",
"$$$$$$$$$$$$$$$$$XXXXXXXXXXXXXXXXXXXXXXX.........XXXXXXXXXXXXXXXXXXXXXXXX................       .........       ........XXXXXXXXX+++++++@@@@@@@@@###############@@@@@@@@++++++++XXXXXXXX",
"$$$$$$$$$$$$$$$$$XXXXXXXXXXXXXXXXXXXXXXX.........XXXXXXXXXXXXXXXXXXXXXXXX................       .........       ........XXXXXXXXX+++++++@@@@@@@@@###############@@@@@@@@++++++++XXXXXXXX",
"$$$$$$$$$$$$$$$$$XXXXXXXXXXXXXXXXXXXXXXX.........XXXXXXXXXXXXXXXXXXXXXXXX................       .........       ........XXXXXXXXX+++++++@@@@@@@@@###############@@@@@@@@++++++++XXXXXXXX",
"$$$$$$$$$$$$$$$$$XXXXXXXXXXXXXXXXXXXXXXX.........XXXXXXXXXXXXXXXXXXXXXXXX................       .........       ........XXXXXXXXX+++++++@@@@@@@@@###############@@@@@@@@++++++++XXXXXXXX",
"$$$$$$$$$$$$$$$$$++++++++########+++++++.........+++++++#########++++++++$$$$$$$$$$$$$$$$$$$$$$$$$$$$$$$$$$$$$$$$$$$$$$$$$$$$$$$$oooooooOOOOOOOOO+++++++++++++++OOOOOOOOoooooooo$$$$$$$$",
"$$$$$$$$$$$$$$$$$++++++++########+++++++.........+++++++#########++++++++$$$$$$$$$$$$$$$$$$$$$$$$$$$$$$$$$$$$$$$$$$$$$$$$$$$$$$$$oooooooOOOOOOOOO+++++++++++++++OOOOOOOOoooooooo$$$$$$$$",
"$$$$$$$$$$$$$$$$$++++++++########+++++++.........+++++++#########++++++++$$$$$$$$$$$$$$$$$$$$$$$$$$$$$$$$$$$$$$$$$$$$$$$$$$$$$$$$oooooooOOOOOOOOO+++++++++++++++OOOOOOOOoooooooo$$$$$$$$",
"$$$$$$$$$$$$$$$$$++++++++########+++++++.........+++++++#########++++++++$$$$$$$$$$$$$$$$$$$$$$$$$$$$$$$$$$$$$$$$$$$$$$$$$$$$$$$$oooooooOOOOOOOOO+++++++++++++++OOOOOOOOoooooooo$$$$$$$$",
"$$$$$$$$$$$$$$$$$++++++++########+++++++.........+++++++#########++++++++$$$$$$$$$$$$$$$$$$$$$$$$$$$$$$$$$$$$$$$$$$$$$$$$$$$$$$$$oooooooOOOOOOOOO+++++++++++++++OOOOOOOOoooooooo$$$$$$$$",
"$$$$$$$$$$$$$$$$$++++++++########+++++++.........+++++++#########++++++++$$$$$$$$$$$$$$$$$$$$$$$$$$$$$$$$$$$$$$$$$$$$$$$$$$$$$$$$oooooooOOOOOOOOO+++++++++++++++OOOOOOOOoooooooo$$$$$$$$",
"$$$$$$$$$$$$$$$$$++++++++########+++++++.........+++++++#########++++++++$$$$$$$$$$$$$$$$$$$$$$$$$$$$$$$$$$$$$$$$$$$$$$$$$$$$$$$$oooooooOOOOOOOOO+++++++++++++++OOOOOOOOoooooooo$$$$$$$$",
"$$$$$$$$$$$$$$$$$++++++++########+++++++.........+++++++#########++++++++$$$$$$$$$$$$$$$$$$$$$$$$$$$$$$$$$$$$$$$$$$$$$$$$$$$$$$$$oooooooOOOOOOOOO+++++++++++++++OOOOOOOOoooooooo$$$$$$$$",
"$$$$$$$$$$$$$$$$$++++++++########+++++++.........+++++++#########++++++++$$$$$$$$$$$$$$$$$$$$$$$$$$$$$$$$$$$$$$$$$$$$$$$$$$$$$$$$$$$$$$$XXXXXXXXXXXXXXXXXXXXXXXXXXXXXXXX$$$$$$$$$$$$$$$$",
"$$$$$$$$$$$$$$$$$++++++++########+++++++.........+++++++#########++++++++$$$$$$$$$$$$$$$$$$$$$$$$$$$$$$$$$$$$$$$$$$$$$$$$$$$$$$$$$$$$$$$XXXXXXXXXXXXXXXXXXXXXXXXXXXXXXXX$$$$$$$$$$$$$$$$",
"$$$$$$$$$$$$$$$$$++++++++########+++++++.........+++++++#########++++++++$$$$$$$$$$$$$$$$$$$$$$$$$$$$$$$$$$$$$$$$$$$$$$$$$$$$$$$$$$$$$$$XXXXXXXXXXXXXXXXXXXXXXXXXXXXXXXX$$$$$$$$$$$$$$$$",
"$$$$$$$$$$$$$$$$$++++++++########+++++++.........+++++++#########++++++++$$$$$$$$$$$$$$$$$$$$$$$$$$$$$$$$$$$$$$$$$$$$$$$$$$$$$$$$$$$$$$$XXXXXXXXXXXXXXXXXXXXXXXXXXXXXXXX$$$$$$$$$$$$$$$$",
"$$$$$$$$$$$$$$$$$++++++++########+++++++.........+++++++#########++++++++$$$$$$$$$$$$$$$$$$$$$$$$$$$$$$$$$$$$$$$$$$$$$$$$$$$$$$$$$$$$$$$XXXXXXXXXXXXXXXXXXXXXXXXXXXXXXXX$$$$$$$$$$$$$$$$",
"$$$$$$$$$$$$$$$$$++++++++########+++++++.........+++++++#########++++++++$$$$$$$$$$$$$$$$$$$$$$$$$$$$$$$$$$$$$$$$$$$$$$$$$$$$$$$$$$$$$$$XXXXXXXXXXXXXXXXXXXXXXXXXXXXXXXX$$$$$$$$$$$$$$$$",
"$$$$$$$$$$$$$$$$$++++++++########+++++++.........+++++++#########++++++++$$$$$$$$$$$$$$$$$$$$$$$$$$$$$$$$$$$$$$$$$$$$$$$$$$$$$$$$$$$$$$$XXXXXXXXXXXXXXXXXXXXXXXXXXXXXXXX$$$$$$$$$$$$$$$$",
"$$$$$$$$$$$$$$$$$++++++++########+++++++.........+++++++#########++++++++$$$$$$$$$$$$$$$$$$$$$$$$$$$$$$$$$$$$$$$$$$$$$$$$$$$$$$$$$$$$$$$XXXXXXXXXXXXXXXXXXXXXXXXXXXXXXXX$$$$$$$$$$$$$$$$",
"$$$$$$$$$$$$$$$$$++++++++########+++++++.........+++++++#########++++++++$$$$$$$$$$$$$$$$$$$$$$$$$$$$$$$$$$$$$$$$$$$$$$$$$$$$$$$$$$$$$$$XXXXXXXXXXXXXXXXXXXXXXXXXXXXXXXX$$$$$$$$$$$$$$$$",
"$$$$$$$$$$$$$$$$$.......................$$$$$$$$$........................$$$$$$$$$$$$$$$$$$$$$$$$$$$$$$$$$$$$$$$$$$$$$$$$$$$$$$$$$$$$$$$$$$$$$$$$$$$$$$$$$$$$$$$$$$$$$$$$$$$$$$$$$$$$$$$",
"$$$$$$$$$$$$$$$$$.......................$$$$$$$$$........................$$$$$$$$$$$$$$$$$$$$$$$$$$$$$$$$$$$$$$$$$$$$$$$$$$$$$$$$$$$$$$$$$$$$$$$$$$$$$$$$$$$$$$$$$$$$$$$$$$$$$$$$$$$$$$$",
"$$$$$$$$$$$$$$$$$.......................$$$$$$$$$........................$$$$$$$$$$$$$$$$$$$$$$$$$$$$$$$$$$$$$$$$$$$$$$$$$$$$$$$$$$$$$$$$$$$$$$$$$$$$$$$$$$$$$$$$$$$$$$$$$$$$$$$$$$$$$$$",
"$$$$$$$$$$$$$$$$$.......................$$$$$$$$$........................$$$$$$$$$$$$$$$$$$$$$$$$$$$$$$$$$$$$$$$$$$$$$$$$$$$$$$$$$$$$$$$$$$$$$$$$$$$$$$$$$$$$$$$$$$$$$$$$$$$$$$$$$$$$$$$",
"$$$$$$$$$$$$$$$$$.......................$$$$$$$$$........................$$$$$$$$$$$$$$$$$$$$$$$$$$$$$$$$$$$$$$$$$$$$$$$$$$$$$$$$$$$$$$$$$$$$$$$$$$$$$$$$$$$$$$$$$$$$$$$$$$$$$$$$$$$$$$$",
"$$$$$$$$$$$$$$$$$.......................$$$$$$$$$........................$$$$$$$$$$$$$$$$$$$$$$$$$$$$$$$$$$$$$$$$$$$$$$$$$$$$$$$$$$$$$$$$$$$$$$$$$$$$$$$$$$$$$$$$$$$$$$$$$$$$$$$$$$$$$$$",
"$$$$$$$$$$$$$$$$$.......................$$$$$$$$$........................$$$$$$$$$$$$$$$$$$$$$$$$$$$$$$$$$$$$$$$$$$$$$$$$$$$$$$$$$$$$$$$$$$$$$$$$$$$$$$$$$$$$$$$$$$$$$$$$$$$$$$$$$$$$$$$"
};
