/* XPM */
static char *yolo[] = {
/* columns rows colors chars-per-pixel */
"128 128 14 1 ",
"  c black",
". c #7F0000",
"X c #00007F",
"o c #7F007F",
"O c #007F7F",
"+ c gray50",
"@ c red",
"# c #FF7F00",
"$ c #FF007F",
"% c #FF7F7F",
"& c #7FFF7F",
"* c #FFFF7F",
"= c #7F7FFF",
"- c white",
/* pixels */
"                                                                                                                                ",
"                                                                                                                                ",
"    ****************************####@@@@            @@@@    XXXXXXXX    XXXXooooXXXX    @@@@********************************    ",
"    ****************************####@@@@            @@@@    XXXXXXXX    XXXXooooXXXX    @@@@********************************    ",
"    ************************####        XXXX    XXXX        OOOOoooo        XXXX            @@@@****************************    ",
"    ************************####        XXXX    XXXX        OOOOoooo        XXXX            @@@@****************************    ",
"    ********************####        XXXX&&&&++++        ++++    OOOOXXXX                    ....####************************    ",
"    ********************####        XXXX&&&&++++        ++++    OOOOXXXX                    ....####************************    ",
"    ********************        XXXX----XXXX    XXXX        ----XXXX    XXXX            XXXX    @@@@************************    ",
"    ********************        XXXX----XXXX    XXXX        ----XXXX    XXXX            XXXX    @@@@************************    ",
"    ****************@@@@    ooooOOOO        ++++oooo    XXXXOOOO&&&&            XXXX        XXXX    ####********************    ",
"    ****************@@@@    ooooOOOO        ++++oooo    XXXXOOOO&&&&            XXXX        XXXX    ####********************    ",
"    ****************....    XXXX    XXXX----XXXXOOOOXXXX    ooooOOOO++++            oooo    OOOO        ####****************    ",
"    ****************....    XXXX    XXXX----XXXXOOOOXXXX    ooooOOOO++++            oooo    OOOO        ####****************    ",
"    ************####    XXXX        OOOOXXXX    ----    XXXX    ooooOOOOXXXX        XXXX    XXXX    @@@@********************    ",
"    ************####    XXXX        OOOOXXXX    ----    XXXX    ooooOOOOXXXX        XXXX    XXXX    @@@@********************    ",
"    ************....    ooooXXXX    XXXX    XXXX++++    ----    XXXX    OOOOoooo                XXXX    ####****************    ",
"    ************....    ooooXXXX    XXXX    XXXX++++    ----    XXXX    OOOOoooo                XXXX    ####****************    ",
"    ************    ooooXXXX    XXXX    OOOO    OOOO    OOOOXXXX    oooo    XXXX                        @@@@****************    ",
"    ************    ooooXXXX    XXXX    OOOO    OOOO    OOOOXXXX    oooo    XXXX                        @@@@****************    ",
"    ********@@@@                    XXXX    XXXXXXXX    ++++                                    XXXX    ....****************    ",
"    ********@@@@                    XXXX    XXXXXXXX    ++++                                    XXXX    ....****************    ",
"    ********....    OOOOXXXX            XXXXOOOOXXXX....XXXX&&&&    XXXX        XXXXOOOO    XXXX            ****************    ",
"    ********....    OOOOXXXX            XXXXOOOOXXXX....XXXX&&&&    XXXX        XXXXOOOO    XXXX            ****************    ",
"    ########                XXXXXXXX        ooooXXXX$$$$    OOOO        XXXX        XXXX    oooo            ################    ",
"    ########                XXXXXXXX        ooooXXXX$$$$    OOOO        XXXX        XXXX    oooo            ################    ",
"    ********    XXXXooooXXXX    XXXX    XXXX&&&&    ++++    XXXXXXXX        oooo                    XXXX    ####************    ",
"    ********    XXXXooooXXXX    XXXX    XXXX&&&&    ++++    XXXXXXXX        oooo                    XXXX    ####************    ",
"    ########    OOOO        oooo    XXXXOOOO++++....++++....    XXXX        XXXX        XXXX                @@@@############    ",
"    ########    OOOO        oooo    XXXXOOOO++++....++++....    XXXX        XXXX        XXXX                @@@@############    ",
"    ####@@@@    XXXXXXXXooooXXXX        ----    $$$$%%%%$$$$    OOOO    XXXX    XXXX                XXXXoooo    ############    ",
"    ####@@@@    XXXXXXXXooooXXXX        ----    $$$$%%%%$$$$    OOOO    XXXX    XXXX                XXXXoooo    ############    ",
"    ####    XXXXoooo    OOOO        ....++++....++++&&&&++++    XXXX    oooo                            OOOO    ....########    ",
"    ####    XXXXoooo    OOOO        ....++++....++++&&&&++++    XXXX    oooo                            OOOO    ....########    ",
"    ####    oooo    ooooXXXX            XXXX$$$$%%%%****%%%%....    XXXXooooXXXX        XXXX            XXXXXXXX    @@@@####    ",
"    ####    oooo    ooooXXXX            XXXX$$$$%%%%****%%%%....    XXXXooooXXXX        XXXX            XXXXXXXX    @@@@####    ",
"    ####    XXXX    XXXX        ....XXXX    ++++&&&&****&&&&$$$$        oooooooo    XXXX    XXXX                ....########    ",
"    ####    XXXX    XXXX        ....XXXX    ++++&&&&****&&&&$$$$        oooooooo    XXXX    XXXX                ....########    ",
"    ####                XXXX    $$$$    ....%%%%****----****%%%%....    XXXXXXXX    oooo    XXXXoooo            @@@@########    ",
"    ####                XXXX    $$$$    ....%%%%****----****%%%%....    XXXXXXXX    oooo    XXXXoooo            @@@@########    ",
"    @@@@    ....    ooooXXXX....        $$$$&&&&************&&&&$$$$        oooooooo    oooo    XXXXXXXX    XXXX    ########    ",
"    @@@@    ....    ooooXXXX....        $$$$&&&&************&&&&$$$$        oooooooo    oooo    XXXXXXXX    XXXX    ########    ",
"    ####....        OOOO    $$$$    ....%%%%****%%%%************%%%%$$$$    XXXXooooXXXXOOOOXXXX                    ########    ",
"    ####....        OOOO    $$$$    ....%%%%****%%%%************%%%%$$$$    XXXXooooXXXXOOOOXXXX                    ########    ",
"    ####@@@@    XXXX            ....$$$$&&&&----****$$$$****&&&&%%%%%%%%OOOO    XXXXooooooooOOOO    XXXX    XXXX    @@@@####    ",
"    ####@@@@    XXXX            ....$$$$&&&&----****$$$$****&&&&%%%%%%%%OOOO    XXXXooooooooOOOO    XXXX    XXXX    @@@@####    ",
"    ########    OOOOXXXX    ....$$$$%%%%&&&&************....$$$$%%%%&&&&++++XXXX            oooo            XXXX    ....####    ",
"    ########    OOOOXXXX    ....$$$$%%%%&&&&************....$$$$%%%%&&&&++++XXXX            oooo            XXXX    ....####    ",
"    ####@@@@    oooo        $$$$++++%%%%&&&&****&&&&****&&&&%%%%%%%%++++OOOO                            XXXX            @@@@    ",
"    ####@@@@    oooo        $$$$++++%%%%&&&&****&&&&****&&&&%%%%%%%%++++OOOO                            XXXX            @@@@    ",
"    @@@@....    XXXX        $$$$        ....$$$$****%%%%****&&&&++++%%%%....        XXXXooooXXXX        XXXX        @@@@####    ",
"    @@@@....    XXXX        $$$$        ....$$$$****%%%%****&&&&++++%%%%....        XXXXooooXXXX        XXXX        @@@@####    ",
"    ####@@@@        XXXX    XXXX....        ....$$$$****....%%%%$$$$$$$$XXXX    XXXXoooooooooooo                ....########    ",
"    ####@@@@        XXXX    XXXX....        ....$$$$****....%%%%$$$$$$$$XXXX    XXXXoooooooooooo                ....########    ",
"    ########    XXXX        $$$$$$$$....        ....$$$$&&&&$$$$%%%%....    XXXXooooXXXXooooXXXX                ############    ",
"    ########    XXXX        $$$$$$$$....        ....$$$$&&&&$$$$%%%%....    XXXXooooXXXXooooXXXX                ############    ",
"    ########                $$$$....                XXXX%%%%....$$$$                    XXXXoooo                ....########    ",
"    ########                $$$$....                XXXX%%%%....$$$$                    XXXXoooo                ....########    ",
"    ########....    XXXX    ....    ****        ****        %%%%....    &&&&        &&&&    oooo    XXXX            @@@@####    ",
"    ########....    XXXX    ....    ****        ****        %%%%....    &&&&        &&&&    oooo    XXXX            @@@@####    ",
"    ########@@@@    ....    $$$$....++++--------++++    ....&&&&$$$$    ++++--------++++XXXXoooo    oooo    ....@@@@########    ",
"    ########@@@@    ....    $$$$....++++--------++++    ....&&&&$$$$    ++++--------++++XXXXoooo    oooo    ....@@@@########    ",
"    ############    $$$$    $$$$$$$$    ....$$$$%%%%    %%%%****....        ooooXXXX    oooo        XXXX    ################    ",
"    ############    $$$$    $$$$$$$$    ....$$$$%%%%    %%%%****....        ooooXXXX    oooo        XXXX    ################    ",
"    @@@@@@@@@@@@    $$$$    $$$$++++%%%%********&&&&++++%%%%&&&&XXXX    ooooOOOO++++ooooooooXXXX    oooo    @@@@@@@@@@@@@@@@    ",
"    @@@@@@@@@@@@    $$$$    $$$$++++%%%%********&&&&++++%%%%&&&&XXXX    ooooOOOO++++ooooooooXXXX    oooo    @@@@@@@@@@@@@@@@    ",
"    ############    ....    ++++%%%%****----********%%%%%%%%****        OOOO====&&&&++++oooooooo    OOOO    ################    ",
"    ############    ....    ++++%%%%****----********%%%%%%%%****        OOOO====&&&&++++oooooooo    OOOO    ################    ",
"    @@@@@@@@@@@@    ....    ++++&&&&------------****&&&&%%%%****        oooo++++====OOOOooooOOOO    oooo    @@@@@@@@@@@@@@@@    ",
"    @@@@@@@@@@@@    ....    ++++&&&&------------****&&&&%%%%****        oooo++++====OOOOooooOOOO    oooo    @@@@@@@@@@@@@@@@    ",
"    @@@@@@@@@@@@    $$$$    $$$$********----************&&&&****XXXX    XXXXOOOO++++OOOOooooOOOO    XXXX    @@@@@@@@@@@@@@@@    ",
"    @@@@@@@@@@@@    $$$$    $$$$********----************&&&&****XXXX    XXXXOOOO++++OOOOooooOOOO    XXXX    @@@@@@@@@@@@@@@@    ",
"    @@@@@@@@@@@@    ....    $$$$********************%%%%********....        ooooOOOOooooooooOOOO            @@@@@@@@@@@@@@@@    ",
"    @@@@@@@@@@@@    ....    $$$$********************%%%%********....        ooooOOOOooooooooOOOO            @@@@@@@@@@@@@@@@    ",
"    @@@@@@@@@@@@....        oooo&&&&************%%%%&&&&****----$$$$    XXXXooooXXXXoooooooooooo        ....@@@@@@@@@@@@@@@@    ",
"    @@@@@@@@@@@@....        oooo&&&&************%%%%&&&&****----$$$$    XXXXooooXXXXoooooooooooo        ....@@@@@@@@@@@@@@@@    ",
"    @@@@@@@@@@@@....        ....%%%%&&&&&&&&&&&&********&&&&----%%%%XXXXooooOOOOooooXXXXOOOOXXXX        @@@@@@@@@@@@@@@@@@@@    ",
"    @@@@@@@@@@@@....        ....%%%%&&&&&&&&&&&&********&&&&----%%%%XXXXooooOOOOooooXXXXOOOOXXXX        @@@@@@@@@@@@@@@@@@@@    ",
"    @@@@@@@@@@@@    XXXX    ....++++&&&&%%%%************&&&&----%%%%XXXXooooooooooooooooXXXXXXXX    ....@@@@@@@@@@@@@@@@@@@@    ",
"    @@@@@@@@@@@@    XXXX    ....++++&&&&%%%%************&&&&----%%%%XXXXooooooooooooooooXXXXXXXX    ....@@@@@@@@@@@@@@@@@@@@    ",
"    @@@@@@@@@@@@....        ....$$$$%%%%****----****&&&&%%%%****++++XXXXooooooooooooooooooooXXXX        @@@@@@@@@@@@@@@@@@@@    ",
"    @@@@@@@@@@@@....        ....$$$$%%%%****----****&&&&%%%%****++++XXXXooooooooooooooooooooXXXX        @@@@@@@@@@@@@@@@@@@@    ",
"    @@@@@@@@@@@@@@@@    XXXX    $$$$&&&&----****&&&&****    %%%%    XXXXooooooooooooooooOOOO        ....@@@@@@@@@@@@@@@@@@@@    ",
"    @@@@@@@@@@@@@@@@    XXXX    $$$$&&&&----****&&&&****    %%%%    XXXXooooooooooooooooOOOO        ....@@@@@@@@@@@@@@@@@@@@    ",
"    @@@@@@@@@@@@@@@@            $$$$********************&&&&$$$$XXXXooooXXXXooooOOOOooooOOOO        ....@@@@@@@@@@@@@@@@@@@@    ",
"    @@@@@@@@@@@@@@@@            $$$$********************&&&&$$$$XXXXooooXXXXooooOOOOooooOOOO        ....@@@@@@@@@@@@@@@@@@@@    ",
"    @@@@@@@@@@@@@@@@....        oooo********************%%%%ooooooooooooXXXXoooo++++OOOOoooo    XXXX    @@@@@@@@@@@@@@@@@@@@    ",
"    @@@@@@@@@@@@@@@@....        oooo********************%%%%ooooooooooooXXXXoooo++++OOOOoooo    XXXX    @@@@@@@@@@@@@@@@@@@@    ",
"    @@@@@@@@@@@@@@@@    XXXX    oooo&&&&****&&&&****&&&&%%%%$$$$oooooooooooooooo====OOOOXXXX        XXXX    @@@@@@@@@@@@@@@@    ",
"    @@@@@@@@@@@@@@@@    XXXX    oooo&&&&****&&&&****&&&&%%%%$$$$oooooooooooooooo====OOOOXXXX        XXXX    @@@@@@@@@@@@@@@@    ",
"    ................            ....%%%%****&&&&%%%%$$$$....            XXXXOOOO====OOOOXXXX            ....................    ",
"    ................            ....%%%%****&&&&%%%%$$$$....            XXXXOOOO====OOOOXXXX            ....................    ",
"    @@@@@@@@@@@@@@@@@@@@            $$$$****&&&&********&&&&%%%%$$$$ooooooooOOOO====oooo            ....@@@@@@@@@@@@@@@@@@@@    ",
"    @@@@@@@@@@@@@@@@@@@@            $$$$****&&&&********&&&&%%%%$$$$ooooooooOOOO====oooo            ....@@@@@@@@@@@@@@@@@@@@    ",
"    ....................            oooo&&&&&&&&****%%%%$$$$    XXXXooooooooOOOO++++XXXX            XXXX....................    ",
"    ....................            oooo&&&&&&&&****%%%%$$$$    XXXXooooooooOOOO++++XXXX            XXXX....................    ",
"    ................    XXXX        ....%%%%&&&&****%%%%++++ooooooooXXXXooooOOOOOOOOXXXX    XXXX        XXXX................    ",
"    ................    XXXX        ....%%%%&&&&****%%%%++++ooooooooXXXXooooOOOOOOOOXXXX    XXXX        XXXX................    ",
"    ............XXXX                    $$$$&&&&********%%%%$$$$ooooooooooooOOOOoooo            OOOO        XXXX............    ",
"    ............XXXX                    $$$$&&&&********%%%%$$$$ooooooooooooOOOOoooo            OOOO        XXXX............    ",
"    ........XXXX            OOOOXXXX    oooo%%%%****----&&&&++++ooooooooooooOOOOXXXX            XXXXXXXX        XXXX........    ",
"    ........XXXX            OOOOXXXX    oooo%%%%****----&&&&++++ooooooooooooOOOOXXXX            XXXXXXXX        XXXX........    ",
"    ....            XXXX++++XXXX        ....$$$$&&&&----****%%%%OOOOooooOOOOoooo                XXXX++++XXXX        ........    ",
"    ....            XXXX++++XXXX        ....$$$$&&&&----****%%%%OOOOooooOOOOoooo                XXXX++++XXXX        ........    ",
"    XXXX        XXXX++++XXXX        ....    oooo%%%%****&&&&%%%%OOOOooooOOOOXXXX    XXXX            OOOO++++        XXXX....    ",
"    XXXX        XXXX++++XXXX        ....    oooo%%%%****&&&&%%%%OOOOooooOOOOXXXX    XXXX            OOOO++++        XXXX....    ",
"            XXXX----OOOO            ....    ....$$$$%%%%%%%%++++ooooOOOOoooo        XXXX            XXXX++++OOOO        ....    ",
"            XXXX----OOOO            ....    ....$$$$%%%%%%%%++++ooooOOOOoooo        XXXX            XXXX++++OOOO        ....    ",
"        XXXX++++OOOO                $$$$        ....%%%%$$$$&&&&ooooooooXXXX        oooo                OOOO&&&&XXXX    XXXX    ",
"        XXXX++++OOOO                $$$$        ....%%%%$$$$&&&&ooooooooXXXX        oooo                OOOO&&&&XXXX    XXXX    ",
"    XXXX++++++++XXXX                $$$$....        oooo%%%%$$$$OOOOXXXX            oooo                XXXX++++OOOO            ",
"    XXXX++++++++XXXX                $$$$....        oooo%%%%$$$$OOOOXXXX            oooo                XXXX++++OOOO            ",
"    ++++----OOOO                    $$$$....                            XXXX        oooo                    OOOO&&&&OOOO        ",
"    ++++----OOOO                    $$$$....                            XXXX        oooo                    OOOO&&&&OOOO        ",
"    ----++++XXXX                    $$$$$$$$        ....            XXXXXXXX    XXXXOOOO                    XXXX++++&&&&XXXX    ",
"    ----++++XXXX                    $$$$$$$$        ....            XXXXXXXX    XXXXOOOO                    XXXX++++&&&&XXXX    ",
"    &&&&++++            XXXX    ....$$$$++++        oooo$$$$ooooooooooooXXXX    XXXXOOOOXXXX                    ++++----++++    ",
"    &&&&++++            XXXX    ....$$$$++++        oooo$$$$ooooooooooooXXXX    XXXXOOOOXXXX                    ++++----++++    ",
"    ++++OOOO        XXXX        ....$$$$%%%%....    $$$$%%%%%%%%$$$$XXXXXXXX    oooo++++XXXX                    OOOO++++----    ",
"    ++++OOOO        XXXX        ....$$$$%%%%....    $$$$%%%%%%%%$$$$XXXXXXXX    oooo++++XXXX                    OOOO++++----    ",
"    ++++XXXX        XXXX    ........$$$$&&&&$$$$    oooo%%%%&&&&$$$$ooooXXXX    oooo====XXXXXXXX        XXXX    XXXX++++&&&&    ",
"    ++++XXXX        XXXX    ........$$$$&&&&$$$$    oooo%%%%&&&&$$$$ooooXXXX    oooo====XXXXXXXX        XXXX    XXXX++++&&&&    ",
"    OOOO        XXXX        $$$$....++++****++++....    $$$$****$$$$oooo    XXXXOOOO&&&&XXXXooooXXXX        XXXX    OOOO++++    ",
"    OOOO        XXXX        $$$$....++++****++++....    $$$$****$$$$oooo    XXXXOOOO&&&&XXXXooooXXXX        XXXX    OOOO++++    ",
"    XXXX        XXXX    XXXX++++....$$$$****&&&&%%%%    oooo$$$$ooooXXXX    ooooOOOO====XXXXOOOOoooo        XXXX    XXXX++++    ",
"    XXXX        XXXX    XXXX++++....$$$$****&&&&%%%%    oooo$$$$ooooXXXX    ooooOOOO====XXXXOOOOoooo        XXXX    XXXX++++    ",
"                                                                                                                                ",
"                                                                                                                                "
};
